SplineFontDB: 3.2
FontName: Vilnius-Regular
FullName: Vilnius
FamilyName: Vilnius
Weight: Regular
Copyright: Copyright 2020 Aleksandr Andreev and Nikita Simmons (<https://sci.ponomar.net/>).
UComments: "2012-5-7: Created."
Version: 1.0
ItalicAngle: 0
UnderlinePosition: -100
UnderlineWidth: 50
Ascent: 800
Descent: 200
InvalidEm: 0
LayerCount: 2
Layer: 0 0 "Back" 1
Layer: 1 0 "Fore" 0
XUID: [1021 623 1685047925 1648344]
FSType: 0
OS2Version: 0
OS2_WeightWidthSlopeOnly: 0
OS2_UseTypoMetrics: 1
CreationTime: 1336434585
ModificationTime: 1610016695
PfmFamily: 17
TTFWeight: 400
TTFWidth: 5
LineGap: 90
VLineGap: 0
OS2TypoAscent: 0
OS2TypoAOffset: 1
OS2TypoDescent: 0
OS2TypoDOffset: 1
OS2TypoLinegap: 90
OS2WinAscent: 0
OS2WinAOffset: 1
OS2WinDescent: 0
OS2WinDOffset: 1
HheadAscent: 0
HheadAOffset: 1
HheadDescent: 0
HheadDOffset: 1
OS2Vendor: '    '
Lookup: 4 0 0 "'ccmp' Glyph Composition/Decomposition lookup 0" { "'ccmp' Glyph Composition/Decomposition lookup 0-1"  } ['ccmp' ('DFLT' <'dflt' > 'cyrl' <'dflt' > 'latn' <'dflt' > ) ]
Lookup: 4 0 0 "'ccmp' Secondary Ligatures" { "'ccmp' Secondary Ligatures 1"  } ['ccmp' ('DFLT' <'dflt' > 'cyrl' <'dflt' > 'latn' <'dflt' > ) ]
Lookup: 3 0 0 "'salt' Stylistic Alternatives lookup 2" { "'salt' Stylistic Alternatives lookup 2-1"  } ['salt' ('DFLT' <'dflt' > 'cyrl' <'dflt' > 'latn' <'dflt' > ) ]
Lookup: 260 0 0 "'mark' Mark Positioning lookup 0" { "'mark' Mark Positioning lookup 0-1"  } ['mark' ('DFLT' <'dflt' > 'cyrl' <'dflt' > 'latn' <'dflt' > ) ]
Lookup: 262 0 0 "'mkmk' Mark to Mark lookup 1" { "'mkmk' Mark to Mark lookup 1-1"  } ['mkmk' ('DFLT' <'dflt' > 'cyrl' <'dflt' > 'latn' <'dflt' > ) ]
MarkAttachClasses: 1
DEI: 91125

StartChar: uni0000
Encoding: 0 0 0
Width: 427
Flags: W
HStem: 0 19<29 398> 748 22<29 398>
VStem: 0 22<34 733> 405 22<34 733>
LayerCount: 2
Fore
SplineSet
0 770 m 5
 427 770 l 5
 427 0 l 5
 0 0 l 5
 0 770 l 5
29 748 m 5
 213 398 l 5
 398 748 l 5
 29 748 l 5
398 19 m 5
 213 369 l 5
 29 19 l 5
 398 19 l 5
221 383 m 5
 405 34 l 5
 405 733 l 5
 221 383 l 5
22 733 m 5
 22 34 l 5
 206 383 l 5
 22 733 l 5
EndSplineSet
Validated: 1
EndChar

StartChar: uniA676
Encoding: 42614 42614 1
Width: 0
Flags: HW
HStem: 724 49<-240.507 -192.399 -157.67 -106.199>
VStem: -246 52<724.707 770> -205 63<500 682.687> -155 52<724.039 771.533>
AnchorPoint: "Stacking" -170 482 mark 0
AnchorPoint: "Stacking" -164 854 basemark 0
AnchorPoint: "Diacritic" -170 482 mark 0
LayerCount: 2
Fore
SplineSet
-142 570 m 2xa0
 -142 546 -140 519 -137 500 c 1
 -146 500 -158 499 -167 499 c 0
 -179 499 -193 500 -205 500 c 1
 -205 519 -205 544 -205 565 c 0
 -205 575 -205 586 -205 596 c 0
 -205 627 -201 656 -198 684 c 1
 -182 686 -172 688 -158 688 c 0
 -152 688 -144 688 -137 687 c 1
 -138 682 -139 675 -139 667 c 0
 -139 650 -141 630 -141 613 c 0
 -141 603 -141 594 -142 585 c 2
 -142 570 l 2xa0
-103 727 m 1x90
 -112 724 -121 724 -132 724 c 0
 -140 724 -148 723 -155 724 c 1
 -158 727 -156 741 -158 747 c 0
 -160 755 -164 762 -164 772 c 1
 -154 772 -144 773 -133 773 c 2
 -123 773 l 2
 -119 773 -115 773 -112 772 c 1
 -109 766 -107 757 -106 750 c 2
 -104 737 l 2
 -103 733 -103 730 -103 727 c 1x90
-185 724 m 1
 -194 723 -204 724 -214 724 c 0
 -222 724 -230 723 -237 724 c 1
 -243 730 -246 757 -246 768 c 1
 -237 771 -228 771 -217 771 c 0
 -208 771 -203 770 -194 770 c 1xc0
 -189 759 -185 739 -185 724 c 1
EndSplineSet
Comment: "Copied from Hirmos"
Colour: ff0000
EndChar

StartChar: exclam
Encoding: 33 33 2
Width: 202
Flags: W
HStem: -4 126<52.5647 139.435>
VStem: 32.999 138.001<197.391 321.743> 32.999 126.001<12.0808 103.389> 59.999 47.001<463.852 646.088> 70 37<473.963 480.798> 72 96<310.808 417.844>
LayerCount: 2
Fore
SplineSet
96 122 m 0xa0
 113 122 128 116 140 104 c 0
 153 91 159 76 159 59 c 0
 159 42 153 27 140 15 c 0
 128 2 113 -4 96 -4 c 0
 79 -4 64 2 52 15 c 0
 39 27 32.999 42 32.999 59 c 0
 32.999 76 39 91 52 104 c 0
 64 116 79 122 96 122 c 0xa0
96 167 m 0
 76 167 60 173 49 185 c 0
 38 197 32.999 213 32.999 232 c 0xc0
 32.999 249 34 263 37 274 c 0
 40 286 45 300 52 315 c 0
 57 327 62 339 66 350 c 0
 70 361 72 374 72 387 c 0x84
 72 401 70 413 70 424 c 1x88
 66 457 l 1
 59.999 491 l 1
 59.999 503 59.999 516 59.999 531 c 0
 59.999 568 65 601 76 632 c 0
 87 663 102 688 120 706 c 0
 123 709 127 709 132 708 c 0
 138 707 141 704 140 701 c 0
 133 682 126 663 118 644 c 0
 111 625 107 606 107 587 c 0x90
 107 562 109 540 113 519 c 0
 117 498 124 475 134 450 c 2
 150 408 l 2
 155 395 158 383 161 370 c 0
 164 358 168 345 168 332 c 0x84
 168 319 171 303 171 285 c 0xc0
 171 270 169 255 166 240 c 0
 163 226 159 214 152 202 c 0
 146 192 138 183 129 176 c 0
 120 170 109 167 96 167 c 0
EndSplineSet
Validated: 1
EndChar

StartChar: parenleft
Encoding: 40 40 3
Width: 319
Flags: W
VStem: 119.999 48.001<-133.057 218.716>
LayerCount: 2
Fore
SplineSet
408 -466 m 0
 414 -470.667 417.167 -476.16 417.5 -482.493 c 0
 417.833 -488.826 416.166 -494.326 412.499 -498.993 c 0
 408.832 -503.66 403.999 -506.827 397.999 -508.494 c 0
 391.999 -510.161 385.999 -508.661 379.999 -503.994 c 0
 340.666 -474.661 305.166 -440.661 273.499 -401.994 c 0
 241.832 -363.327 214.499 -320.827 191.499 -274.494 c 0
 168.499 -228.161 150.832 -178.661 138.499 -125.994 c 0
 126.166 -73.3271 119.999 -17.9941 119.999 40.0059 c 0
 119.999 101.339 126.166 158.672 138.499 212.005 c 0
 150.832 265.338 168.499 314.671 191.499 360.004 c 0
 214.499 405.337 241.832 446.67 273.499 484.003 c 0
 305.166 521.336 340.666 554.669 379.999 584.002 c 0
 385.999 588.669 391.999 590.169 397.999 588.502 c 0
 403.999 586.835 408.832 583.668 412.499 579.001 c 0
 416.166 574.334 417.833 568.834 417.5 562.501 c 0
 417.167 556.168 414 550.668 408 546.001 c 0
 372 518.668 339.167 487.668 309.5 453.001 c 0
 279.833 418.334 254.5 379.834 233.5 337.501 c 0
 212.5 295.168 196.333 249.168 185 199.501 c 0
 173.667 149.834 168 96.667 168 40 c 0
 168 -14 173.667 -65.5 185 -114.5 c 0
 196.333 -163.5 212.5 -209.5 233.5 -252.5 c 0
 254.5 -295.5 279.833 -335 309.5 -371 c 0
 339.167 -407 372 -438.667 408 -466 c 0
EndSplineSet
Validated: 1
EndChar

StartChar: uni0410
Encoding: 1040 1040 4
Width: 614
Flags: HW
HStem: -455 25<68 119.217 233 285 318 372 499 555> 495 24.998<297 352 468 522>
VStem: 224 25<-175 -87.6914> 352 116<286.129 495> 372 127<-430 -221.129>
AnchorPoint: "Numeral" 336 48 basechar 0
AnchorPoint: "Yerok" 483 699 basechar 0
AnchorPoint: "Diacritic" 411 699 basechar 0
LayerCount: 2
Fore
SplineSet
160 -210 m 0xe8
 160 -184 179 -174 205 -174 c 0
 210 -174 216 -174 221 -175 c 1
 221 -156 223 -140 224 -120 c 1
 222 -111 218 -101 213 -90 c 2
 197 -55 l 2
 187 -31 177 -2 177 32 c 0
 177 61 187 95 201 112 c 0
 214 128 226 141 237 151 c 0
 257 169 278 187 298 204 c 0
 307 212 317 222 327 234 c 1
 342 266 348 307 352 348 c 1
 352 495 l 1
 297 495 l 1
 297 519.998 l 1
 522 519.998 l 1
 522 495 l 1
 468 495 l 1xf0
 499 -430 l 1
 555 -430 l 1
 555 -455 l 1
 318 -455 l 1
 318 -430 l 1
 372 -430 l 1
 364 -70 l 1
 324 -101 291 -142 271 -190 c 1
 286 -197 308 -211 308 -232 c 0
 308 -260 287 -270 259 -270 c 0
 256 -270 252 -269 248 -269 c 1
 242 -299 236 -339 236 -371 c 1
 233 -430 l 1
 285 -430 l 1
 285 -455 l 1
 68 -455 l 1
 68 -430 l 1
 115 -430 l 1
 126 -400 139 -370 153 -340 c 2
 195 -253 l 1
 180 -245 160 -231 160 -210 c 0xe8
260 -49 m 0
 257 -76 249 -111 249 -138 c 0
 249 -154 246 -168 246 -181 c 1
 247 -181 l 1
 266 -133 296 -99 330 -64 c 0
 341 -53 352 -43 363 -35 c 1
 357 249 l 1
 355 239 352 229 348 219 c 2
 331 179 l 2
 310 131 285 83 272 24 c 0
 267 0 263 -23 260 -49 c 0
EndSplineSet
EndChar

StartChar: uni0430
Encoding: 1072 1072 5
Width: 377
Flags: HW
HStem: 423 20G<284 301.5>
VStem: 199 101<300.514 429.655> 208.006 98.994<208.141 289.531>
AnchorPoint: "Numeral" 238 240 basechar 0
AnchorPoint: "Diacritic" 245 642.998 basechar 0
AnchorPoint: "Yerok" 245 644 basechar 0
LayerCount: 2
Fore
SplineSet
60 0 m 1xa0
 47 0 35 5 35 19 c 1
 35 61 54 88 70 121 c 0
 82 146 98 173 118 202 c 0
 148 244 184 300 199 362 c 1
 199 385 197 407 194 428 c 1
 219 435 268 443 300 443 c 1xc0
 303 374 302 306 307 233 c 0
 311 154 319 54 329 -12 c 1
 314 -14 298 -15 279 -15 c 0
 260 -15 235 -14 220 -12 c 1
 220 74 l 2
 217 103 215 135 212 169 c 1
 184 130 l 2
 170 110 153 87 146 60 c 2
 140 36 l 1
 113 29 80 14 60 0 c 1xa0
208.006 208 m 1xa0
 207.006 211 208.006 215 208.006 219 c 0
 208.006 232 205 247 205 260 c 0
 204 270 204 280 203 290 c 1
 182 242 152 196 129 150 c 0
 124 140 122 133 122 129 c 1
 124 124 128 121 133 121 c 0
 137 121 143 124 150 129 c 1
 155 134 164 145 175 161 c 0
 186 177 196.006 193 208.006 208 c 1xa0
EndSplineSet
EndChar

StartChar: uni0411
Encoding: 1041 1041 6
Width: 613
Flags: HW
HStem: -455 25<75 130 262 396 524.588 551> 495 24.998<102 156 276 404.781>
VStem: 130 132<-430 -180.962> 156 114<245.962 495> 396 130<-430 -276.998>
AnchorPoint: "Numeral" 336 48 basechar 0
AnchorPoint: "Yerok" 513 699 basechar 0
AnchorPoint: "Diacritic" 321 699 basechar 0
LayerCount: 2
Fore
SplineSet
75 -455 m 1xd8
 75 -430 l 1
 130 -430 l 1xe8
 156 495 l 1
 102 495 l 1
 102 519.998 l 1
 577 519.998 l 1
 577 517.998 577 516 578 514 c 0
 578 512 578 510 578 509 c 0
 578 507 578 506 577 505 c 0
 514 437 476 377 436 294 c 1
 425 294 l 1
 422 328 419 365 415 399 c 2
 409 451 l 2
 407 467 405 482 403 495 c 1
 276 495 l 1
 272 203 l 1
 276 152 283 118 304 84 c 0
 319 59 344 30 369 9 c 2
 405 -21 l 2
 427 -40 447 -59 462 -87 c 1
 494 -202 511 -306 526 -430 c 1
 551 -430 l 1
 551 -455 l 1
 75 -455 l 1xd8
328 6 m 1
 302 41 l 2
 289 57 279 75 270 94 c 1xd8
 262 -430 l 1
 396 -430 l 1
 391 -317 374 -190 353 -89 c 0
 345 -51 337 -19 328 6 c 1
EndSplineSet
EndChar

StartChar: uni0431
Encoding: 1073 1073 7
Width: 401
Flags: HW
HStem: 0 30<154 209> 407 30<189.359 271.378>
AnchorPoint: "Numeral" 238 240 basechar 0
AnchorPoint: "Diacritic" 228 642.998 basechar 0
AnchorPoint: "Yerok" 348 644 basechar 0
LayerCount: 2
Fore
SplineSet
54 0 m 1
 60 126 72 277 89 390 c 0
 92 411 95 426 98 437 c 1
 388 437 l 2
 392 437 394 434 394 431 c 0
 394 429 393 427 392 425 c 0
 386 417 378 408 368 397 c 0
 349 375 330 353 310 332 c 0
 302 322 295 315 290 311 c 0
 288 309 287 308 285 308 c 0
 280 308 279 324 278 333 c 0
 278 357 275 389 266 407 c 1
 193 407 l 1
 186 383 182 349 178 317 c 0
 174 276 169 228 165 186 c 1
 201 202 225 214 237 222 c 0
 241 224 246 226 249 222 c 0
 261 206 276 158 285 130 c 0
 297 92 309 43 315 0 c 1
 54 0 l 1
163 166 m 1
 159 121 156 69 154 30 c 1
 209 30 l 1
 202 67 191 113 179 145 c 0
 175 156 171 163 168 167 c 1
 167 166 165 166 163 166 c 1
EndSplineSet
EndChar

StartChar: uni0412
Encoding: 1042 1042 8
Width: 633
Flags: HW
HStem: -455.006 25.006<75 130.001 262 396.003 525.957 551> 507.995 22.005<320.735 404.369>
VStem: 130.001 131.999<-430 -184.045> 152.001 118.999<97.0455 226.06 241 423.9> 396.003 130.997<-430 -281.247> 446.005 105.995<327.087 478.913>
AnchorPoint: "Numeral" 336 48 basechar 0
AnchorPoint: "Yerok" 496 699 basechar 0
AnchorPoint: "Diacritic" 321 699 basechar 0
LayerCount: 2
Fore
SplineSet
480 -155 m 1xd4
 501 -245 516 -334 527 -430 c 1
 551 -430 l 1
 551 -455.006 l 1
 75 -455.006 l 1
 75 -430 l 1
 130.001 -430 l 1xe8
 152.001 343 l 1
 155.001 426 208 489 268 514 c 0
 292 525 316 530 349 530 c 2
 396.003 530 l 1xd8
 486.003 528 552 497 552 402 c 0
 552 352 542 334 511 309 c 0
 475 280 401 287 351 271 c 0
 310 259 280 216 271 178 c 1
 271 177 l 1
 270 97 l 1
 281 33 320 -20 363 -53 c 0
 390 -73 418 -91 443 -114 c 1
 462 -133 l 2
 467 -139 473 -146 480 -155 c 1xd4
330 -56 m 2
 305 -34 284 -9 269 23 c 1
 262 -430 l 1
 396.003 -430 l 1
 393.003 -339 382 -239 368 -156 c 0
 363 -124 357 -96 350 -73 c 1
 330 -56 l 2
272 241 m 1
 286 260 315 286 341 293 c 2
 377 302 l 1
 429 313 446.005 344 446.005 402 c 0xc4
 446.005 446 431 482 404 499 c 0
 394 505 383 507.995 370 507.995 c 0
 317 507.995 276 477 275 428 c 2
 272 241 l 1
EndSplineSet
EndChar

StartChar: uni0432
Encoding: 1074 1074 9
Width: 403
Flags: HW
HStem: 0 30<148 252> 407 30<193 263>
VStem: 42 314<0 28.0938>
AnchorPoint: "Numeral" 194 240 basechar 0
AnchorPoint: "Diacritic" 215 642.998 basechar 0
AnchorPoint: "Yerok" 308 644 basechar 0
LayerCount: 2
Fore
SplineSet
42 0 m 1
 48 74 58 156 68 230 c 2
 79 313 l 2
 85 356 92 402 99 437 c 1
 320 437 l 2
 323 437 340 432 331 427 c 0
 315 416 297 398 282 382 c 2
 254 351 l 2
 245 340 237 330 230 321 c 2
 216 301 l 2
 212 295 208 288 205 281 c 1
 212 276 l 1
 305 276 l 1
 311 268 317 253 322 231 c 0
 339 166 353 78 356 0 c 1
 42 0 l 1
194 261 m 1
 175 249 167 191 161 163 c 0
 156 136 151 108 148 80 c 2
 148 30 l 1
 252 30 l 1
 248 108 237 183 212 237 c 0
 207 251 203 254 194 261 c 1
177 293 m 1
 198 337 231 375 263 407 c 1
 193 407 l 1
 186 362 l 2
 183 342 180 319 177 293 c 1
EndSplineSet
EndChar

StartChar: uni0413
Encoding: 1043 1043 10
Width: 589
Flags: HW
HStem: -455 25<75 129.999 262 317> 495 24.998<102 155.999 276 404.781>
VStem: 129.999 132.001<-430 -180.962> 155.999 120.001<245.962 495>
AnchorPoint: "Numeral" 336 48 basechar 0
AnchorPoint: "Yerok" 513 699 basechar 0
AnchorPoint: "Diacritic" 321 699 basechar 0
LayerCount: 2
Fore
SplineSet
75 -455 m 1xe0
 75 -430 l 1
 129.999 -430 l 1xe0
 155.999 495 l 1
 102 495 l 1
 102 519.998 l 1
 577 519.998 l 1
 577 517.998 577 516 578 514 c 0
 578 512 578 510 578 509 c 0
 578 507 578 506 577 505 c 0
 514 437 476 377 436 294 c 1
 425 294 l 1
 422 328 419 365 415 399 c 2
 409 451 l 2
 407 467 405 482 403 495 c 1
 276 495 l 1xd0
 262 -430 l 1
 317 -430 l 1
 317 -455 l 1
 75 -455 l 1xe0
EndSplineSet
EndChar

StartChar: uni0433
Encoding: 1075 1075 11
Width: 387
Flags: HW
HStem: 407.001 29.999<174.479 252.171>
VStem: 51 100<-1.94238 263.531> 258.001 12.999<284.012 297.933>
AnchorPoint: "Numeral" 208 240 basechar 0
AnchorPoint: "Diacritic" 205 642.998 basechar 0
AnchorPoint: "Yerok" 325 644 basechar 0
LayerCount: 2
Fore
SplineSet
257 352 m 0
 257 376 255 398.001 242 407.001 c 1
 176 407.001 l 1
 165 316.001 158 203 154 103 c 0
 152 65 151 31 151 0 c 1
 133 -2 116 -3 100 -3 c 0
 85 -3 68 -2 51 0 c 1
 51 113 60 241 70 346 c 0
 74 383 78 414 81 437 c 1
 376 437 l 2
 379 437 381 434 381 431 c 0
 381 429 380 426 379 425 c 0
 342 388 293 333 271 287 c 0
 270 285 267 284 264 284 c 0
 260 284 258.001 285 258.001 287 c 0
 257.001 292 258.001 298 258.001 305 c 0
 258.001 321 257 336 257 352 c 0
EndSplineSet
EndChar

StartChar: uni0414
Encoding: 1044 1044 12
Width: 665
Flags: HW
HStem: -455.003 25.003<47 78.7259 231.69 261.575 284 397.002> 494.998 25<322 377 493 557>
VStem: 126.002 9.998<-655 -638.349> 377 116<286.127 494.998> 397.002 126.998<-430 -221.129>
AnchorPoint: "Numeral" 336 48 basechar 0
AnchorPoint: "Yerok" 563 699 basechar 0
AnchorPoint: "Diacritic" 451 699 basechar 0
LayerCount: 2
Fore
SplineSet
126.002 -655 m 1xe8
 113.002 -584 100 -512.003 74 -455.003 c 1
 47 -455.003 l 1
 47 -430 l 1
 258 -430 l 1
 269 -392 279 -354 289 -315 c 0
 301 -266 312 -216 324 -166 c 2
 343 -79 l 2
 354 -25 364 28 372 84 c 2
 384 170 l 1
 377 494.998 l 1
 322 494.998 l 1
 322 519.998 l 1
 557 519.998 l 1
 557 494.998 l 1
 493 494.998 l 1xf0
 524 -430 l 1
 698 -430 l 1
 698 -433 698 -435 699 -437 c 0
 699 -442 699 -445 698 -445 c 0
 652 -470 613 -503 582 -542 c 0
 550 -581 525 -619 507 -656 c 1
 496 -656 l 1
 496 -643 494 -630 494 -615 c 0
 494 -574 497 -533 501 -497 c 2
 506 -455.003 l 1
 244 -455.003 l 1
 190 -499.003 155 -577 136 -655 c 1
 126.002 -655 l 1xe8
348 -172 m 2
 337 -223 325 -271 314 -317 c 2
 284 -430 l 1
 397.002 -430 l 1xe8
 387 26 l 1
 382 -6 376 -38 369 -70 c 2
 348 -172 l 2
EndSplineSet
EndChar

StartChar: uni0434
Encoding: 1076 1076 13
Width: 462
Flags: HW
HStem: 0 30.001<100.76 139.583 167 241 337.896 356.127> 428.001 20G<305.767 320.215>
VStem: 212.999 103.666<182.981 429.248>
AnchorPoint: "Numeral" 238 240 basechar 0
AnchorPoint: "Diacritic" 275 642.998 basechar 0
AnchorPoint: "Yerok" 373 644 basechar 0
LayerCount: 2
Fore
SplineSet
239 44 m 2
 232.239 87.9401 227.76 127.287 221.998 178 c 1
 208.883 125.533 188.895 71.9643 167 30 c 1
 241 30 l 1
 239 44 l 2
432.998 30.001 m 1
 434.418 26.4513 436.109 22.6278 436.109 18.6318 c 0
 436.109 14.2861 433.739 4.40918 428.999 -10.998 c 0
 420.999 -39.665 410.336 -64.5 397.003 -85.5 c 0
 391.513 -94.1471 386.758 -98.4706 382.737 -98.4706 c 0
 376.993 -98.4706 372.748 -89.6471 370.003 -72 c 0
 365.336 -42 358.669 -18 350.002 0 c 1
 104.002 0 l 1
 96.6689 -33.333 92.002 -55.5 90.002 -66.5 c 0
 88.002 -77.5 83.502 -83.167 76.502 -83.5 c 0
 69.502 -83.833 63.502 -76.333 58.502 -61 c 0
 50.6788 -37.3232 43.1289 -13.3731 36.002 11 c 0
 34.6689 14.333 34.002 18.5 34.002 23.5 c 0
 34.002 28.5 36.6689 30.667 42.002 30 c 2
 132.002 30 l 1
 165.051 84.296 189.169 155.661 201.5 232.5 c 0
 205.833 259.5 209.666 284.667 212.999 308 c 1
 210.652 349.08 208.999 387.168 208.999 427.001 c 1
 234.391 436.673 289.535 445.405 321.999 448.001 c 1
 318.431 410.543 316.665 367.15 316.665 324.223 c 0
 316.665 221.241 324.711 116.623 339.998 30.001 c 1
 432.998 30.001 l 1
EndSplineSet
EndChar

StartChar: uni0415
Encoding: 1045 1045 14
Width: 688
Flags: W
HStem: -465 24<280.359 364.88> -203 25<401 446 560.974 611> -47.0039 25.0039<401 450 566.182 611> 60.9961 57.0039<315.604 411.917> 240 25<401 446 561.249 611> 504.993 24.007<280.983 363.132>
VStem: 65 126<-185.337 247.125> 446 118<-272.763 -203 -22 27.6626 265 333.441>
AnchorPoint: "Numeral" 336 48 basechar 0
AnchorPoint: "Yerok" 513 699 basechar 0
AnchorPoint: "Diacritic" 321 699 basechar 0
LayerCount: 2
Fore
SplineSet
564 -203 m 1
 543 -287 511 -352 468 -397 c 0
 425 -442 376 -465 323 -465 c 0
 286 -465 251 -454 220 -431 c 0
 149 -379 107 -284 84 -176 c 0
 71 -115 65 -45 65 32 c 0
 65 178 89 305 138 396 c 0
 161 439 189 472 220 495 c 0
 251 518 286 529 323 529 c 0
 387 529 434 497 468 460 c 0
 514 411 545 343 564 265 c 1
 611 265 l 1
 611 240 l 1
 401 239.993 l 1
 401 265 l 1
 446 265 l 1
 437 351 423 441 374 485 c 0
 360 498 343 504.993 323 504.993 c 0
 273 504.993 248 465 232 425 c 0
 191 327 191 177 191 40 c 0
 191 32 l 2
 191 -47.0039 l 1
 204 -17.0039 226 22 251 47 c 0
 275 72 306 95 341 108 c 0
 358 115 375 118 392 118 c 0
 463 118 516 91 549 37 c 0
 559 19 565 2 568 -22 c 1
 611 -22 l 1
 611 -47.0039 l 1
 401 -47.0039 l 1
 401 -22 l 1
 450 -22 l 1
 441 12 420 39 391 53 c 0
 382 58 372 60.9961 361 60.9961 c 0
 316 60.9961 278 43 257 16 c 0
 225 -27 204 -70 194 -128 c 1
 194 -237 210 -354 263 -415 c 0
 279 -432 299 -441 323 -441 c 0
 370 -441 394 -406 409 -370 c 0
 430 -325 440 -263 446 -203 c 1
 401 -203 l 1
 401 -178 l 1
 611 -178 l 1
 611 -203 l 1
 564 -203 l 1
EndSplineSet
EndChar

StartChar: uni0435
Encoding: 1077 1077 15
Width: 295
Flags: HW
HStem: 425 20G<227 245>
VStem: 60.999 92.001<246.468 316.67>
AnchorPoint: "Numeral" 135 232 basechar 0
AnchorPoint: "Diacritic" 152 642.998 basechar 0
AnchorPoint: "Yerok" 152 644 basechar 0
LayerCount: 2
Fore
SplineSet
160 172 m 1
 163 150 167 124 171 107 c 1
 186 110 202 116 216 123 c 0
 219 124 220 123 220 120 c 2
 220 111 l 1
 220 109 220 108 220 105 c 0
 220 88 215 54 212 45 c 1
 191 28 160 15 133 4 c 2
 114 -4 l 1
 111 -5 109 -6 107 -6 c 0
 93 -6 86.999 20 83.999 33 c 0
 78.999 58 64.999 85 60.999 116 c 1
 60.999 213 l 2
 59.999 222 60.999 230 60.999 236 c 0
 62.999 321 87 361 141 401 c 0
 166 418 210 440 244 445 c 1
 246 436 247 427 247 416 c 0
 247 395 244 376 240 355 c 1
 205 346 181 332 157 317 c 1
 155 310 154 300 154 287 c 0
 153 283 153 279 153 274 c 0
 153 265 153 256 154 246 c 1
 180 256 208 269 230 285 c 0
 233 286 235 285 235 282 c 2
 235 272 l 1
 235.077 271.231 235.112 270.237 235.112 269.056 c 0
 235.112 254.882 230 213.769 230 211 c 1
 209 194 186 182 160 172 c 1
EndSplineSet
EndChar

StartChar: uni0416
Encoding: 1046 1046 16
Width: 904
Flags: HW
HStem: -454.999 24.999<61 110.142 246 289 328 383.001 515 570 605 658 792.863 843> 494.999 25<365 409 529 575> 519.999 7.00098<769.177 772.999>
VStem: 109.002 136.998<-430 -308.388> 383.001 131.999<-430 -190.584> 404.006 121.994<185.974 209.416 280.008 368.129 391 391>
AnchorPoint: "Numeral" 456 48 basechar 0
AnchorPoint: "Yerok" 653 699 basechar 0
AnchorPoint: "Diacritic" 461 699 basechar 0
LayerCount: 2
Fore
SplineSet
401 203 m 1xb8
 380 209 357 219 357 244 c 0
 357 272 381.006 281 404.006 287 c 1
 404.006 291 l 1
 396.006 349 380 397 346 434 c 0
 340 440 318 458 309 461 c 1
 300 432 289 387 284 354 c 1
 275 354 l 1
 260 404 230 449 199 484 c 0
 187 498 174 509.999 160 519.999 c 1
 165 527 l 1xb4
 217 521 275 505 316 490 c 0
 330 485 354 466 364 456 c 0
 383 437 397 416 406 391 c 1
 409 494.999 l 1
 365 494.999 l 1
 365 519.999 l 1
 575 519.999 l 1
 575 494.999 l 1
 529 494.999 l 1xd4
 529 390 l 1
 544 423 566 453 596 474 c 2
 617 490 l 1
 659 509 713 520 768 527 c 1
 773 519.999 l 1
 732 489.999 698 444 675 396 c 0
 668 381 662 367 658 354 c 1
 649 354 l 1
 644 387 633 430 624 459 c 1
 569 428 537 364 526 293 c 1
 526 287 l 1xb4
 548 281 569 271 569 244 c 0
 569 217 548 207 525 202 c 1
 525 160 l 1
 534 105 553 66 582 35 c 0
 643 -32 688 -98 740 -181 c 1
 766 -260 782 -335 794 -430 c 1
 843 -430 l 1
 843 -454.999 l 1
 605 -454.999 l 1
 605 -430 l 1
 658 -430 l 1
 658 -356 654 -276 644 -205 c 1
 635 -149 627 -83 607 -37 c 1
 577 0 544 36 523 83 c 1
 515 -430 l 1
 570 -430 l 1
 570 -454.999 l 1
 328 -454.999 l 1
 328 -430 l 1
 383.001 -430 l 1
 398 83 l 1
 384 54 363 21 344 0 c 0
 336 -9 328 -16 321 -24 c 2
 307 -39 l 1
 273 -118 257 -224 250 -326 c 0
 247 -365 246 -400 246 -430 c 1
 289 -430 l 1
 289 -454.999 l 1
 61 -454.999 l 1
 61 -430 l 1
 109.002 -430 l 1
 121.002 -338 138 -268 164 -190 c 1
 186 -145 214 -110 244 -74 c 2
 290 -21 l 1
 338 31 385 81 400 169 c 1
 401 203 l 1xb8
EndSplineSet
EndChar

StartChar: uni0436
Encoding: 1078 1078 17
Width: 730
Flags: HW
HStem: 424 20G<422 440 640 674>
VStem: 29 105<0.2351 72.5325> 136 102<263 389.48> 304 102<-2.73306 247.875> 316.989 96.011<2.375 51.2245 105.187 249>
AnchorPoint: "Numeral" 368 249 basechar 0
AnchorPoint: "Diacritic" 378 642.998 basechar 0
AnchorPoint: "Yerok" 598 644 basechar 0
LayerCount: 2
Fore
SplineSet
702 0 m 1xe8
 691 -3 672 -3 656 -3 c 0
 653 -3 650 -3 647 -3 c 0
 628 -3 604 -3 589 -0 c 1
 583 39 568 72 548 98 c 0
 516 138 484 180 447 215 c 2
 413 249 l 1
 413 241 l 1xe8
 408 175 406 129 406 104 c 2
 406 53 l 2
 406 34 406 17 407 -0 c 1
 394 -3 380 -4 364 -4 c 2
 354 -4 l 2
 339 -4 323 -3 304 -0 c 1
 304 19 l 2
 304 23 304 27 304 32 c 0xf0
 304 87 313.989 207 316.989 248 c 0
 317.989 253 316.989 259 316.989 265 c 0
 316.989 271 315.989 277 316.989 283 c 1
 259.989 238 218 190 177 130 c 0
 155 98 137 62 134 16 c 0
 134 11 134 5 133 -0 c 1
 116 -3 98 -4 77 -4 c 0
 57 -4 41 -3 30 -0 c 1
 29 2 29 5 29 7 c 0
 29 12 30 16 31 22 c 0
 33 44 47 67 58 85 c 0
 73 111 94 137 116 157 c 0
 148 187 181 216 214 244 c 1
 201 244 187 244 174 244 c 0
 166 244 153 245 136 247 c 1
 136 274 l 2
 136 278 136 283 136 288 c 0
 136 323 142 402 142 419 c 1
 185 426 225 431 271 435 c 1
 299 420 l 2
 309 415 319 410 329 404 c 1
 332 422 l 1
 362 432 403 441 441 444 c 1
 439 434 437 423 435 412 c 2
 429 377 l 1
 444 387 460 396 476 404 c 2
 521 427 l 1
 573 445 610 447 670 447 c 0
 678 447 677 435 672 432 c 0
 664 427 655 420 646 411 c 2
 618 384 l 2
 602 368 585 347 571 333 c 1
 564 341 555 350 546 361 c 2
 521 392 l 1
 488 382 451 356 423 337 c 1
 450 316 479 292 509 265 c 2
 602 181 l 1
 638 145 672 93 695 37 c 0
 700 25 701 15 702 0 c 1xe8
239 263 m 1
 251 272 264 282 277 291 c 2
 322 323 l 1
 322 328 322 332 323 335 c 1
 310 346 298 356 287 365 c 2
 255 390 l 1
 241 390 l 1
 238 379 238 362 238 346 c 0
 238 342 238 337 238 333 c 0
 237 327 237 321 237 315 c 0
 237 309 237 303 238 296 c 0
 238 284 239 273 239 263 c 1
EndSplineSet
EndChar

StartChar: uni0404
Encoding: 1028 1028 18
Width: 688
Flags: W
HStem: -465 24<280.359 364.88> -203 25<401 446 560.974 611> -47.0039 25.0039<401 450 566.182 611> 60.9961 57.0039<315.604 411.917> 240 25<401 446 561.249 611> 504.993 24.007<280.983 363.132>
VStem: 65 126<-185.337 247.125> 450 118<-22 21.7974 265 324.871>
AnchorPoint: "Numeral" 336 48 basechar 0
AnchorPoint: "Diacritic" 321 699 basechar 0
AnchorPoint: "Yerok" 513 699 basechar 0
LayerCount: 2
Fore
SplineSet
564 -203 m 1
 543 -287 511 -352 468 -397 c 0
 425 -442 376 -465 323 -465 c 0
 286 -465 251 -454 220 -431 c 0
 149 -379 107 -284 84 -176 c 0
 71 -115 65 -45 65 32 c 0
 65 178 89 305 138 396 c 0
 161 439 189 472 220 495 c 0
 251 518 286 529 323 529 c 0
 387 529 434 497 468 460 c 0
 514 411 545 343 564 265 c 1
 611 265 l 1
 611 240 l 1
 401 240 l 1
 401 265 l 1
 446 265 l 1
 437 351 423 441 374 485 c 0
 360 498 343 504.993 323 504.993 c 0
 273 504.993 248 465 232 425 c 0
 191 327 191 177 191 40 c 0
 191 32 l 2
 191 -47.0039 l 1
 204 -17.0039 226 22 251 47 c 0
 275 72 306 95 341 108 c 0
 358 115 375 118 392 118 c 0
 463 118 516 91 549 37 c 0
 559 19 565 2 568 -22 c 1
 611 -22 l 1
 611 -47.0039 l 1
 401 -47.0039 l 1
 401 -22 l 1
 450 -22 l 1
 441 12 420 39 391 53 c 0
 382 58 372 60.9961 361 60.9961 c 0
 316 60.9961 278 43 257 16 c 0
 225 -27 204 -70 194 -128 c 1
 194 -237 210 -354 263 -415 c 0
 279 -432 299 -441 323 -441 c 0
 370 -441 394 -406 409 -370 c 0
 430 -325 446 -263 446 -203 c 1
 401 -203 l 1
 401 -178 l 1
 611 -178 l 1
 611 -203 l 1
 564 -203 l 1
EndSplineSet
EndChar

StartChar: uni0454
Encoding: 1108 1108 19
Width: 514
Flags: HW
HStem: 400.996 42.004<224.141 288.688>
VStem: 63.0049 100.995<124.247 289.775>
AnchorPoint: "Numeral" 268 240 basechar 0
AnchorPoint: "Diacritic" 275 642.998 basechar 0
AnchorPoint: "Yerok" 395 644 basechar 0
LayerCount: 2
Fore
SplineSet
183 92 m 1
 204 23 242 -57 278 -104 c 1
 293 -98 l 1
 334 -78 356 -65 386 -35 c 1
 396 -35 407 -46 407 -57 c 1
 374 -90 350 -104 304 -125 c 1
 270 -142 237 -147 192 -153 c 1
 138 -93 95 -15 74 78 c 0
 67 109 63.0049 142 63.0049 175 c 0
 63.0049 287 112 358 180 408 c 0
 217 434 253 443 311 443 c 2
 334 443 l 2
 342 443 350 443 359 442 c 1
 376 428 394 415.996 411 400.996 c 2
 428 384 l 1
 454 394 l 1
 459 391 465 382 465 373 c 0
 465 371 465 368 464 366 c 1
 343 322 l 2
 340 321 339 320 338 320 c 0
 320 349 299 378 269 393 c 0
 259 398 248 400.996 236 400.996 c 0
 231 400.996 227 401.996 224 400.996 c 1
 191 374.996 176 315 169 264 c 0
 166 245 164 226 164 209 c 0
 164 178 168 150 174 123 c 1
 219 153 283 190 334 214 c 1
 371 207 405 184 433 166 c 1
 455 176 l 1
 464 172 469 166 469 157 c 0
 469 155 469 152 468 149 c 1
 343 90 l 1
 327 106 304 125 282 135 c 0
 274 138 267 140 260 140 c 1
 234 124 209 108 183 92 c 1
EndSplineSet
EndChar

StartChar: uni0405
Encoding: 1029 1029 20
Width: 829
Flags: HW
HStem: -465.007 23.007<408.518 518.861> -383.007 59.007<157.5 268.454> 24.9961 44.999<296.249 367.829> 69.9951 44.0049<417.252 532.138> 506.999 24.001<321.429 444.359>
VStem: 67.998 120.002<-466.486 -414.35> 102.997 141.003<137.91 372.445> 576.996 146.004<-294.226 -29.1092> 585 36<236.406 376.062> 595.997 25.003<232.062 262 501.072 530.769>
AnchorPoint: "Numeral" 396 48 basechar 0
AnchorPoint: "Yerok" 640 699 basechar 0
AnchorPoint: "Diacritic" 365 699 basechar 0
LayerCount: 2
Fore
SplineSet
369 45 m 1xdd
 344 36 320 24.9961 285 24.9961 c 0
 282 23.9961 277 23.9961 271 24.9961 c 0xed
 218 30.9961 198 41.9951 169 69.9951 c 0
 127 111.995 102.997 177 102.997 260 c 2
 102.997 279 l 2
 102.997 350 144 421 184 459 c 0
 226 499 286 531 363 531 c 0
 415 531 451 524 483 505 c 2
 518 484 l 1
 525 479 532 477 540 477 c 0
 566 477 593 504 597 527 c 1
 602 529 607 531 611 531 c 0
 614 531 617 530 621 527 c 1
 621 236 l 1
 614 229 604.997 229 595.997 236 c 1xda40
 592 262 l 2
 590 276 585 294 585 316 c 0
 585 338 576 359 565 380 c 0
 541 423 514 454 484 475 c 0
 454 496 417 506.999 374 506.999 c 0
 334 506.999 301 487 280 466 c 1
 247 430 244 354 244 286 c 2
 244 268 l 2
 244 229 251 155 262 127 c 0
 268 111 281 94 296 84 c 0
 301 81 326 69.9951 343 69.9951 c 0xea80
 352 70.9951 361 72 370 74 c 0
 381 77 386 78 387 78 c 2
 453 194 l 1
 466 196 473 193 476 184 c 1
 422 90 l 1
 456 101 472 106 516 113 c 0
 520 114 524 114 527 114 c 0
 582 114 618 87 648 58 c 0
 700 5 723 -72 723 -176 c 0
 723 -275 686 -347 634 -395 c 0
 594 -432 535 -465.007 467 -465.007 c 0
 413 -465.007 387 -454 351 -429 c 0
 333 -416 317 -406 302 -397 c 0
 288 -388 273 -383.007 258 -383.007 c 0
 220 -383.007 199 -404 193 -435 c 0
 191 -444 189 -453 188 -462 c 1
 180 -464 105 -479 77 -479 c 2
 67.998 -479 l 1
 60.998 -458 60 -442 60 -413 c 0
 60 -372 92 -346 122 -333 c 0
 135 -327 150 -324 165 -324 c 0
 219 -324 249 -334 280 -352 c 0
 295 -361 309 -371 324 -380 c 0
 352 -399 379 -418 411 -432 c 0
 427 -439 446 -442 467 -442 c 0
 518 -442 558 -414 566 -371 c 0
 569 -356 572 -333 572 -303 c 0
 572 -285 576.996 -182 576.996 -144 c 0
 576.996 -40 l 1
 576.996 -5 550 36 528 52 c 0
 510 64 489 69.9951 461 69.9951 c 0
 438 69.9951 422 64 404 58 c 1
 337 -61 l 1
 324 -61 320 -59 315 -51 c 1
 369 45 l 1xdd
EndSplineSet
EndChar

StartChar: uni0455
Encoding: 1109 1109 21
Width: 591
Flags: HW
HStem: -7 106<287.513 401.797> 17.9971 81.0029<171.043 372.891> 250.997 49.003<338.953 408.49> 401.997 41.003<184.871 263.103>
VStem: 54.998 100.002<243.381 323.408>
AnchorPoint: "Numeral" 288 240 basechar 0
AnchorPoint: "Diacritic" 275 642.998 basechar 0
AnchorPoint: "Yerok" 485 644 basechar 0
LayerCount: 2
Fore
SplineSet
284 340 m 1x78
 277 343 279 346 276 352 c 1
 276 372 267 381 259 392 c 0
 254 399 244 401.997 229 401.997 c 0
 181 401.997 155 349 155 301 c 0
 155 267 165 252 184 237 c 0
 189 233 198 232 207 232 c 0
 224 232 244 236 253 239 c 1
 272 248 290 256 305 263 c 2
 358 287 l 2
 374 294 402 300 424 300 c 0
 480 300 508 271 529 233 c 0
 541 213 552 186 552 156 c 0
 552 119 540 102 526 79 c 1
 468 34 l 2
 452 20 433 8 414 -3 c 0
 409 -6 404 -7 398 -7 c 0xb8
 383 -7 365 -2 355 0 c 2
 326 8 l 2
 306 12 288 14.9971 266 17.9971 c 1
 192 17.9971 137 10 71 -4 c 0
 69 -5 66 -5 63 -5 c 0
 54 -5 45 -1 39 0 c 1
 36 4 32 9.9971 32 17.9971 c 0
 32 19.9971 32 23 33 25 c 1
 127 62 l 2
 162 75 199 87 239 96 c 0
 249 98 259 99 268 99 c 0
 304 99 341 91 370 84 c 2
 425 72 l 1
 432 75 445 91 449 96 c 1
 446 150 433 200 406 233 c 0
 397 244 382 250.997 363 250.997 c 0
 358 251.997 352 251 347 248 c 0
 332 242 318 236 305 230 c 2
 263 210 l 2
 224 191 162 159 110 156 c 1
 80 172 54.998 202 54.998 245 c 2
 55 250.997 l 2
 55 303.997 95 358 127 386 c 0
 159 415 206 443 260 443 c 0
 275 443 288 442 298 441 c 2
 335 436 l 1
 346 436 356 434 366 434 c 0
 378 434 389 435 399 440 c 0
 404 443 408 445 411 446 c 1
 420 442 425 435 427 425 c 1
 402 413 374 396 350 381 c 0
 329 367 306 354 284 340 c 1x78
EndSplineSet
EndChar

StartChar: uni0417
Encoding: 1047 1047 22
Width: 817
Flags: HW
HStem: -486 25<19 60.0349 202.634 240> -464 21G<498 511.5> 502.043 28.957<406.072 549.386>
VStem: 649.014 108.986<-285.472 -187.013> 653.008 123.992<243.975 398.384>
AnchorPoint: "Numeral" 446 48 basechar 0
AnchorPoint: "Yerok" 713 699 basechar 0
AnchorPoint: "Diacritic" 521 699 basechar 0
LayerCount: 2
Fore
SplineSet
170 -388 m 0x70
 170 -420 198 -447 217 -461 c 1
 240 -461 l 1
 240 -486 l 1
 19 -486 l 1
 19 -461 l 1
 51 -461 l 1
 78 -427 110 -393 144 -366 c 1
 173 -343 l 2
 189 -329 204 -319 224 -308 c 2
 259 -289 l 2
 281 -278 300 -273 317 -273 c 0
 338 -273 358 -278 374 -285 c 0
 388 -291 405 -299 425 -309 c 0
 465 -330 505 -351 545 -372 c 0
 564 -381 579 -388 592 -393 c 1
 617 -377 634.014 -364 649.014 -339 c 1xb0
 649.014 -287 640 -229 628 -187 c 1
 605 -145 594 -108 559 -75 c 0
 542 -60 528 -47 516 -36 c 2
 482 0 l 1
 457 -16 433 -32 406 -42 c 1
 374 -37 359 -24 348 0 c 0
 344 8 339 16 332 27 c 1
 339 79 381 115 417 139 c 0
 431 149 445 157 458 164 c 1
 469 164 471 168 481 166 c 0
 484 165 490 164 498 163 c 1
 527 143 553 122 577 98 c 1
 581 101 584 105 588 109 c 1
 613 160 653.008 205 653.008 281 c 0
 653.008 375 621 448 559 483 c 0
 537 496 509 502.043 475 502.043 c 0
 363 502.043 312 445 297 350 c 0
 292 321 286 291 286 259 c 1
 255 256 239 253 212 253 c 0
 187 253 172 256 147 259 c 1
 152 315 164 351 185 391 c 1
 267 451 l 2
 339 506 416 531 546 531 c 0
 619 531 676 499 714 461 c 0
 746 429 777 380 777 323 c 0xa8
 777 247 725 202 693 156 c 1
 680 145 665.014 132 649.014 119 c 2
 597 78 l 1
 621 53 643 28 664 0 c 2
 728 -93 l 1
 744 -135 758 -172 758 -228 c 0
 758 -247 758 -275 747 -286 c 2
 694 -342 l 1
 649 -388 605 -426 544 -455 c 0
 532 -461 519 -464 504 -464 c 0
 492 -464 480 -461 468 -457 c 0
 420 -440 377 -418 336 -395 c 2
 278 -365 l 2
 259 -356 241 -348 223 -342 c 1
 196 -356 190 -363 170 -383 c 1
 170 -385 170 -386 170 -388 c 0x70
EndSplineSet
EndChar

StartChar: uni0437
Encoding: 1079 1079 23
Width: 556
Flags: HW
HStem: -181.992 48.992<213 294.752> 416.001 28.999<225.36 350.728>
VStem: 357.997 89.003<-75.2934 32.125> 427.998 99.002<254.006 357.51>
AnchorPoint: "Numeral" 278 173 basechar 0
AnchorPoint: "Diacritic" 325 642.998 basechar 0
AnchorPoint: "Yerok" 480 644 basechar 0
LayerCount: 2
Fore
SplineSet
351 179 m 1xe0
 392 202 427.998 232 427.998 291 c 0
 427.998 351 384 390 339 407 c 0
 322 413 305 416.001 288 416.001 c 0
 242 416.001 205 395 181 371 c 0
 165 355 157 334 148 312 c 0
 145 303 138 294 128 287 c 1
 113 284 101 282 90 282 c 2
 87 282 l 1
 76 282 65 284 56 285 c 1
 51 294 50 301 52 308 c 0
 75 383 154 421 237 436 c 0
 267 442 297 445 328 445 c 0
 335 445 l 0
 384 445 423 445 459 428 c 0
 491 414 527 376 527 331 c 0xd0
 527 290 521 267 497 246 c 0
 459 213 418 184 373 159 c 1
 403 128 428 90 446 46 c 1
 447 38 447 30 447 22 c 0
 447 -17 439 -59 423 -78 c 1
 389 -110 341 -137 297 -159 c 0
 271 -172 252 -181.992 219 -181.992 c 0
 207 -181.992 195 -180 182 -177 c 1
 174 -170 165 -163 154 -155 c 0
 128 -136 99 -114 72 -97 c 1
 55 -99 29 -103 13 -106 c 1
 8 -102 6 -96 6 -91 c 0
 6 -86 8 -81 11 -76 c 1
 28 -73 44 -72 61 -68 c 0
 91 -60 114 -50 142 -38 c 1
 150 -44 158 -51 167 -59 c 2
 194 -85 l 2
 212 -103 234 -121 258 -132 c 1
 263 -133 267 -133 269 -133 c 0
 307 -130 331 -115 344 -92 c 1
 350 -76 357.997 -45 357.997 -20 c 0
 357.997 -7 356 3 354 10 c 1
 337 48 305 86 276 110 c 1
 265 105 253 100 242 96 c 2
 211 85 l 1
 181 88 145 116 141 145 c 0
 141 148 142 150 145 152 c 0
 181 182 209 216 267 224 c 0
 274 225 280 223 285 221 c 0
 309 210 331 196 351 179 c 1xe0
EndSplineSet
EndChar

StartChar: uniA640
Encoding: 42560 42560 24
Width: 664
Flags: HW
HStem: -42 70<159.169 326.996> -42 60<159.084 300.961> 483 32<230.264 249>
VStem: 500 104<-368.53 -188.102>
AnchorPoint: "Numeral" 336 48 basechar 0
AnchorPoint: "Yerok" 543 699 basechar 0
AnchorPoint: "Diacritic" 411 699 basechar 0
LayerCount: 2
Fore
SplineSet
184 -42 m 0xb0
 135 -42 90 -57 48 -62 c 1
 40 -59 l 1
 40 -44 40 -29 40 -14 c 0
 40 67 91 181 124 226 c 0
 159 274 179 301 182 306 c 0
 201 331 235 364 282 406 c 1
 249 483 l 1
 237 483 l 1
 233 488 230 495 230 503 c 0
 230 507 231 511 233 515 c 1
 563 547 l 1
 567 543 568 538 568 532 c 1
 458 466 l 1
 371 411 298 341 236 252 c 0
 198 197 174 137 164 57 c 0
 161 35 158 18 158 18 c 1x70
 184 25 260 28 303 28 c 0
 435 28 531 -20 578 -109 c 0
 595 -141 604 -181 604 -227 c 0
 604 -331 572 -414 530 -481 c 0
 507 -517 481 -550 452 -579 c 0
 448 -583 418 -608 360 -656 c 0
 359 -657 357 -658 354 -658 c 0
 346 -658 337 -650 342 -645 c 0
 410 -573 469 -511 491 -398 c 0
 497 -365 500 -328 500 -286 c 0
 500 -200 459 -142 407 -104 c 0
 353 -65 275 -42 184 -42 c 0xb0
401 474 m 1
 422 484 444 494 465 504 c 1
 359 493 l 1
 374 458 l 1
 401 474 l 1
EndSplineSet
EndChar

StartChar: uniA641
Encoding: 42561 42561 25
Width: 600
Flags: W
HStem: -7 55<152.977 297.657> 398 29<218.212 236> 436 20G<314.103 522.5>
VStem: 45.998 107.002<48.0007 122.596> 463.999 94.001<-310.317 -134.09>
AnchorPoint: "Numeral" 318 240 basechar 0
AnchorPoint: "Diacritic" 375 642.998 basechar 0
AnchorPoint: "Yerok" 495 644 basechar 0
LayerCount: 2
Fore
SplineSet
177 -7 m 0
 132 -7 91 -20 53 -25 c 1
 45.998 -22 l 1
 45.998 -4 l 1
 45.998 19 l 2
 45.998 45 52 77 65 116 c 0
 83 170 130 218 172 253 c 0
 193 270 214 287 236 302 c 1
 236 398 l 1
 225 398 l 1
 221 402 218 408 218 416 c 0
 218 420 219 424 221 427 c 1
 521 456 l 1
 524 452 526 447 526 442 c 1
 435 387 l 2
 408 370 375 347 336 316 c 0
 286 277 248 242 222 211 c 0
 189 173 167 137 158 83 c 0
 155 65 153 54 153 50 c 0
 152 49 152 48 153 48 c 0
 177 54 246 57 285 57 c 0
 405 57 492 13 534 -68 c 0
 550 -97 558 -133 558 -175 c 0
 558 -270 529 -345 491 -406 c 0
 470 -439 447 -468 420 -495 c 0
 417 -498 389 -522 337 -565 c 0
 335 -566 334 -567 332 -567 c 0
 324 -567 315 -560 320 -555 c 0
 382 -490 436 -433 455 -330 c 0
 461 -301 463.999 -267 463.999 -229 c 0
 463.999 -150 427 -97 379 -63 c 0
 330 -28 259 -7 177 -7 c 0
336 366 m 1
 353 375 369 384 385 393 c 2
 432 417 l 1
 336 407 l 1
 336 366 l 1
EndSplineSet
AlternateSubs2: "'salt' Stylistic Alternatives lookup 2-1" uniA641.salt
EndChar

StartChar: uni0418
Encoding: 1048 1048 26
Width: 712
Flags: HW
HStem: -455 25<58 113 245 300 417 472 598 654> 495 24.998<85 139 259 315 410 465 580 635>
VStem: 113 132<-430 -180.962> 139 114<245.962 495> 467 113<135.278 179 208 495> 472 126<-430 -70.2778>
AnchorPoint: "Numeral" 336 48 basechar 0
AnchorPoint: "Yerok" 533 699 basechar 0
AnchorPoint: "Diacritic" 371 699 basechar 0
LayerCount: 2
Fore
SplineSet
259 495 m 1xd0
 253 97 l 1
 467 208 l 1
 465 495 l 1
 410 495 l 1
 410 519.998 l 1
 635 519.998 l 1
 635 495 l 1
 580 495 l 1xd8
 598 -430 l 1
 654 -430 l 1
 654 -455 l 1
 417 -455 l 1
 417 -430 l 1
 472 -430 l 1xc4
 467 179 l 1
 253 68 l 1xd8
 245 -430 l 1
 300 -430 l 1
 300 -455 l 1
 58 -455 l 1
 58 -430 l 1
 113 -430 l 1xe0
 139 495 l 1
 85 495 l 1
 85 519.998 l 1
 315 519.998 l 1
 315 495 l 1
 259 495 l 1xd0
EndSplineSet
EndChar

StartChar: uni0438
Encoding: 1080 1080 27
Width: 460
Flags: HW
HStem: 423 20G<204 210 422 439>
VStem: 46 100<-2.42538 205.9> 291.998 107.002<-2.42538 107.347> 291.998 100.002<1.05304 248.475>
AnchorPoint: "Numeral" 238 240 basechar 0
AnchorPoint: "Diacritic" 275 642.998 basechar 0
AnchorPoint: "Yerok" 395 644 basechar 0
LayerCount: 2
Fore
SplineSet
392 109 m 0xd0
 392 74 396 22 399 -0 c 1
 377 -3 359 -4 346 -4 c 2
 340 -4 l 2
 323 -4 306.998 -3 291.998 -0 c 1xe0
 291.998 38 291.998 76 291.998 114 c 0
 291.998 151 294 197 299 251 c 1
 168 209 l 1
 159 143 149 68 146 -0 c 1
 122 -3 106 -4 98 -4 c 2
 93 -4 l 2
 80 -4 64 -3 47 -0 c 1
 46 9 46 18 46 28 c 0
 46 63 53 123 56 148 c 0
 60 189 78 292 84 314 c 2
 101 382 l 2
 106 401 111 416 116 428 c 1
 144 437 186 443 222 443 c 1
 198 394 185 310 173 241 c 1
 302 283 l 1
 308 335 316 388 332 428 c 1
 359 435 406 443 438 443 c 0
 440 443 445 441 445 438 c 0
 445 437 445 437 444 436 c 0
 432 421 423 401 418 378 c 0
 402 294 392 210 392 109 c 0xd0
EndSplineSet
EndChar

StartChar: uni0406
Encoding: 1030 1030 28
Width: 358
Flags: HW
HStem: -455 25<58 113 245 300> 495 24.998<85 139 259 315>
VStem: 113 132<-430 -180.962> 139 120<245.962 495>
AnchorPoint: "Numeral" 186 48 basechar 0
AnchorPoint: "Yerok" 202 699 basechar 0
AnchorPoint: "Diacritic" 201 699 basechar 0
LayerCount: 2
Fore
SplineSet
58 -455 m 1xe0
 58 -430 l 1
 113 -430 l 1xe0
 139 495 l 1
 85 495 l 1
 85 519.998 l 1
 315 519.998 l 1
 315 495 l 1
 259 495 l 1xd0
 245 -430 l 1
 300 -430 l 1
 300 -455 l 1
 58 -455 l 1xe0
EndSplineSet
EndChar

StartChar: uni0456
Encoding: 1110 1110 29
Width: 260
Flags: HW
HStem: 425 20G<212 230>
VStem: 69 104<0 296.357>
AnchorPoint: "Numeral" 138 240 basechar 0
AnchorPoint: "Diacritic" 173 642.998 basechar 0
AnchorPoint: "Yerok" 173 644 basechar 0
LayerCount: 2
Fore
SplineSet
107 390 m 0
 111 411 114 423 115 428 c 1
 144 436 195 442 229 445 c 1
 230 438 l 1
 212 402 202 360 195 325 c 0
 185 267 173 167 173 97 c 0
 173 66 174 33 176 -0 c 1
 169.667 -0.333333 163.667 -0.444444 158 -0.444444 c 0
 146.667 -0.444444 136.667 0 128 0 c 2
 118 0 l 2
 99 0 79.999 -0 62.999 -0 c 1
 62.999 55 69 89 69 104 c 0
 69 180 80 219 81 220 c 0
 86 269 94 325 107 390 c 0
EndSplineSet
EndChar

StartChar: uni0419
Encoding: 1049 1049 30
Width: 712
Flags: HW
HStem: -455 25<58 113 245 300 417 472 598 654> 495 24.998<85 139 259 315 410 465 580 635> 624.001 75.999<341.5 439.814>
VStem: 113 132<-430 -180.962> 139 114<245.962 495> 300 116<653.401 732.273> 467 113<135.278 179 208 495> 472 126<-430 -70.2778>
AnchorPoint: "Numeral" 336 48 basechar 0
AnchorPoint: "Yerok" 373 899 basechar 0
AnchorPoint: "Diacritic" 371 899 basechar 0
LayerCount: 2
Fore
SplineSet
259 495 m 1xec
 253 97 l 1
 467 208 l 1
 465 495 l 1
 410 495 l 1
 410 519.998 l 1
 635 519.998 l 1
 635 495 l 1
 580 495 l 1xee
 598 -430 l 1
 654 -430 l 1
 654 -455 l 1
 417 -455 l 1
 417 -430 l 1
 472 -430 l 1xe5
 467 179 l 1
 253 68 l 1xee
 245 -430 l 1
 300 -430 l 1
 300 -455 l 1
 58 -455 l 1
 58 -430 l 1
 113 -430 l 1xf4
 139 495 l 1
 85 495 l 1
 85 519.998 l 1
 315 519.998 l 1
 315 495 l 1
 259 495 l 1xec
355 624.001 m 0
 328 624.001 300 645 300 672 c 0
 300 706 315 733 346 753 c 0
 377 774 422 802 467 802 c 0xe6
 472 802 480 793 474 789 c 0
 457 776 441 763 429 747 c 1
 424 741 416 728 416 717 c 0
 416 712 417 708 421 704 c 0
 424 701 429 700 434 700 c 0
 447 700 464 707 472 710 c 0xe5
 487 716 506 726 521 730 c 0
 527 732 533 727 533 721 c 0
 533 719 533 717 531 715 c 0
 504 681 486 668 448 647 c 0
 419 630 396 624.001 355 624.001 c 0
EndSplineSet
Ligature2: "'ccmp' Glyph Composition/Decomposition lookup 0-1" uni0418 uni0306
EndChar

StartChar: uni0439
Encoding: 1081 1081 31
Width: 460
Flags: HW
HStem: 423 20G<201.998 207.998 422 439> 643.998 76.002<261.5 359.814>
VStem: 45.999 100.001<-2.42538 205.9> 219.998 116.002<673.401 752.273> 291.998 107.002<-2.42538 107.347> 291.998 100.002<1.05304 248.475>
AnchorPoint: "Numeral" 238 240 basechar 0
AnchorPoint: "Yerok" 395 644 basechar 0
AnchorPoint: "Diacritic" 275 642.998 basechar 0
LayerCount: 2
Fore
SplineSet
392 109 m 0xe4
 392 74 396 22 399 -0 c 1
 377 -3 359 -4 346 -4 c 2
 340 -4 l 2
 323 -4 306.998 -3 291.998 -0 c 1xe8
 291.998 38 291.998 76 291.998 114 c 0xe4
 291.998 151 299 197 299 251 c 1
 168 209 l 1
 159 143 149 68 146 -0 c 1
 122 -3 106 -4 98 -4 c 2
 93 -4 l 2
 80 -4 62.999 -3 45.999 -0 c 1
 44.999 9 45.999 18 45.999 28 c 0
 45.999 63 53 123 56 148 c 0
 60 189 78 292 84 314 c 2
 101 382 l 2
 106 401 111 416 116 428 c 1
 144 437 183.998 443 219.998 443 c 1xf0
 195.998 394 185 310 173 241 c 1
 302 283 l 1
 308 335 316 388 332 428 c 1
 359 435 406 443 438 443 c 0
 440 443 447 439 444 436 c 0
 432 421 423 401 418 378 c 0
 402 294 392 210 392 109 c 0xe4
275 643.998 m 0
 248 643.998 219.998 665 219.998 692 c 0
 219.998 726 235 753 266 773 c 0
 297 794 341 822 386 822 c 0
 391 822 400 813 394 809 c 0
 377 796 361 783 349 767 c 1
 344 761 336 748 336 737 c 0xf0
 336 732 337 728 341 724 c 0
 344 721 349 720 354 720 c 0
 367 720 384 727 392 730 c 0xe4
 407 736 426 746 441 750 c 0
 447 752 453 747 453 741 c 0
 453 739 453 737 451 735 c 0
 424 701 406 688 368 667 c 0
 339 650 316 643.998 275 643.998 c 0
EndSplineSet
Ligature2: "'ccmp' Glyph Composition/Decomposition lookup 0-1" uni0438 uni0306
EndChar

StartChar: uni0407
Encoding: 1031 1031 32
Width: 358
Flags: HW
HStem: -455 25<58 113 245 300> 495 24.998<85 139 259 315> 650 130<71 118 241 288>
VStem: 113 132<-430 -180.962> 139 120<245.962 495>
AnchorPoint: "Numeral" 196 48 basechar 0
AnchorPoint: "Yerok" 192 879 basechar 0
AnchorPoint: "Diacritic" 191 879 basechar 0
LayerCount: 2
Fore
SplineSet
171 650 m 1xe0
 71 650 l 1
 18 771 l 1
 18 780 l 1
 118 780 l 1
 171 659 l 1
 171 650 l 1xe0
341 650 m 1
 241 650 l 1
 188 771 l 1
 188 780 l 1
 288 780 l 1
 341 659 l 1
 341 650 l 1
58 -455 m 1
 58 -430 l 1
 113 -430 l 1xf0
 139 495 l 1
 85 495 l 1
 85 519.998 l 1
 315 519.998 l 1
 315 495 l 1
 259 495 l 1xe8
 245 -430 l 1xf0
 300 -430 l 1
 300 -455 l 1
 58 -455 l 1
EndSplineSet
Ligature2: "'ccmp' Glyph Composition/Decomposition lookup 0-1" uni0406 dieresis
EndChar

StartChar: uni0457
Encoding: 1111 1111 33
Width: 260
Flags: HW
HStem: 425 20G<212 230> 580 130<61 108 231 278>
VStem: 63 110<0 253.182>
AnchorPoint: "Numeral" 138 240 basechar 0
AnchorPoint: "Diacritic" 175 792.998 basechar 0
AnchorPoint: "Yerok" 175 794 basechar 0
LayerCount: 2
Fore
SplineSet
161 580 m 1
 61 580 l 1
 8 701 l 1
 8 710 l 1
 108 710 l 1
 161 589 l 1
 161 580 l 1
331 580 m 1
 231 580 l 1
 178 701 l 1
 178 710 l 1
 278 710 l 1
 331 589 l 1
 331 580 l 1
107 390 m 0
 111 411 114 423 115 428 c 1
 144 436 195 442 229 445 c 1
 230 438 l 1
 212 402 202 360 195 325 c 0
 185 267 173 167 173 97 c 0
 173 66 174 33 176 -0 c 1
 157 -0 141 0 128 0 c 2
 118 0 l 2
 99 0 80 -0 63 -0 c 1
 63 55 67 89 69 104 c 0
 76 180 80 219 81 220 c 0
 86 269 94 325 107 390 c 0
EndSplineSet
Ligature2: "'ccmp' Glyph Composition/Decomposition lookup 0-1" uni0456 dieresis
EndChar

StartChar: uni041A
Encoding: 1050 1050 34
Width: 663
Flags: HW
HStem: -455 25<75 129.997 262 317 395 447 582 630> 494.999 24.999<102 156 276 332 374 424 555.746 603>
VStem: 129.997 132.003<-430 -180.991> 156 114<245.99 494.999> 424 133<391.449 494.999> 447 135<-430 -275.012>
AnchorPoint: "Numeral" 336 48 basechar 0
AnchorPoint: "Yerok" 519 699 basechar 0
AnchorPoint: "Diacritic" 347 699 basechar 0
LayerCount: 2
Fore
SplineSet
75 -455 m 1xe0
 75 -430 l 1
 129.997 -430 l 1xe0
 156 494.999 l 1
 102 494.999 l 1
 102 519.998 l 1
 332 519.998 l 1
 332 494.999 l 1
 276 494.999 l 1
 270 93 l 1
 328 137 362 198 391 272 c 0
 415 334 420 413.999 424 494.999 c 1
 374 494.999 l 1
 374 519.998 l 1
 603 519.998 l 1
 603 494.999 l 1
 557 494.999 l 1xd8
 544 401.999 519 321 471 251 c 0
 426 183 357 116 290 75 c 1
 345 61 397 32 431 -5 c 0
 484 -64 521 -131 545 -217 c 0
 558 -261 573 -321 578 -370 c 0
 579 -390 582 -410 582 -430 c 1
 630 -430 l 1
 630 -455 l 1
 395 -455 l 1
 395 -430 l 1
 447 -430 l 1
 447 -410 447 -390 447 -371 c 0
 447 -352 444 -330 441 -305 c 0
 425 -177 400 -48 326 19 c 0
 310 33 291 44 270 51 c 1xd4
 262 -430 l 1
 317 -430 l 1
 317 -455 l 1
 75 -455 l 1xe0
EndSplineSet
EndChar

StartChar: uni041B
Encoding: 1051 1051 35
Width: 644
Flags: HW
HStem: -454.999 24.999<52 104.826 237 289 348 401.999 529 585> 495.001 24.997<327 382 498 552>
VStem: 104 133<-430 -302.112> 388.999 109.001<286.13 495.001> 401.999 127.001<-430 -221.129>
AnchorPoint: "Numeral" 376 48 basechar 0
AnchorPoint: "Yerok" 503 699 basechar 0
AnchorPoint: "Diacritic" 451 699 basechar 0
LayerCount: 2
Fore
SplineSet
52 -454.999 m 1xf0
 52 -430 l 1
 104 -430 l 1
 112 -321 146 -215 192 -131 c 0
 209 -99 226 -69 242 -42 c 2
 289 37 l 2
 320 90 346 141 367 204 c 0
 380 242 385.999 279 388.999 324 c 1
 382 495.001 l 1
 327 495.001 l 1
 327 519.998 l 1
 552 519.998 l 1
 552 495.001 l 1
 498 495.001 l 1xf0
 529 -430 l 1
 585 -430 l 1
 585 -454.999 l 1
 348 -454.999 l 1
 348 -430 l 1
 401.999 -430 l 1xe8
 388.999 169 l 1
 387.999 162 386 156 385 150 c 2
 381 134 l 1
 369 89 355 43 340 -4 c 2
 293 -147 l 2
 265 -236 244 -330 237 -430 c 1
 289 -430 l 1
 289 -454.999 l 1
 52 -454.999 l 1xf0
EndSplineSet
EndChar

StartChar: uni043A
Encoding: 1082 1082 36
Width: 514
Flags: HW
HStem: 425 20G<179.5 191.5 489 502>
VStem: 60.0002 98.9998<-2.6597 348.862> 314.999 105.001<-1.94238 106.94>
AnchorPoint: "Numeral" 238 240 basechar 0
AnchorPoint: "Diacritic" 275 642.998 basechar 0
AnchorPoint: "Yerok" 395 644 basechar 0
LayerCount: 2
Fore
SplineSet
159 117 m 0
 159 84 160 30 163 -0 c 1
 147 -3 131 -4 115 -4 c 2
 109 -4 l 1
 91 -4 73.0002 -2 60.0002 0 c 1
 59.0002 8.66667 58.6668 18 58.6668 27.7407 c 0
 58.6668 47.2222 60.0002 68.3333 60.0002 89 c 0
 60.0002 97 l 0
 60.0002 192 70 284 83 364 c 0
 87 389 91 409 95 426 c 1
 126 437 159 445 200 445 c 1
 183 378 171 294 164 215 c 0
 160 182 159 149 159 117 c 0
501 445 m 0
 503 445 504 443 504 441 c 0
 504 440 504 439 503 438 c 2
 454 377 l 2
 441 360 428 346 416 335 c 0
 412 331 400 347 396 350 c 0
 383 362 368 374 352 382 c 1
 315 353 282 304 265 256 c 1
 278 256 290 257 303 257 c 0
 316 257 326 256 332 255 c 1
 368 207 394 137 409 69 c 0
 415 44 420 21 420 0 c 1
 403 -2 385 -3 368 -3 c 0
 351 -3 332.999 -2 314.999 0 c 1
 305.999 76 286 148 250 210 c 2
 239 228 l 2
 235 235 232 242 231 247 c 1
 231 255 l 1
 252 302 280.999 353 314.999 387 c 0
 328.999 400 341 412 354 421 c 1
 368 428 397 432 418 435 c 0
 443 439 477 445 501 445 c 0
EndSplineSet
EndChar

StartChar: uni043B
Encoding: 1083 1083 37
Width: 433
Flags: HW
HStem: 427 20G<314.5 330>
VStem: 49 97<4.77362 72.2337> 220 105<293.742 432.516> 266 113<-3.09409 80.6668>
AnchorPoint: "Numeral" 238 240 basechar 0
AnchorPoint: "Diacritic" 275 642.998 basechar 0
AnchorPoint: "Yerok" 335 644 basechar 0
LayerCount: 2
Fore
SplineSet
325 351 m 0xe0
 325 240 350 87 379 0 c 1
 362 -3 343 -5 322 -5 c 0
 301 -5 283 -3 266 0 c 1xd0
 258 36 253 80 247 123 c 0
 241 179 234 234 228 290 c 1
 224 277 219 263 213 250 c 2
 197 215 l 2
 193 206 189 197 186 188 c 2
 176 161 l 2
 166 134 148 81 148 58 c 0
 148 41 146 26 146 15 c 2
 146 6 l 1
 120 -3 83 -6 49 -6 c 1
 49 26 56 42 70 71 c 0
 80 92 92 114 106 135 c 0
 152 204 204 272 220 370 c 1
 220 389 217 406 217 425 c 1
 243 436 297 443 332 447 c 1
 328 416 325 386 325 351 c 0xe0
EndSplineSet
EndChar

StartChar: uni041C
Encoding: 1052 1052 38
Width: 1070
Flags: HW
HStem: -455 25<50 114.678 243 292 840 889 1017.19 1082> 495 24.998<264 315 435 494 638 696 816 868>
VStem: 377.001 30.999<-13.7213 172> 722.998 31.002<-21.8641 172>
AnchorPoint: "Numeral" 576 48 basechar 0
AnchorPoint: "Yerok" 773 699 basechar 0
AnchorPoint: "Diacritic" 581 699 basechar 0
LayerCount: 2
Fore
SplineSet
435 495 m 1
 431 470 l 2
 430 463 427 455 427 444 c 0
 427 343 408 261 408 198 c 2
 408 168 l 2
 408 95 416 11 431 -83 c 1
 452 -187 483 -294 521 -382 c 0
 535 -413 550 -441 566 -464 c 1
 632 -364 674 -219 701 -83 c 1
 716 12 722.998 95 722.998 168 c 2
 722.998 226 l 2
 722.998 229 722.998 233 722.998 237 c 0
 722.998 277 717 346 704 444 c 0
 702 459 701 468 700 470 c 2
 696 495 l 1
 638 495 l 1
 638 519.998 l 1
 868 519.998 l 1
 868 495 l 1
 816 495 l 1
 820 468 825 438 831 405 c 0
 845 331 859 258 874 185 c 0
 902 55 932 -73 961 -201 c 0
 980 -282 1000 -358 1020 -430 c 1
 1082 -430 l 1
 1082 -455 l 1
 840 -455 l 1
 840 -430 l 1
 889 -430 l 1
 836 -209 l 2
 814 -112 788 5 766 113 c 2
 754 172 l 1
 754 44 736 -60 714 -173 c 0
 683 -335 637 -504 585 -632 c 0
 582 -640 575 -649 572 -658 c 1
 560 -658 l 1
 527 -593 505 -523 478 -430 c 0
 442 -304 409 -146 390 -0 c 0
 383 55 377.001 113 377.001 172 c 1
 369.001 132 361 93 353 53 c 0
 318 -109 281 -271 243 -430 c 1
 292 -430 l 1
 292 -455 l 1
 50 -455 l 1
 50 -430 l 1
 112 -430 l 1
 131 -358 151 -282 170 -202 c 2
 231 63 l 1
 248 142 264 221 280 300 c 2
 300 405 l 2
 306 438 311 468 315 495 c 1
 264 495 l 1
 264 519.998 l 1
 494 519.998 l 1
 494 495 l 1
 435 495 l 1
EndSplineSet
EndChar

StartChar: uni043C
Encoding: 1084 1084 39
Width: 702
Flags: HW
HStem: 423 20G<323.5 344 567 589>
VStem: 47.002 104.998<0.700237 80.3199> 238.002 105.998<325.693 428.992>
AnchorPoint: "Numeral" 368 240 basechar 0
AnchorPoint: "Diacritic" 415 642.998 basechar 0
AnchorPoint: "Yerok" 565 644 basechar 0
LayerCount: 2
Fore
SplineSet
653 0 m 1
 639 -3 620 -3 602 -3 c 0
 584 -3 564 -3 548 0 c 1
 536 61 l 2
 531 85 526 112 521 141 c 2
 506 232 l 2
 501 264 497 295 493 326 c 1
 380 23 l 1
 381 16 382 9 385 0 c 1
 370 -2 352 -3 332 -3 c 0
 312 -3 295 -2 282 0 c 1
 280 14 277 33 274 57 c 0
 264 141 254 232 246 317 c 1
 242 306 237 295 232 285 c 2
 215 247 l 2
 197 209 180 168 166 129 c 0
 156 103 152 78 152 44 c 0
 152 26 153 15 156 0 c 1
 141 -3 117 -3 99 -3 c 0
 98 -3 97 -3 96 -3 c 0
 79 -3 60.002 -3 47.002 0 c 1
 48.002 4 47.002 8 47.002 12 c 0
 47.002 35 56 58 65 74 c 0
 78 99 101 134 118 158 c 0
 168 225 213.002 295 238.002 387 c 1
 238.002 401 238.002 414 238.002 427 c 1
 269.002 438 303 443 344 443 c 1
 344 355 352 259 360 175 c 0
 362 142 366 112 370 84 c 1
 485 390 l 1
 485 402 482 413 482 424 c 1
 508 435 549 441 585 443 c 1
 593 370 598 284 610 207 c 0
 622 137 637 60 653 0 c 1
EndSplineSet
EndChar

StartChar: uni041D
Encoding: 1053 1053 40
Width: 712
Flags: HW
HStem: -455 25<58 113 245 300 417 472 598 654> 495 24.998<85 139 259 315 410 467 580 635>
VStem: 113 132<-430 -180.962> 139 120<245.962 495> 467 113<162 495> 472 126<-430 -70.2778>
AnchorPoint: "Numeral" 366 48 basechar 0
AnchorPoint: "Yerok" 532 699 basechar 0
AnchorPoint: "Diacritic" 370 699 basechar 0
LayerCount: 2
Fore
SplineSet
259 495 m 1xd0
 259 241 l 1
 467 162 l 1
 467 495 l 1
 410 495 l 1
 410 519.998 l 1
 635 519.998 l 1
 635 495 l 1
 580 495 l 1xd8
 598 -430 l 1
 654 -430 l 1
 654 -455 l 1
 417 -455 l 1
 417 -430 l 1
 472 -430 l 1xc4
 467 134 l 1
 255 213 l 1
 245 -430 l 1
 300 -430 l 1
 300 -455 l 1
 58 -455 l 1
 58 -430 l 1
 113 -430 l 1xe8
 139 495 l 1
 85 495 l 1
 85 519.998 l 1
 315 519.998 l 1
 315 495 l 1
 259 495 l 1xd0
EndSplineSet
EndChar

StartChar: uni043D
Encoding: 1085 1085 41
Width: 458
Flags: HW
HStem: 425 20G<180.5 202 406 430>
VStem: 49.999 101.001<-2.6597 265.275> 290.998 100.002<3.46805 258>
AnchorPoint: "Numeral" 238 240 basechar 0
AnchorPoint: "Diacritic" 275 642.998 basechar 0
AnchorPoint: "Yerok" 375 644 basechar 0
LayerCount: 2
Fore
SplineSet
169 302 m 1
 156 205 151 100 151 -0 c 1
 132 -3 115 -4 100 -4 c 0
 85 -4 67.999 -3 49.999 0 c 1
 49.999 18 49.999 36 49.999 54 c 0
 49.999 150 64 278 77 365 c 0
 81 388 85 408 90 425 c 1
 129 437 164 445 197 445 c 1
 202 441 l 1
 190 429 186 418 182 390 c 0
 179 370 176 351 173 332 c 1
 290.998 289 l 1
 293.998 337 299 382 306 423 c 1
 336 437 385 445 427 445 c 1
 430 441 l 1
 420 427 412 413 407 395 c 0
 396 350 391 305 391 249 c 2
 391 229 l 2
 391 224 391 218 391 213 c 0
 391 148 401 49 412 0 c 1
 395 -3 376 -4 356 -4 c 0
 354 -5 352 -5 350 -5 c 0
 332 -5 316 -3 302 0 c 1
 295 74 290.998 147 290.998 228 c 2
 290.998 258 l 1
 169 302 l 1
EndSplineSet
EndChar

StartChar: uni041E
Encoding: 1054 1054 42
Width: 684
Flags: HW
HStem: -465 24<281.956 365.017> 505 23.998<280.983 365.256>
VStem: 65.001 125.999<-181.053 247.25> 455.001 125.999<-183.125 245.053>
AnchorPoint: "Numeral" 316 48 basechar 0
AnchorPoint: "Yerok" 513 699 basechar 0
AnchorPoint: "Diacritic" 321 699 basechar 0
LayerCount: 2
Fore
SplineSet
323 505 m 0
 273 505 248 465 232 426 c 0
 191 327 191 177 191 40 c 2
 191 32 l 2
 191 -74 194 -186 209 -277 c 0
 219 -335 237 -388 269 -419 c 0
 284 -434 302 -441 323 -441 c 0
 373 -441 398 -401 414 -361 c 0
 455 -263 455.001 -113 455.001 24 c 2
 455.001 32 l 2
 455.001 138 452 250 437 341 c 0
 427 399 409 452 377 484 c 0
 362 498 344 505 323 505 c 0
323 -465 m 0
 286 -465 251 -454 220 -431 c 0
 149 -379 107 -284 85 -176 c 0
 72 -115 65.001 -45 65.001 32 c 0
 65.001 178 89 305 139 396 c 0
 162 439 189 472 220 495 c 0
 251 518 286 528.998 323 528.998 c 0
 360 528.998 395 518 426 495 c 0
 497 443 539 348 561 240 c 0
 574 179 581 109 581 32 c 0
 581 -114 557 -241 507 -332 c 0
 484 -376 457 -408 426 -431 c 0
 395 -454 360 -465 323 -465 c 0
EndSplineSet
EndChar

StartChar: uni043E
Encoding: 1086 1086 43
Width: 489
Flags: HW
HStem: -10.001 64.001<226.253 286.989> 371 78.999<212.879 305.5>
VStem: 46.001 94.999<170.287 281.359> 350.001 92.999<149.291 261.734>
AnchorPoint: "Numeral" 238 240 basechar 0
AnchorPoint: "Diacritic" 275 642.998 basechar 0
AnchorPoint: "Yerok" 395 644 basechar 0
LayerCount: 2
Fore
SplineSet
217 371 m 0
 185 371 159 341 144 315 c 1
 142 300 141 286 141 275 c 0
 141 225 155 177 182 131 c 0
 213 80 245 54 278 54 c 0
 285 54 291 55 297 57 c 0
 310 61 325 75 342 100 c 1
 347 121 350.001 142 350.001 162 c 0
 350.001 224 327 274 304 302 c 0
 283 328 267 346 255 355 c 0
 242 366 229 371 217 371 c 0
294 449.999 m 0
 317 449.999 347 425 384 374 c 0
 423 321 443 274 443 235 c 0
 443 230 443 225 442 220 c 0
 430 124 356 39 287 12 c 0
 250 -3 220 -10.001 197 -10.001 c 0
 190 -10.001 185 -11.001 180 -10.001 c 0
 153 -2.001 122 29 89 80 c 0
 60 124 46.001 162 46.001 194 c 2
 46.001 196 l 2
 46.001 236 59 273 84 308 c 0
 112 346 144 379 180 407 c 0
 217 436 255 449.999 294 449.999 c 0
EndSplineSet
EndChar

StartChar: uni041F
Encoding: 1055 1055 44
Width: 712
Flags: HW
HStem: -455 25<58 113 245 300 417 472 598 654> 495 25<85 139 259 465 580 635>
VStem: 113 132<-430 -180.962> 139 120<245.962 495> 465 115<135.278 495> 472 126<-430 -70.2778>
AnchorPoint: "Numeral" 356 48 basechar 0
AnchorPoint: "Yerok" 533 699 basechar 0
AnchorPoint: "Diacritic" 351 699 basechar 0
LayerCount: 2
Fore
SplineSet
58 -455 m 1xe0
 58 -430 l 1
 113 -430 l 1xe0
 139 495 l 1
 85 495 l 1
 85 520 l 1
 635 520 l 1
 635 495 l 1
 580 495 l 1xd8
 598 -430 l 1
 654 -430 l 1
 654 -455 l 1
 417 -455 l 1
 417 -430 l 1
 472 -430 l 1xc4
 465 495 l 1
 259 495 l 1xd8
 245 -430 l 1
 300 -430 l 1
 300 -455 l 1
 58 -455 l 1xe0
EndSplineSet
EndChar

StartChar: uni043F
Encoding: 1087 1087 45
Width: 460
Flags: HW
HStem: 407.001 29.997<184.128 312>
VStem: 46 107<-2.22454 271.035> 291 104<-2.99826 310.766>
AnchorPoint: "Numeral" 238 240 basechar 0
AnchorPoint: "Diacritic" 255 642.998 basechar 0
AnchorPoint: "Yerok" 375 644 basechar 0
LayerCount: 2
Fore
SplineSet
291 45 m 0
 291 166 302 299.001 312 407.001 c 1
 188 407.001 l 1
 179 377.001 175 334 171 294 c 0
 161 202 153 98 153 0 c 1
 134 -2 116 -4 98 -4 c 0
 80 -4 63 -2 46 0 c 1
 46 110 61 233 75 336 c 0
 80 375 86 407.998 92 436.998 c 1
 420 436.998 l 1
 420 433.998 422 435 422 432 c 0
 406 348 396 253 396 149 c 0
 396 114 395 84 395 52 c 0
 395 33 397 15 397 0 c 1
 382 -3 365 -5 346 -5 c 0
 327 -5 309 -3 292 0 c 1
 292 14 291 29 291 45 c 0
EndSplineSet
EndChar

StartChar: uni047A
Encoding: 1146 1146 46
Width: 1262
Flags: HW
HStem: -522.004 160.004<543.445 673.685> 426.993 160.007<545.489 677.949>
VStem: 59.998 142.002<-130.923 147.012> 1016 142<-88.5114 185.42>
AnchorPoint: "Numeral" 606 48 basechar 0
AnchorPoint: "Yerok" 1083 699 basechar 0
AnchorPoint: "Diacritic" 611 699 basechar 0
LayerCount: 2
Fore
SplineSet
1158 10 m 0
 1158 -22 1148 -62 1128 -110 c 0
 1080 -226 989 -324 883 -385 c 0
 826 -418 766 -441 701 -456 c 1
 688 -500 657 -522.004 609 -522.004 c 0
 564 -522.004 534 -503 519 -466 c 1
 386 -452 273 -390 198 -315 c 0
 129 -246 59.998 -132 59.998 -8 c 0
 59.998 64 70 124 90 171 c 0
 141 292 226 382 335 446 c 0
 392 479 453 503 518 517 c 1
 529 562 560 587 612 587 c 0
 659 587 689 567 703 526 c 1
 766 519 825 500 881 470 c 0
 947 435 993 403 1020 374 c 1
 1110 283 1158 189 1158 10 c 0
612 426.993 m 0
 569 426.993 526 449 517 484 c 1
 424 445 343 370 288 288 c 0
 244 221 202 125 202 17 c 0
 202 -111 243 -201 299 -274 c 0
 351 -343 425 -398 512 -429 c 1
 512 -395 546 -374 574 -367 c 0
 585 -364 600 -362 617 -362 c 0
 634 -362 652 -367 671 -378 c 0
 690 -389 701 -403 704 -422 c 1
 797 -383 876 -308 930 -226 c 0
 973 -160 1016 -63 1016 44 c 0
 1016 167 974 262 919 334 c 0
 867 403 794 458 707 489 c 1
 700 451 656 426.993 612 426.993 c 0
EndSplineSet
EndChar

StartChar: uni047B
Encoding: 1147 1147 47
Width: 686
Flags: HW
HStem: -12.001 28.001<268.379 401.472> 420.999 28.001<284.935 417.022>
VStem: 62 114<116.929 311.309> 510.001 113.999<124.825 318.917>
AnchorPoint: "Numeral" 351 240 basechar 0
AnchorPoint: "Diacritic" 352 642.998 basechar 0
AnchorPoint: "Yerok" 552 644 basechar 0
LayerCount: 2
Fore
SplineSet
624 218 m 0
 624 136 582 80 532 45 c 0
 482 12 412 -12.001 333 -12.001 c 0
 213 -12.001 126 36 84 116 c 0
 70 145 62 179 62 218 c 0
 62 301 104 355 154 391 c 0
 203 425 274 449 353 449 c 0
 472 449 560 399 602 320 c 0
 616 290 624 257 624 218 c 0
354 420.999 m 0
 266 420.999 213 366 190 299 c 0
 180 274 176 247 176 218 c 0
 176 129 206 61 265 31 c 0
 284 21 307 16 333 16 c 0
 421 16 474 71 497 137 c 0
 506 162 510.001 189 510.001 218 c 0
 510.001 307 480 374 422 405 c 0
 403 416 380 420.999 354 420.999 c 0
EndSplineSet
EndChar

StartChar: uni0420
Encoding: 1056 1056 48
Width: 682
Flags: HW
HStem: -455 25<75 129.998 262 321> 507.989 22.011<337.761 445.19>
VStem: 129.998 132.002<-430 -184.045> 151.998 120.002<97.0455 217.475 231 422.587> 495.999 106.001<317.167 463.927>
AnchorPoint: "Numeral" 376 48 basechar 0
AnchorPoint: "Yerok" 560 699 basechar 0
AnchorPoint: "Diacritic" 381 699 basechar 0
LayerCount: 2
Fore
SplineSet
75 -455 m 1xe8
 75 -430 l 1
 129.998 -430 l 1xe8
 151.998 343 l 1xd8
 151.998 407 189 452 227 481 c 0
 278 520 327 530 410 530 c 0
 461 530 507 513 542 494 c 0
 569 480 585 466 595 434 c 0
 600 419 602 405 602 392 c 0
 602 342 589 318 558 294 c 0
 528 270 463 269 418 261 c 0
 388 257 348 254 327 241 c 0
 301 225 280 212 271 181 c 1
 262 -430 l 1
 321 -430 l 1
 321 -455 l 1
 75 -455 l 1xe8
495.999 392 m 0
 495.999 461 466 507.989 395 507.989 c 0
 343 507.989 301 485 283 450 c 0
 278 439 275 429 275 418 c 2
 272 231 l 1xd8
 289 248 309 263 336 270 c 0
 376 281 427 282 455 300 c 0
 484 319 495.999 346 495.999 392 c 0
EndSplineSet
EndChar

StartChar: uni0440
Encoding: 1088 1088 49
Width: 340
Flags: W
HStem: 0 107<136.333 193.717> 277 174<184 246>
VStem: 54.0039 81.9961<-290.981 0 108.373 197.876> 216 68<129.074 336>
AnchorPoint: "Numeral" 183 240 basechar 0
AnchorPoint: "Diacritic" 215 642.998 basechar 0
AnchorPoint: "Yerok" 245 644 basechar 0
LayerCount: 2
Fore
SplineSet
65 -318 m 0
 65 -220 54.0039 -144 54.0039 -46 c 0
 54.0039 96 64 231 113 324 c 0
 139 375 177 426 232 449 c 0
 235 450 239 451 244 451 c 0
 248 451 251 450 252 448 c 0
 277 409 284 366 284 306 c 0
 284 189 255 81 218 0 c 1
 195 0 173 0 152 0 c 0
 146 0 141 0 136 0 c 1
 136 -41 l 2
 136 -76 138 -112 138 -147 c 0
 138 -261 135 -374 109 -459 c 0
 101 -484 87 -503 67 -516 c 0
 65 -518 62 -518 60 -518 c 0
 51 -518 41 -508 43 -501 c 2
 54.0039 -464 l 2
 64.9963 -419.031 65 -373.063 65 -318.114 c 0
 65 -318 l 0
159 254 m 0
 145 216 136 168 136 119 c 1
 143 112 157 107 170 107 c 0
 179 107 188 109 194 115 c 1
 206 148 216 202 216 245 c 0
 216 254 215 262 213 267 c 1
 205 274 197 277 188 277 c 0
 180 277 172 274 165 268 c 0
 163 265 161 261 159 254 c 0
EndSplineSet
AlternateSubs2: "'salt' Stylistic Alternatives lookup 2-1" uni0440.salt
EndChar

StartChar: uni0421
Encoding: 1057 1057 50
Width: 692
Flags: HW
HStem: -464.999 23.999<280.744 364.102> -50 25<413 455 576 623> 109.998 25.002<413 455 574.01 623> 504.998 24.002<280.983 364.957>
VStem: 65 126<-181.053 247.125> 455 121<-211.585 -50 135 262.801>
AnchorPoint: "Numeral" 306 48 basechar 0
AnchorPoint: "Yerok" 513 699 basechar 0
AnchorPoint: "Diacritic" 321 699 basechar 0
LayerCount: 2
Fore
SplineSet
576 -50 m 1
 576 -171 542 -278 494 -355 c 0
 458 -412 405 -464.999 323 -464.999 c 0
 286 -464.999 251 -454 220 -431 c 0
 149 -379 107 -284 85 -176 c 0
 72 -115 65 -45 65 32 c 0
 65 178 89 305 139 396 c 0
 162 439 189 472 220 495 c 0
 251 518 286 529 323 529 c 0
 402 529 455 479 490 424 c 0
 537 352 565 250 575 135 c 1
 623 135 l 1
 623 109.998 l 1
 413 109.998 l 1
 413 135 l 1
 455 135 l 1
 451 261 443 399 388 472 c 0
 371 494 350 504.998 323 504.998 c 0
 273 504.998 248 465 232 425 c 0
 191 327 191 177 191 40 c 0
 191 32 l 0
 191 -74 194 -186 209 -277 c 0
 219 -335 237 -388 269 -420 c 0
 284 -434 302 -441 323 -441 c 0
 350 -441 373 -429 390 -406 c 0
 446 -327 451 -181 455 -50 c 1
 413 -50 l 1
 413 -25 l 1
 623 -25 l 1
 623 -50 l 1
 576 -50 l 1
EndSplineSet
EndChar

StartChar: uni0441
Encoding: 1089 1089 51
Width: 285
Flags: HW
HStem: 425 20G<203.5 233>
VStem: 55 99<133.624 287.523>
AnchorPoint: "Numeral" 138 240 basechar 0
AnchorPoint: "Diacritic" 157 642.998 basechar 0
AnchorPoint: "Yerok" 187 644 basechar 0
LayerCount: 2
Fore
SplineSet
130 0 m 0
 125 -2 110 -11 101 -11 c 0
 98 -11 95 -10 94 -7 c 0
 84 10 79 46 73 73 c 0
 64 118 55 171 55 224 c 0
 55 289 75 337 102 376 c 0
 128 413 174 445 233 445 c 1
 233 435 234 425 234 416 c 0
 234 392 231 363 229 344 c 1
 205 333 174 308 158 288 c 1
 156 278 154 257 154 240 c 0
 154 214 159 184 159 161 c 0
 159 147 162 138 163 133 c 1
 185 140 198 148 216 160 c 0
 219 163 222 157 222 155 c 0
 222 112 215 81 205 45 c 1
 183 28 156 12 130 0 c 0
EndSplineSet
EndChar

StartChar: uni0422
Encoding: 1058 1058 52
Width: 718
Flags: HW
HStem: -455 25<217 272 404 459> 495 25<191.219 298 418 526.781>
VStem: 272 132<-430 -180.962> 298 120<245.962 495>
AnchorPoint: "Numeral" 336 48 basechar 0
AnchorPoint: "Yerok" 613 699 basechar 0
AnchorPoint: "Diacritic" 361 699 basechar 0
LayerCount: 2
Fore
SplineSet
217 -455 m 1xe0
 217 -430 l 1
 272 -430 l 1xe0
 298 495 l 1
 193 495 l 1
 191 482 189 467 187 451 c 2
 181 399 l 2
 177 365 174 328 171 294 c 1
 160 294 l 1
 120 377 82 437 19 505 c 0
 17 507 16 509 16 511 c 0
 16 512 17 513 17 514 c 0
 17 516 18 518 19 520 c 1
 699 520 l 1
 699 518 699 516 700 514 c 0
 700 512 700 510 700 509 c 0
 700 507 700 506 699 505 c 0
 636 437 598 377 558 294 c 1
 547 294 l 1
 544 328 541 365 537 399 c 2
 531 451 l 2
 529 467 527 482 525 495 c 1
 418 495 l 1xd0
 404 -430 l 1
 459 -430 l 1
 459 -455 l 1
 217 -455 l 1xe0
EndSplineSet
EndChar

StartChar: uni0442
Encoding: 1090 1090 53
Width: 598
Flags: HW
HStem: 406.995 30.003<53.0015 68 172.007 276 374.479 457.171>
VStem: 60 107<191.508 405.718> 68 98<193.956 405.718> 250.001 100.999<-1.94238 267.393>
AnchorPoint: "Numeral" 308 240 basechar 0
AnchorPoint: "Diacritic" 335 642.998 basechar 0
AnchorPoint: "Yerok" 515 644 basechar 0
LayerCount: 2
Fore
SplineSet
165 273 m 0xb0
 165 253 167 229 167 212 c 0
 167 207 167 203 167 199 c 1
 139 188 101 178 67 175 c 1
 60 178 l 1xd0
 63 246 68 315 68 385 c 0
 68 393 68 399.995 68 406.995 c 1xb0
 60 406.995 l 1
 55 409.995 53 415 53 422 c 0
 53 428 55 432.998 60 436.998 c 1xd0
 587 436.998 l 2
 590 436.998 592 434 592 431 c 0
 592 429 591 426 590 425 c 2
 557 391 l 2
 528 361 494 326 476 287 c 0
 475 285 472 284 469 284 c 0
 465 284 463 285 463 287 c 0
 462 292 462 298 462 305 c 0
 462 320 462 336 462 351 c 0
 462 376 460 397.995 447 406.995 c 1
 376 406.995 l 1
 365 315.995 358 203 354 103 c 0
 352 65 351 31 351 -0 c 1
 333 -2 316 -3 300 -3 c 0
 284 -3 267.001 -2 250.001 -0 c 1
 250.001 103 258 217 267 314 c 0
 270 350 273 380.995 276 406.995 c 1
 176 406.995 l 1
 166 379.995 166 338 166 303 c 0
 166 293 165 283 165 273 c 0xb0
EndSplineSet
EndChar

StartChar: uni0423
Encoding: 1059 1059 54
Width: 667
Flags: HW
HStem: -460 25<236 310.188 366.027 428> 500 20G<156.533 228.5>
VStem: 327.002 23.998<-417.019 -205.623>
AnchorPoint: "Numeral" 336 48 basechar 0
AnchorPoint: "Yerok" 553 699 basechar 0
AnchorPoint: "Diacritic" 361 699 basechar 0
LayerCount: 2
Fore
SplineSet
351 -394 m 1
 357 -415 369 -435 394 -435 c 2
 428 -435 l 1
 428 -460 l 1
 236 -460 l 1
 236 -435 l 1
 275 -435 l 2
 300 -435 318.002 -422 327.002 -396 c 1
 329.002 -317 330 -238 335 -156 c 1
 322 -112 318 -76 306 -25 c 0
 277 87 235 200 192 300 c 0
 168 354 141 412 112 453 c 1
 47 423 l 1
 41 426 36 435 37 445 c 1
 200 520 l 1
 213 520 l 1
 244 482 274 418 298 366 c 0
 323 309 352 237 371 180 c 1
 388 245 401 305 423 368 c 0
 436 406 450 439 463 466 c 1
 490 489 535 515 582 515 c 0
 609 515 642 525 657 540 c 1
 666 533 667 524 667 508 c 0
 667 495 663 486 655 480 c 0
 647 475 636 468 623 461 c 0
 609 453 599 443 594 431 c 1
 596 416 600 400 600 383 c 0
 600 378 599 372 598 367 c 1
 590 362 l 1
 578 376 566 390 554 404 c 1
 532 426 l 1
 510 440 l 1
 501 434 493 433 486 426 c 1
 454 369 431 320 413 247 c 1
 389 161 373 77 367 -25 c 1
 358 -149 354 -275 351 -394 c 1
EndSplineSet
EndChar

StartChar: uni0443
Encoding: 1091 1091 55
Width: 461
Flags: HW
HStem: -502.998 21.998<161.344 171.111> 381.001 58.999<372.341 450.612>
AnchorPoint: "Numeral" 238 240 basechar 0
AnchorPoint: "Diacritic" 275 642.998 basechar 0
AnchorPoint: "Yerok" 395 644 basechar 0
LayerCount: 2
Fore
SplineSet
234 0 m 1
 208 -6 188 -6 159 -6 c 0
 153 -6 148 -6 142 -6 c 1
 136 45 126 108 118 163 c 2
 100 269 l 2
 93 305 87 337 81 366 c 0
 80 374 76 383 71 394 c 2
 57 418 l 1
 58 425 l 1
 95 436 126 439 170 442 c 1
 183 371 196 301 208 229 c 2
 225 127 l 2
 230 94 235 65 238 39 c 1
 255 140 266 232 283 334 c 0
 290 373 313 405 348 417 c 0
 376 427 415 436 449 440 c 1
 451 432 452 425 452 419 c 0
 452 406 449 395.001 447 381.001 c 1
 410 376.001 374 368 353 344 c 0
 343 332 336 320 336 308 c 0
 336 263 326 217 320 172 c 2
 312 104 l 2
 307 70 305 29 298 -5 c 1
 275 -175 252 -318 207 -459 c 0
 199 -481 194 -496.998 170 -502.998 c 1
 161 -497.998 156 -491 156 -481 c 1
 170 -475 176 -468 179 -452 c 0
 208 -309 234 -167 234 0 c 1
EndSplineSet
AlternateSubs2: "'salt' Stylistic Alternatives lookup 2-1" uni0443.salt
EndChar

StartChar: uni0478
Encoding: 1144 1144 56
Width: 1078
Flags: HW
HStem: -502.998 21.998<774.623 784.111> -465.002 24.002<280.744 365.017> 381.001 58.999<985.341 1063.61> 504.998 24.002<280.983 364.044>
VStem: 65 126<-181.053 247.125> 455.008 125.992<-183.25 250.086>
AnchorPoint: "Numeral" 856 48 basechar 0
AnchorPoint: "Yerok" 1003 699 basechar 0
AnchorPoint: "Diacritic" 871 699 basechar 0
LayerCount: 2
Fore
SplineSet
755 -6 m 1
 749 45 739 108 731 163 c 2
 713 269 l 2
 706 305 700 337 694 366 c 0
 693 374 689 383 684 394 c 2
 670 418 l 1
 671 425 l 1
 708 436 739 439 783 442 c 1
 796 371 809 301 821 229 c 2
 838 127 l 2
 843 94 848 65 851 39 c 1
 868 140 879 232 896 334 c 0
 903 373 926 405 961 417 c 0
 989 427 1028 436 1062 440 c 1
 1064 432 1065 425 1065 419 c 0
 1065 406 1062 395.001 1060 381.001 c 1
 1023 376.001 987 368 966 344 c 0
 956 332 950 320 949 308 c 0
 944 263 939 217 933 172 c 2
 925 104 l 2
 920 70 918 29 911 -5 c 1
 888 -175 865 -318 820 -459 c 0
 812 -481 807 -496.998 783 -502.998 c 1
 774 -497.998 770 -491 769 -481 c 1
 783 -475 789 -468 792 -452 c 0
 821 -309 847 -167 847 0 c 1
 821 -5 783 -6 755 -6 c 1
323 504.998 m 0
 273 504.998 248 465 232 425 c 0
 191 327 191 177 191 40 c 0
 191 32 l 0
 191 -74 194 -186 209 -277 c 0
 219 -335 237 -388 269 -420 c 0
 284 -434 302 -441 323 -441 c 0
 373 -441 398 -401 414 -362 c 0
 455 -263 455.008 -113 455.008 24 c 0
 455.008 32 l 0
 455.008 138 452 250 437 341 c 0
 427 399 409 452 377 483 c 0
 362 498 344 504.998 323 504.998 c 0
323 -465.002 m 0
 286 -465.002 251 -454 220 -431 c 0
 149 -379 107 -284 85 -176 c 0
 72 -115 65 -45 65 32 c 0
 65 178 89 305 139 396 c 0
 162 439 189 472 220 495 c 0
 251 518 286 529 323 529 c 0
 360 529 395 518 426 495 c 0
 497 443 539 348 562 240 c 0
 575 179 581 109 581 32 c 0
 581 -114 557 -241 508 -333 c 0
 485 -376 457 -408 426 -431 c 0
 395 -454 360 -465.002 323 -465.002 c 0
EndSplineSet
AlternateSubs2: "'salt' Stylistic Alternatives lookup 2-1" uni0478.salt
Ligature2: "'ccmp' Glyph Composition/Decomposition lookup 0-1" uni041E uni0443
EndChar

StartChar: uni0479
Encoding: 1145 1145 57
Width: 722
Flags: HW
HStem: -502.998 21.998<422.344 432.111> 381.001 58.999<633.341 711.612> 430 20G<181.5 184.5>
VStem: 58 53<158.282 274.049> 178 60<155.133 270.718>
AnchorPoint: "Numeral" 498 240 basechar 0
AnchorPoint: "Diacritic" 515 642.998 basechar 0
AnchorPoint: "Yerok" 635 644 basechar 0
LayerCount: 2
Fore
SplineSet
495 0 m 1xd8
 469 -6 449 -6 420 -6 c 0
 414 -6 409 -6 403 -6 c 1
 397 45 387 108 379 163 c 2
 361 269 l 2
 354 305 348 337 342 366 c 0
 341 374 337 383 332 394 c 2
 318 418 l 1
 319 425 l 1
 356 436 387 439 431 442 c 1
 444 371 457 301 469 229 c 2
 486 127 l 2
 491 94 496 65 499 39 c 1
 516 140 527 232 544 334 c 0
 551 373 574 405 609 417 c 0
 637 427 676 436 710 440 c 1
 712 432 713 425 713 419 c 0
 713 406 710 395.001 708 381.001 c 1
 671 376.001 635 368 614 344 c 0
 604 332 597 320 597 308 c 0
 597 263 587 217 581 172 c 2
 573 104 l 2
 568 70 566 29 559 -5 c 1
 536 -175 513 -318 468 -459 c 0
 460 -481 455 -496.998 431 -502.998 c 1
 422 -497.998 417 -491 417 -481 c 1
 431 -475 437 -468 440 -452 c 0
 469 -309 495 -167 495 0 c 1xd8
191 447 m 0
 224 410 238 345 238 275 c 0
 238 148 192 47 121 -9 c 0
 118 -11 114 -13 110 -13 c 0
 107 -13 104 -12 103 -9 c 0
 76 42 58 102 58 178 c 0
 58 279 86 359 134 413 c 0
 146 427 159 438 174 447 c 0
 177 449 180 450 183 450 c 0xb8
 186 450 189 449 191 447 c 0
161 154 m 1
 170 178 178 213 178 244 c 0
 178 246 178 248 178 250 c 0
 178 258 177 265 176 271 c 1
 166 277 159 280 150 280 c 0
 144 280 137 278 128 275 c 1
 116 255 112 217 112 186 c 0
 111 184 111 182 111 179 c 0
 111 171 112 164 113 158 c 1
 122 152 130 149 139 149 c 0
 146 149 153 150 161 154 c 1
EndSplineSet
Ligature2: "'ccmp' Glyph Composition/Decomposition lookup 0-1" uni043E uni0443
Ligature2: "'ccmp' Glyph Composition/Decomposition lookup 0-1" uni1C82 uni0443
EndChar

StartChar: uniA64A
Encoding: 42570 42570 58
Width: 641
Flags: HW
HStem: -463.997 59.997<300.22 342.824> 506 20G<158.105 214>
VStem: 93.001 97.999<-265.181 -134.5> 412 100<-308.5 -182.26>
AnchorPoint: "Numeral" 336 48 basechar 0
AnchorPoint: "Yerok" 543 699 basechar 0
AnchorPoint: "Diacritic" 351 699 basechar 0
LayerCount: 2
Fore
SplineSet
331 20 m 1
 337 21 344 22 351 22 c 0
 360 22 370 18 381 11 c 0
 422 -16 457 -61 482 -106 c 0
 496 -132 512 -165 512 -199 c 0
 512 -269 477 -331 440 -373 c 0
 395 -423 328 -463.997 237 -463.997 c 1
 196 -448.997 161 -406 138 -370 c 0
 116 -337 93.001 -290 93.001 -243 c 0
 93.001 -183 127 -132 158 -96 c 0
 192 -55 240 -15 290 7 c 1
 259 132 212 265 160 372 c 0
 143 407 127 436 112 458 c 1
 48 428 l 1
 42 431 38 440 38 450 c 1
 201 526 l 1
 214 526 l 1
 214 525 l 1
 254 467 290 390 320 321 c 0
 331 295 340 271 348 250 c 1
 348 251 349 254 350 258 c 0
 368 328 396 414 424 471 c 1
 451 494 496 520 543 520 c 0
 570 520 603 530 618 545 c 1
 627 538 628 529 628 513 c 0
 628 500 624 491 616 486 c 0
 608 480 597 473 584 466 c 0
 570 458 560 448.998 555 436.998 c 1
 557 421.998 561 405 561 388 c 0
 561 383 560 377 559 372 c 1
 551 367 l 1
 534 387 l 2
 517 408 496 434 471 445 c 1
 462 439 454 438 447 431 c 1
 415 373 394 324 374 252 c 0
 351 170 339 109 331 20 c 1
406 -366 m 1
 410 -344 412 -321 412 -296 c 0
 412 -201 375 -133 321 -86 c 0
 302 -70 275 -49 246 -49 c 1
 228 -59 206 -82 196 -99 c 1
 193 -112 191 -127 191 -142 c 0
 191 -245 230 -321 285 -370 c 0
 301 -384 325 -404 349 -404 c 1
 380 -387 l 2
 390 -381 399 -374 406 -366 c 1
EndSplineSet
EndChar

StartChar: uniA64B
Encoding: 42571 42571 59
Width: 460
Flags: HW
HStem: -8 30<182.481 266.726>
VStem: 52.9961 101.004<489.59 596.478> 66.9971 88.0029<41.6364 155.871> 289.995 109.005<47.3125 198.715> 512.998 96.002<740.477 821.359>
AnchorPoint: "Numeral" 238 240 basechar 0
AnchorPoint: "Diacritic" 335 702.998 basechar 0
AnchorPoint: "Yerok" 335 704 basechar 0
LayerCount: 2
Fore
SplineSet
609 812 m 0xd8
 609 779 590 744 576 721 c 2
 506 601 l 1
 443 494 376.995 409 289.995 323 c 1
 330 274 l 2
 355 244 376 211 389 172 c 0
 396 153 399 134 399 113 c 0
 399 59 366 27 328 10 c 0
 296 -6 253 -8 207 -8 c 0
 140 -8 97 19 74 64 c 0
 69 74 66.9971 85 66.9971 96 c 0xb8
 66.9971 132 92 162 112 186 c 0
 125 201 140 217 157 234 c 2
 209 285 l 1
 199 298 189 311 179 322 c 0
 152 353 122 383 99 420 c 1
 79 449 l 2
 63 474 52.9961 499 52.9961 540 c 0
 52.9961 573 73 597 92 615 c 0
 113 633 142 651 172 658 c 0
 174 658 176 659 177 659 c 0
 185 659 190 654 190 647 c 0
 190 644 189 641 186 637 c 0
 181 632 178 628 175 626 c 2
 167 617 l 2
 157 607 154 587 154 568 c 0
 154 546 157 529 163 515 c 0
 170 499 179 482 192 463 c 0
 211 435 229 406 248 379 c 2
 269 351 l 1
 358 456 427 567 495 693 c 0
 508 717 512.998 727 512.998 764 c 0
 512.998 774 509 779 500 779 c 0
 494 779 486 776 475 771 c 0
 473 770 471 770 469 770 c 0
 461 770 455 774 455 780 c 0
 455 782 456 785 459 787 c 0
 482 805 502 820 528 832 c 2
 550 841 l 2
 561 846 573 849 583 849 c 0
 594 849 604 845 607 831 c 0
 608 825 609 819 609 812 c 0xd8
219 22 m 0
 276 22 289.995 58 289.995 114 c 0
 289.995 145 284 171 272 193 c 0
 260 214 245 237 227 260 c 1
 206 237 188 214 175 191 c 0
 162 167 155 140 155 110 c 0
 155 66 175 22 219 22 c 0
EndSplineSet
AlternateSubs2: "'salt' Stylistic Alternatives lookup 2-1" uniA64B.salt uniA64B.salt2 uniA64B.salt3
EndChar

StartChar: uni0424
Encoding: 1060 1060 60
Width: 859
Flags: HW
HStem: -455 25<279 342 466 521> -170 27<471 505.649> 246 30<312.638 353 477 517.664> 495 25<306 360 480 536>
VStem: 57 125<-37.1341 131.592> 342 124<-430 -167.671 -141 104.545> 353 124<-0.27272 246 273.103 495> 360 120<276 495> 640 125<-25.1634 140.944>
AnchorPoint: "Numeral" 406 48 basechar 0
AnchorPoint: "Yerok" 693 699 basechar 0
AnchorPoint: "Diacritic" 421 699 basechar 0
LayerCount: 2
Fore
SplineSet
279 -455 m 1xfc80
 279 -430 l 1
 342 -430 l 1
 342 -170 l 1xfc80
 233 -158 135 -120 84 -48 c 0
 66 -22 57 10 57 48 c 0
 57 128 106 178 158 211 c 0
 209 244 281 267 353 276 c 1xfa80
 360 495 l 1
 306 495 l 1
 306 520 l 1
 536 520 l 1
 536 495 l 1
 480 495 l 1xf980
 477 275 l 1xfa80
 587 261 686 223 738 150 c 0
 756 124 765 93 765 58 c 0
 765 -25 717 -76 662 -108 c 0
 610 -140 539 -161 470 -170 c 1
 466 -430 l 1
 521 -430 l 1
 521 -455 l 1
 279 -455 l 1xfc80
182 50 m 0
 182 -30 229 -84 280 -115 c 0
 300 -126 320 -135 342 -141 c 1xfc80
 353 246 l 1xfa80
 280 227 223 181 195 117 c 0
 186 96 182 74 182 50 c 0
640 60 m 0
 640 112 618 150 592 179 c 0
 564 210 522 234 477 246 c 1xfa80
 471 -143 l 1
 542 -124 600 -75 626 -10 c 0
 635 12 640 35 640 60 c 0
EndSplineSet
EndChar

StartChar: uni0444
Encoding: 1092 1092 61
Width: 705
Flags: HW
HStem: -6 30<396 446.218> 787 30<239.092 296.891> 814 34<420 453.773>
VStem: 50 116<115.24 248.505> 298 118<694.5 791> 315 87<106.094 355 483.92 738.375> 315 81<-246.876 -10 32 349.797> 315 66<-507.859 -270.106> 546 105<105.485 257.989>
AnchorPoint: "Numeral" 358 240 basechar 0
AnchorPoint: "Diacritic" 365 1023 basechar 0
AnchorPoint: "Yerok" 585 644 basechar 0
LayerCount: 2
Fore
SplineSet
298 791 m 1xb880
 280 788 265 787 246 787 c 1
 241 790 239 795 239 800 c 0
 239 806 241 813 244 817 c 1xd880
 316 823 382 832 443 848 c 1
 449 847 454 836 454 828 c 0
 454 824 453 820 451 818 c 1
 445 817 439 815 434 814 c 2
 420 810 l 1
 420 795 416 776 416 753 c 1xb880
 412 675 l 2
 408 616 404 547 404 485 c 1
 423 462 450 437 486 408 c 0
 511 388 535 369 558 348 c 2
 586 323 l 2
 613 298 635 262 646 222 c 0
 649 208 651 194 651 180 c 0
 651 115 613 75 571 48 c 0
 525 20 461 2 395 -6 c 1
 391 -171 385 -340 381 -498 c 1
 370 -504 365 -509 349 -509 c 0
 334 -509 326 -505 318 -498 c 1
 318 -421 315 -343 315 -262 c 0xb180
 315 -182 315 -98 315 -10 c 1xb280
 209 -6 117 34 72 101 c 0
 57 124 50 149 50 177 c 0
 50 202 56 224 68 243 c 0
 87 272 124 307 152 331 c 0
 202 372 266 411 290 475 c 0
 300 501 307 529 310 558 c 1
 308 637 301 718 298 791 c 1xb880
315 32 m 1x9280
 315 168 315 297.998 315 436.998 c 1
 315 449 l 1x9180
 310 438 302 427 295 418 c 0
 264 377 226 337 198 293 c 0
 179 263 166 232 166 184 c 0
 166 141 191 106 214 83 c 1
 235 60 278 43 315 32 c 1x9280
546 182 m 0
 546 272 476 308 421 344 c 0
 415 348 409 352 402 355 c 1x9480
 402 244 399 133 396 24 c 1x9280
 460 33 509 71 533 121 c 0
 542 140 546 160 546 182 c 0
EndSplineSet
AlternateSubs2: "'salt' Stylistic Alternatives lookup 2-1" uni0444.salt uni0444.salt2
EndChar

StartChar: uni0425
Encoding: 1061 1061 62
Width: 793
Flags: HW
HStem: -548 25<-53 0 83 130> -455 25<423 473 600 660> 504 24G<302.646 321 679 718>
AnchorPoint: "Numeral" 386 48 basechar 0
AnchorPoint: "Yerok" 703 699 basechar 0
AnchorPoint: "Diacritic" 511 699 basechar 0
LayerCount: 2
Fore
SplineSet
-53 -548 m 1
 -53 -523 l 1
 0 -523 l 1
 371 129 l 1
 299 524 l 1
 343 524 384 518 419 507 c 1
 461 287 l 1
 570 477 l 1
 600 507 650 528 708 528 c 0
 728 528 749 526 763 520 c 1
 766 509 l 1
 747 490 732 482 716 458 c 0
 702 436 686 404 678 380 c 1
 668 380 l 1
 647 408 615 434 586 455 c 1
 469 248 l 1
 600 -430 l 1
 660 -430 l 1
 660 -455 l 1
 423 -455 l 1
 423 -430 l 1
 473 -430 l 1
 380 82 l 1
 83 -523 l 1
 130 -523 l 1
 130 -548 l 1
 -53 -548 l 1
EndSplineSet
EndChar

StartChar: uni0445
Encoding: 1093 1093 63
Width: 474
Flags: HW
HStem: -455 21G<-76 -69.5> 420 20G<132 153.5>
VStem: -88 29<-454.892 -446>
AnchorPoint: "Numeral" 198 240 basechar 0
AnchorPoint: "Diacritic" 275 642.998 basechar 0
AnchorPoint: "Yerok" 395 644 basechar 0
LayerCount: 2
Fore
SplineSet
376 335 m 1
 371 337 357 344 357 351 c 1
 351 364 335 374 316 374 c 0
 313 374 311 374 309 374 c 1
 275 287 l 2
 265 261 255 236 244 211 c 1
 256 135 l 2
 260 110 264 85 269 60 c 2
 290 -54 l 2
 310 -156 332 -246 365 -336 c 1
 361 -348 l 1
 345 -350 328 -351 310 -351 c 0
 292 -351 273 -348 252 -348 c 1
 223 -218 198 -96 174 50 c 1
 151 3 129 -46 107 -94 c 0
 72 -169 36 -245 0 -321 c 2
 -59 -446 l 2
 -62 -452 -67 -455 -72 -455 c 0
 -80 -455 -88 -449 -88 -440 c 0
 -88 -438 -88 -436 -87 -434 c 0
 -49 -355 -11 -275 26 -196 c 0
 64 -114 101 -33 139 48 c 2
 152 76 l 2
 157 85 161 95 165 104 c 1
 157 153 150 197 144 238 c 2
 128 362 l 1
 125 366 121 371 116 377 c 2
 101 397 l 2
 92 408 82 420 73 429 c 1
 77 436.998 l 1
 94 438.998 122 440 142 440 c 0
 165 440 194 436.998 214 436.998 c 1
 220 385.998 228 326 236 269 c 1
 252 310 268 350 284 390 c 1
 302 407 l 2
 319 423 362 432.998 387 436.998 c 0
 404 439.998 423 445 444 445 c 1
 450 451 457 458 463 464 c 1
 473 464 480 458 483 447 c 1
 466 429 448 410 431 392 c 2
 400 359 l 2
 390 348 382 340 376 335 c 1
EndSplineSet
AlternateSubs2: "'salt' Stylistic Alternatives lookup 2-1" uni0445.salt uni0445.salt2 uni0445.salt3
EndChar

StartChar: uni0426
Encoding: 1062 1062 64
Width: 712
Flags: HW
HStem: -749 25<417 473 604 664> -455 25<58 113 245 471> 495 25<85 139 259 315 410 465 580 635>
VStem: 113 132<-430 -180.962> 139 120<245.962 495> 465 115<139.458 495> 471 133<-724 -455 -430 -368.458>
AnchorPoint: "Numeral" 336 48 basechar 0
AnchorPoint: "Yerok" 533 699 basechar 0
AnchorPoint: "Diacritic" 341 699 basechar 0
LayerCount: 2
Fore
SplineSet
259 495 m 1xe8
 245 -430 l 1
 471 -430 l 1xf2
 465 495 l 1
 410 495 l 1
 410 520 l 1
 635 520 l 1
 635 495 l 1
 580 495 l 1xe4
 604 -724 l 1
 664 -724 l 1
 664 -749 l 1
 417 -749 l 1
 417 -724 l 1
 473 -724 l 1
 471 -455 l 1
 58 -455 l 1
 58 -430 l 1
 113 -430 l 1xf2
 139 495 l 1
 85 495 l 1
 85 520 l 1
 315 520 l 1
 315 495 l 1
 259 495 l 1xe8
EndSplineSet
AlternateSubs2: "'salt' Stylistic Alternatives lookup 2-1" uni0426.salt
EndChar

StartChar: uni0446
Encoding: 1094 1094 65
Width: 488
Flags: HW
HStem: 0 30<165 308.001> 425 20G<184.5 205 411.5 419>
VStem: 60 105<30 295.859> 301.001 97.999<50.4802 417.642> 308.001 102.999<30 213.18> 379.999 77.001<-208.506 -1.8629>
AnchorPoint: "Numeral" 238 240 basechar 0
AnchorPoint: "Diacritic" 265 642.998 basechar 0
AnchorPoint: "Yerok" 385 644 basechar 0
LayerCount: 2
Fore
SplineSet
379.999 -109 m 2xe4
 379.999 -108.911 l 0xe4
 379.999 -64.9664 379.998 -39.9732 377 0 c 1
 60 0 l 1
 60 34 l 1
 60 108 66 156 72 231 c 0
 79 297 87 377 100 429 c 1
 135 438 168 444 201 445 c 1
 205 440 l 1
 177 322 165 172 165 30 c 1
 308.001 30 l 1xe8
 303.001 86 303.001 156 301.001 216 c 0
 300.668 223.667 300.557 231.222 300.557 238.667 c 0
 300.557 253.556 301.001 268 301.001 282 c 2
 301.001 329 l 2xf0
 301.001 363 304.001 390 308.001 419 c 1xe8
 332.001 429 363 438 393 443 c 0
 402 444 409 445 414 445 c 1
 419 440 l 1
 406 403 399 365 399 315 c 0xf0
 399 236 402 151 407 77 c 0
 408 56 411 41 411 30 c 1xe8
 457 30 l 1
 457 -155 444 -336 409 -489 c 0
 404 -510 398 -519 385 -530 c 1
 383 -530 l 0
 373 -530 364 -526 357 -518 c 1
 367 -476 372 -415 375 -371 c 0
 379 -315 379.999 -263 379.999 -204 c 2
 379.999 -109 l 2xe4
EndSplineSet
AlternateSubs2: "'salt' Stylistic Alternatives lookup 2-1" uni0446.salt
EndChar

StartChar: uni0427
Encoding: 1063 1063 66
Width: 646
Flags: HW
HStem: -454.998 24.998<264 319 449 504> 256.002 29.998<284.867 372.149> 495 25<80 146 261.936 300 359 412 527.458 587>
VStem: 115 121<328.333 475.286> 319 130<-430 -135.656>
AnchorPoint: "Numeral" 336 48 basechar 0
AnchorPoint: "Yerok" 513 699 basechar 0
AnchorPoint: "Diacritic" 321 699 basechar 0
LayerCount: 2
Fore
SplineSet
115 397 m 0
 115 432 131 473 146 495 c 1
 80 495 l 1
 80 520 l 1
 300 520 l 1
 300 495 l 1
 270 495 l 1
 247 463 236 429 236 392 c 0
 236 336 279 286 335 286 c 0
 349 286 363 289 378 296 c 1
 389 365 399 434 412 495 c 1
 359 495 l 1
 359 520 l 1
 587 520 l 1
 587 495 l 1
 530 495 l 1
 503 366 472 219 472 76 c 1
 500 69 522 51 522 17 c 0
 522 -19 491 -39 462 -51 c 1
 454 -177 452 -310 449 -430 c 1
 504 -430 l 1
 504 -454.998 l 1
 264 -454.998 l 1
 264 -430 l 1
 319 -430 l 1
 321 -314 323 -187 332 -68 c 1
 302 -62 278 -45 278 -10 c 0
 278 28 316 49 345 60 c 1
 353 131 362 199 373 266 c 1
 349 258 328 256.002 294 256.002 c 0
 193 256.002 115 296 115 397 c 0
EndSplineSet
EndChar

StartChar: uni0447
Encoding: 1095 1095 67
Width: 375
Flags: HW
HStem: 303 31<186.3 205> 425 20G<138.5 157 330.5 353>
VStem: 55 102<364.928 427.885> 189 100<-2.38108 265.412> 205 97<42.6604 302.088>
AnchorPoint: "Numeral" 238 240 basechar 0
AnchorPoint: "Diacritic" 195 642.998 basechar 0
AnchorPoint: "Yerok" 301 644 basechar 0
LayerCount: 2
Fore
SplineSet
189 -0 m 1xf0
 192 101 195 203 205 303 c 1
 183 303 l 1
 168 294 152 286 134 283 c 1
 97 297 74 342 62 382 c 0
 58 397 55 411.999 55 424.999 c 1
 82 437.999 120 442 157 445 c 1
 157 405 180 363 193 334 c 1
 212 334 l 1
 222 366 235 404 250 429 c 1
 279 439 313 445 348 445 c 1
 353 436.998 l 1
 350 425.998 346 415 341 401 c 2
 325 357 l 2
 314 330 302 297 302 263 c 0xe8
 302 169 291 86 289 -0 c 1
 271 -2 257 -4 239 -4 c 0
 220 -4 208 -2 189 -0 c 1xf0
EndSplineSet
EndChar

StartChar: uni0428
Encoding: 1064 1064 68
Width: 922
Flags: HW
HStem: -455 25<58 113 245 400 532 682 808 864> 495 25<85 139 259 305 361 406 526 571 630 675 790 845>
VStem: 113 132<-430 -180.962> 139 120<245.962 495> 400 132<-430 495> 675 115<135.278 495> 682 126<-430 -70.2778>
AnchorPoint: "Numeral" 466 48 basechar 0
AnchorPoint: "Yerok" 743 699 basechar 0
AnchorPoint: "Diacritic" 471 699 basechar 0
LayerCount: 2
Fore
SplineSet
526 495 m 1xe8
 532 -430 l 1
 682 -430 l 1xea
 675 495 l 1
 630 495 l 1
 630 520 l 1
 845 520 l 1
 845 495 l 1
 790 495 l 1xcc
 808 -430 l 1
 864 -430 l 1
 864 -455 l 1
 58 -455 l 1
 58 -430 l 1
 113 -430 l 1xea
 139 495 l 1
 85 495 l 1
 85 520 l 1
 305 520 l 1
 305 495 l 1
 259 495 l 1xd8
 245 -430 l 1
 400 -430 l 1
 406 495 l 1
 361 495 l 1
 361 520 l 1
 571 520 l 1
 571 495 l 1
 526 495 l 1xe8
EndSplineSet
EndChar

StartChar: uni0448
Encoding: 1096 1096 69
Width: 683
Flags: HW
HStem: -0 30<149 276 379.164 522> 425 20G<218 224 423 445 645 667>
VStem: 47 102<30 273.83> 276 103<30 295.463> 519 99<32.6483 289>
AnchorPoint: "Numeral" 338 240 basechar 0
AnchorPoint: "Diacritic" 380 642.998 basechar 0
AnchorPoint: "Yerok" 600 644 basechar 0
LayerCount: 2
Fore
SplineSet
618 195 m 0
 618 123 620 64 626 -0 c 1
 47 -0 l 1
 47 11 l 1
 47 44 l 1
 50 179 69 327 109 430 c 1
 135 436 168 440 198 444 c 0
 207 444 215 445 221 445 c 1
 224 442 l 1
 181 364 158 241 153 125 c 0
 151 88 150 56 149 30 c 1
 276 30 l 1
 276 164 285 247 309 345 c 0
 316 377 327 405 340 428 c 1
 369 436 405 444 441 444 c 1
 445 439 l 1
 393 351 379 205 379 68 c 0
 379 52 379 39 380 30 c 1
 522 30 l 1
 520 49 519 73 519 102 c 2
 519 196 l 2
 519 268 521 347 542 397 c 2
 556 429 l 1
 585 440 626 445 664 445 c 1
 667 435 l 1
 634 400 626 353 622 289 c 2
 620 259 l 1
 620 237 618 219 618 195 c 0
EndSplineSet
EndChar

StartChar: uni0429
Encoding: 1065 1065 70
Width: 922
Flags: HW
HStem: -697 25<345 399 534 587> -455 25<58 113 245 399 532 682 808 864> 495 25<85 139 259 305 361 406 526 571 630 675 790 845>
VStem: 113 132<-430 -180.962> 139 120<245.962 495> 399 133<-672 -455 -430 340.833> 406 120<-430 495> 675 115<135.278 495> 682 126<-430 -70.2778>
AnchorPoint: "Numeral" 466 48 basechar 0
AnchorPoint: "Yerok" 733 699 basechar 0
AnchorPoint: "Diacritic" 471 699 basechar 0
LayerCount: 2
Fore
SplineSet
526 495 m 1xe2
 532 -430 l 1
 682 -430 l 1xe480
 675 495 l 1
 630 495 l 1
 630 520 l 1
 845 520 l 1
 845 495 l 1
 790 495 l 1xe1
 808 -430 l 1
 864 -430 l 1
 864 -455 l 1
 532 -455 l 1
 534 -672 l 1
 587 -672 l 1
 587 -697 l 1
 345 -697 l 1
 345 -672 l 1
 399 -672 l 1
 399 -455 l 1
 58 -455 l 1
 58 -430 l 1
 113 -430 l 1xf480
 139 495 l 1
 85 495 l 1
 85 520 l 1
 305 520 l 1
 305 495 l 1
 259 495 l 1xe8
 245 -430 l 1
 399 -430 l 1xf4
 406 495 l 1
 361 495 l 1
 361 520 l 1
 571 520 l 1
 571 495 l 1
 526 495 l 1xe2
EndSplineSet
EndChar

StartChar: uni0449
Encoding: 1097 1097 71
Width: 664
Flags: HW
HStem: -0 30<150 272 375.164 503> 425 20G<215 221 413 435 638 644>
VStem: 48.001 101.999<30 291.048> 272 103<30 300.891> 281 85<-247.396 0> 499 98<31.6465 378.259>
AnchorPoint: "Numeral" 338 240 basechar 0
AnchorPoint: "Diacritic" 372 642.998 basechar 0
AnchorPoint: "Yerok" 583 644 basechar 0
LayerCount: 2
Fore
SplineSet
597 195 m 0xf4
 598 124 608 65 611 -0 c 1
 366 -0 l 1
 363 -161 354 -262 325 -418 c 0
 318 -454 295 -488 259 -495 c 1
 249 -492 243 -486 240 -475 c 1
 256 -459 262 -438 265 -410 c 0
 278 -308 281 -194 281 -83 c 2
 281 -0 l 1xec
 48 -0 l 1
 48.001 19 l 1
 48.001 49 l 1
 50.001 186 68 333 106 430 c 1
 132 436 165 440 195 443 c 0
 204 444 212 445 218 445 c 1
 221 442 l 1
 179 365 157 241 153 125 c 0
 152 88 151 56 150 30 c 1
 272 30 l 1
 272 73 l 1
 272 84 275 106 275 141 c 1
 275 174 293 304 301 346 c 0
 307 378 317 406 330 429 c 1
 359 437 395 445 431 445 c 1
 435 440 l 1
 406 392 401 347 391 284 c 0
 382 220 375 141 375 68 c 0
 375 52 375 39 376 30 c 1
 503 30 l 1
 499 65 499 108 499 151 c 0
 499 166 499 181 499 196 c 0
 499 251 503 307 512 354 c 1
 517 375 l 2
 518 381 520 386 521 390 c 2
 526 402 l 2
 528 406 530 411 532 416 c 1
 556 427 589 432.998 618 436.998 c 0
 627 437.998 635 441 641 441 c 1
 644 431 l 1
 616 393 610 347 602 288 c 0
 598 258 597 230 597 195 c 0xf4
EndSplineSet
AlternateSubs2: "'salt' Stylistic Alternatives lookup 2-1" uni0449.salt
EndChar

StartChar: uni042A
Encoding: 1066 1066 72
Width: 641
Flags: HW
HStem: -455 25<65 126 254 383.999 504 541> 495 25<274 351 468 532>
VStem: 383.999 120.001<-430 -39>
AnchorPoint: "Numeral" 336 48 basechar 0
AnchorPoint: "Yerok" 533 699 basechar 0
AnchorPoint: "Diacritic" 391 699 basechar 0
LayerCount: 2
Fore
SplineSet
468 495 m 1
 368 62 l 1
 381 24 410 4 444 -12 c 0
 461 -21 479 -27 500 -32 c 1
 504 -39 l 1
 504 -430 l 1
 541 -430 l 1
 541 -455 l 1
 65 -455 l 1
 65 -430 l 1
 126 -430 l 1
 351 495 l 1
 274 495 l 1
 225 294 l 1
 214 294 l 1
 185 380 155 441 100 505 c 0
 97 508 99 510 99 514 c 0
 99 516 99 518 100 520 c 1
 532 520 l 1
 532 495 l 1
 468 495 l 1
383.999 -3 m 1
 374.999 6 367 13 360 25 c 1
 254 -430 l 1
 383.999 -430 l 1
 383.999 -3 l 1
EndSplineSet
EndChar

StartChar: uni044A
Encoding: 1098 1098 73
Width: 489
Flags: HW
HStem: 0 30<280 337> 407.001 29.997<167.676 293>
AnchorPoint: "Numeral" 268 240 basechar 0
AnchorPoint: "Diacritic" 275 642.998 basechar 0
AnchorPoint: "Yerok" 395 644 basechar 0
LayerCount: 2
Fore
SplineSet
44 186 m 1
 55 257 68 360.998046875 76 436.998046875 c 1
 428 436.998046875 l 1
 431 430 l 1
 388 374 347 301 323 228 c 2
 314 201 l 1
 326 206 338 211 350 215 c 2
 389 227 l 2
 391 228 393 226 395 223 c 1
 413 154 428 76 438 0 c 1
 173 0 l 1
 183 87 209 171 234 251 c 0
 251 306 272 360.000976562 293 407.000976562 c 1
 169 407.000976562 l 1
 162 343.000976562 154 268 147 205 c 1
 116 192 87 184 49 181 c 1
 44 186 l 1
324 116 m 2
 320 134 318 157 304 165 c 1
 294 121 286 76 280 30 c 1
 337 30 l 1
 335 46 332 68 329 85 c 2
 324 116 l 2
EndSplineSet
EndChar

StartChar: uni042B
Encoding: 1067 1067 74
Width: 862
Flags: HW
HStem: -455 25<58 113 245 379.001 507.587 534 567 622.001 748 804> 495 25<85 139 259 315 560 615.001 730 785>
VStem: 113 132<-430 -180.962> 139 114<245.962 495> 379.001 129.999<-430 -276.998> 615.001 114.999<135.278 495> 622.001 125.999<-430 -70.2778>
AnchorPoint: "Numeral" 436 48 basechar 0
AnchorPoint: "Yerok" 683 699 basechar 0
AnchorPoint: "Diacritic" 441 699 basechar 0
LayerCount: 2
Fore
SplineSet
259 495 m 1xd8
 255 203 l 1
 259 152 266 118 287 84 c 0
 302 59 327 30 352 9 c 2
 388 -21 l 2
 410 -40 430 -59 445 -87 c 1
 477 -202 494 -306 509 -430 c 1
 534 -430 l 1
 534 -455 l 1
 58 -455 l 1
 58 -430 l 1
 113 -430 l 1xe8
 139 495 l 1
 85 495 l 1
 85 520 l 1
 315 520 l 1
 315 495 l 1
 259 495 l 1xd8
567 -455 m 1
 567 -430 l 1
 622.001 -430 l 1xca
 615.001 495 l 1
 560 495 l 1
 560 520 l 1
 785 520 l 1
 785 495 l 1
 730 495 l 1xcc
 748 -430 l 1xca
 804 -430 l 1
 804 -455 l 1
 567 -455 l 1
311 6 m 1
 285 41 l 2
 272 57 262 75 253 94 c 1xd8
 245 -430 l 1xe8
 379.001 -430 l 1
 374.001 -317 357 -190 336 -89 c 0
 328 -51 320 -19 311 6 c 1
EndSplineSet
EndChar

StartChar: uni044B
Encoding: 1099 1099 75
Width: 529
Flags: HW
HStem: 0 30<154 205> 422 20G<189 215 469.5 493>
VStem: 53 101<30 172.703> 365.002 97.998<3.69519 419.462>
AnchorPoint: "Numeral" 278 240 basechar 0
AnchorPoint: "Diacritic" 275 642.998 basechar 0
AnchorPoint: "Yerok" 428 644 basechar 0
LayerCount: 2
Fore
SplineSet
53 9 m 1
 53 117 71 233 86 334 c 0
 91 368 96 397 101 420 c 1
 136 433 168 442 210 442 c 1
 215 436.998 l 1
 197 391.998 185 358 176 301 c 0
 171 268 164 235 164 204 c 1
 196 219 215 225 245 234 c 0
 249 235 251 235 252 232 c 0
 277 164 298 80 309 0 c 1
 53 0 l 1
 53 9 l 1
463 237 m 1
 463 147 472 79 482 0 c 1
 464 -2 446 -3 427 -3 c 0
 408 -3 391 -2 376 0 c 1
 376 72 365.002 151 365.002 235 c 0
 365.002 306 367 367.999 382 421.999 c 1
 412 432.999 450 445 489 445 c 1
 493 436.998 l 1
 484 421.998 476 406 473 385 c 2
 468 344 l 2
 464 322 463 301 463 276 c 2
 463 237 l 1
162 175 m 1
 157 126 154 77 154 30 c 1
 205 30 l 1
 204 36 202 44 200 54 c 2
 194 88 l 2
 191 99 189 110 186 121 c 2
 179 148 l 1
 174 162 l 2
 171 167 167 172 162 175 c 1
EndSplineSet
EndChar

StartChar: uni042C
Encoding: 1068 1068 76
Width: 633
Flags: HW
HStem: -455 25<75 130 262 396 524.588 551> 495 25<102 156 276 332>
VStem: 130 132<-430 -180.962> 156 120<245.962 495> 396 130<-430 -276.998>
AnchorPoint: "Numeral" 336 48 basechar 0
AnchorPoint: "Yerok" 423 699 basechar 0
AnchorPoint: "Diacritic" 321 699 basechar 0
LayerCount: 2
Fore
SplineSet
276 495 m 1xd8
 276 203 l 1xd8
 280 152 283 118 304 84 c 0
 319 59 344 30 369 9 c 2
 405 -21 l 2
 427 -40 447 -59 462 -87 c 1
 494 -202 511 -306 526 -430 c 1
 551 -430 l 1
 551 -455 l 1
 75 -455 l 1
 75 -430 l 1
 130 -430 l 1xe8
 156 495 l 1
 102 495 l 1
 102 520 l 1
 332 520 l 1
 332 495 l 1
 276 495 l 1xd8
328 6 m 1
 302 41 l 2
 289 57 279 75 270 94 c 1
 262 -430 l 1xe8
 396 -430 l 1
 391 -317 374 -190 353 -89 c 0
 345 -51 337 -19 328 6 c 1
EndSplineSet
EndChar

StartChar: uni044C
Encoding: 1100 1100 77
Width: 370
Flags: HW
HStem: 0 30<159 218> 422 20G<197 223>
VStem: 56 103<30 192.42>
AnchorPoint: "Numeral" 208 240 basechar 0
AnchorPoint: "Diacritic" 158 642.998 basechar 0
AnchorPoint: "Yerok" 278 644 basechar 0
LayerCount: 2
Fore
SplineSet
56 10 m 1
 61 117 74 233 89 334 c 0
 94 369 99 397 104 420 c 1
 138 433 176 440 218 442 c 1
 223 436.998 l 1
 205 392.998 189 355 181 301 c 0
 177 275 174 251 171 225 c 1
 189 232 202 237 210 240 c 0
 227 244 241 248 252 252 c 0
 256 253 258 253 259 250 c 0
 279 195 298 125 312 62 c 0
 316 39 320 19 323 0 c 1
 56 0 l 1
 56 10 l 1
185 166 m 1
 179 181 l 2
 176 187 173 192 168 195 c 1
 162 140 161 83 159 30 c 1
 218 30 l 1
 212 58 l 2
 209 70 206 83 203 97 c 0
 197 120 191 143 185 166 c 1
EndSplineSet
EndChar

StartChar: uni042D
Encoding: 1069 1069 78
Width: 916
Flags: HW
HStem: -465.002 22.002<412.209 515.311> -383.002 59.002<157.5 268.672> 503 40<412.756 588.185>
VStem: 68 120<-466.486 -414.35> 703.995 150.005<-174.128 84 103.359 265.258>
AnchorPoint: "Numeral" 476 48 basechar 0
AnchorPoint: "Yerok" 783 699 basechar 0
AnchorPoint: "Diacritic" 591 699 basechar 0
LayerCount: 2
Fore
SplineSet
68 -479 m 1
 61 -458 60 -442 60 -413 c 0
 60 -372 92 -346 122 -333 c 0
 135 -327 150 -324 165 -324 c 0
 223 -324 248 -333 280 -352 c 0
 295 -361 310 -370 324 -380 c 0
 354 -400 375 -416 412 -432 c 0
 429 -439 442 -443 453 -443 c 2
 456 -443 l 2
 508 -443 557 -419 602 -372 c 0
 662 -309 703.995 -234 703.995 -146 c 1
 703.995 48 l 1
 703.995 84 l 1
 697.995 78 691 72 683 67 c 2
 568 -10 l 1
 557 -14 548 -8 540 -3 c 0
 528 6 507 30 499 46 c 0
 493 59 491 61 489 75 c 1
 446 47 l 2
 431 37 436 39 421 26 c 0
 413 18 408 11 404 4 c 1
 396 6 383 14 382 22 c 1
 395 42 408 55 430 70 c 2
 566 163 l 1
 575 159 583 152 589 143 c 0
 599 127 610 111 621 95 c 1
 628 82 632 78 640 72 c 1
 662 88 685.995 103 703.995 124 c 1
 703.995 125 l 1
 703.995 194 701 249 694 292 c 0
 676 408 629 477 554 498 c 1
 547 501 530 503 505 503 c 0
 472 503 441 496 412 483 c 0
 391 473 376 456 369 432 c 0
 367 425 358 415 343 415 c 0
 343 415 342 415 341 415 c 0
 331 415 326 420 326 430 c 0
 326 434 327 440 329 446 c 0
 341 483 391 521 434 532 c 0
 463 540 488 543 513 543 c 0
 546 543 579 537 621 529 c 0
 726 508 798 415 836 250 c 0
 848 197 854 129 854 45 c 2
 854 20 l 2
 854 -81 842 -159 819 -213 c 0
 789 -282 753 -334 712 -370 c 0
 663 -412 617 -438 572 -449 c 0
 527 -460 492 -465.002 467 -465.002 c 0
 413 -465.002 386 -454 351 -429 c 0
 334 -417 318 -406 302 -396 c 0
 287 -387 273 -383.002 258 -383.002 c 0
 220 -383.002 199 -404 193 -435 c 0
 191 -444 189 -453 188 -462 c 1
 180 -464 105 -479 77 -479 c 2
 68 -479 l 1
EndSplineSet
EndChar

StartChar: uni044D
Encoding: 1101 1101 79
Width: 514
Flags: HW
HStem: 400.993 42.007<239.919 306.859>
VStem: 366.999 101.001<179.75 288.674>
AnchorPoint: "Numeral" 238 240 basechar 0
AnchorPoint: "Diacritic" 275 642.998 basechar 0
AnchorPoint: "Yerok" 395 644 basechar 0
LayerCount: 2
Fore
SplineSet
253 -104 m 1
 289 -57 328 23 348 92 c 1
 354 116 359 137 362 156 c 1
 268 84 l 1
 258 81 247 85 239 90 c 0
 228 96 203 122 195 137 c 2
 188 151 l 2
 186 155 185 160 184 165 c 1
 143 134 l 2
 130 123 128 122 119 111 c 2
 109 99 l 2
 106 95 104 92 103 89 c 1
 95 89 82 97 80 105 c 1
 89 125 108 144 125 156 c 1
 255 257 l 1
 265 254 273 247 279 238 c 0
 291 223 302 207 314 192 c 0
 324 179 323 178 334 171 c 1
 360 191 l 2
 362 192 363.999 194 366.999 197 c 1
 366.999 209 l 2
 366.999 268 353 327 332 367 c 0
 325 382 316 393.993 307 400.993 c 1
 304 401.993 300 400.993 295 400.993 c 0
 242 400.993 214 353 193 320 c 0
 192 320 191 321 188 322 c 2
 67 366 l 1
 66 368 66 370 66 373 c 0
 66 382 72 391 77 394 c 1
 103 384 l 1
 114 394 125 404 136 414 c 1
 148 423 160 432 172 442 c 1
 181 443 189 443 197 443 c 2
 220 443 l 2
 278 443 314 434 351 408 c 0
 419 358 468 287 468 175 c 0
 468 107 449 35 430 -10 c 0
 408 -60 374 -114 339 -153 c 1
 294 -147 261 -142 227 -125 c 1
 181 -104 157 -90 124 -57 c 1
 124 -46 135 -35 145 -35 c 1
 175 -65 197 -78 238 -98 c 1
 253 -104 l 1
EndSplineSet
EndChar

StartChar: uni042E
Encoding: 1070 1070 80
Width: 1030
Flags: HW
HStem: -465 24<627.998 711.017> -455 25<75 156 262 317> 20 25<270 411> 494.997 25.003<102 156 276 332> 504.996 24.004<628.237 710.044>
VStem: 156 114<45 494.997> 156 113<-430 20> 156 106<-430 20> 411 126<-186.359 20 45 247.125> 801 126<-183.25 245.053>
AnchorPoint: "Numeral" 536 48 basechar 0
AnchorPoint: "Yerok" 853 699 basechar 0
AnchorPoint: "Diacritic" 471 699 basechar 0
LayerCount: 2
Fore
SplineSet
75 -455 m 1x61c0
 75 -430 l 1
 156 -430 l 1x62c0
 156 494.997 l 1
 102 494.997 l 1
 102 520 l 1
 332 520 l 1
 332 494.997 l 1
 276 494.997 l 1x74c0
 270 45 l 1
 411 45 l 1
 411 186 438 310 486 399 c 0
 522 466 579 529 669 529 c 0x2cc0
 706 529 741 517.997 772 494.997 c 0
 843 442.997 885 348 907 240 c 0
 920 179 927 109 927 32 c 0
 927 -114 903 -241 853 -332 c 0
 830 -376 803 -408 772 -431 c 0
 741 -454 706 -465 669 -465 c 0
 579 -465 522 -402 486 -336 c 0
 438 -247 411 -121 411 20 c 1
 269 20 l 1xb2c0
 262 -430 l 1
 317 -430 l 1
 317 -455 l 1
 75 -455 l 1x61c0
801 32 m 0
 801 138 798 250 783 341 c 0
 773 399 755 452 723 483 c 0
 708 498 690 504.996 669 504.996 c 0
 619 504.996 594 465 578 425 c 0
 537 327 537 177 537 40 c 0
 537 32 l 0
 537 -74 540 -186 555 -277 c 0
 565 -335 583 -388 615 -420 c 0
 630 -434 648 -441 669 -441 c 0xa8c0
 719 -441 744 -401 760 -362 c 0
 801 -263 801 -113 801 24 c 0
 801 32 l 0
EndSplineSet
EndChar

StartChar: uni044E
Encoding: 1102 1102 81
Width: 483
Flags: HW
HStem: 425 20G<197.5 212 371.5 374.5>
VStem: 53.001 104.999<-1.88599 237.577> 269.002 54.998<149.756 253.213> 378.001 49.999<151.134 266.67>
AnchorPoint: "Numeral" 238 240 basechar 0
AnchorPoint: "Diacritic" 272 642.998 basechar 0
AnchorPoint: "Yerok" 392 644 basechar 0
LayerCount: 2
Fore
SplineSet
158 128 m 0
 158 86 163 34 163 0 c 1
 147 -2 129 -3 110 -3 c 0
 90 -3 70.001 -2 53.001 0 c 1
 53.001 13 53.001 26 53.001 40 c 0
 53.001 169 67 309 92 420 c 1
 117 432 152 441 185 444 c 0
 191 445 195 445 200 445 c 0
 202 445 205 445 207 445 c 1
 212 436.998 l 1
 207 429 l 1
 186 395 176 346 169 296 c 2
 165 269 l 1
 276 286 l 1
 287 337 310 385 339 420 c 0
 348 430 356 438 364 444 c 0
 367 446 370 448 373 448 c 0
 376 448 379 446 381 444 c 0
 412 407 428 325 428 260 c 0
 428 249 428 238 428 227 c 0
 428 225 428 223 428 221 c 0
 428 215 427 208 427 198 c 0
 427 130 398 74 371 34 c 0
 352 7 343 -6 342 -7 c 0
 340 -10 337 -12 332 -12 c 0
 329 -12 326 -10 324 -7 c 0
 300 33 269.002 126 269.002 204 c 0
 269.002 222 272 239 272 254 c 1
 161 238 l 1
 160 229 160 219 160 210 c 0
 160 193 158 149 158 128 c 0
375 267 m 1
 366 271 358 273 353 273 c 0
 348 273 340 271 331 266 c 1
 325 254 324 229 324 210 c 0
 324 189 327 165 331 149 c 1
 337 146 342 143 348 143 c 0
 356 143 360 146 367 150 c 1
 374 174 378.001 210 378.001 241 c 0
 378.001 251 377 260 375 267 c 1
EndSplineSet
EndChar

StartChar: uni042F
Encoding: 1071 1071 82
Width: 633
Flags: HW
HStem: -455 25<76 101.838 231 256 314 365.003 497 552> 508 22<259.102 344.854>
VStem: 109 107<324.253 475.102> 365.003 131.997<-430 -165.684> 388.042 118.958<244.322 428.992>
AnchorPoint: "Numeral" 296 48 basechar 0
AnchorPoint: "Yerok" 443 699 basechar 0
AnchorPoint: "Diacritic" 321 699 basechar 0
LayerCount: 2
Fore
SplineSet
314 -455 m 1xf0
 314 -430 l 1
 365.003 -430 l 1xf0
 377 23 l 1
 368 6 354 -13 334 -35 c 0
 316 -56 308 -58 292 -73 c 1
 275 -123 262 -194 252 -254 c 0
 248 -277 233 -391 231 -430 c 1
 256 -430 l 1
 256 -455 l 1
 76 -455 l 1
 76 -430 l 1
 100 -430 l 1
 103 -410 112 -365 125 -295 c 0
 134 -250 145 -203 158 -155 c 1
 165 -146 172 -139 177 -134 c 2
 197 -114 l 2
 205 -106 213 -99 221 -94 c 0
 290 -51 359 5 379 97 c 1
 381 177 l 1
 381 178 l 1
 375 207 360 232 337 253 c 0
 322 266 309 272 274 279 c 0
 261 282 248 283 236 284 c 0
 210 284 164 296 147 309 c 0
 120 332 109 347 109 385 c 0
 109 390 110 396 110 402 c 0
 110 430 121 465 135 481 c 0
 166 516 211 530 270 530 c 1
 318 530 l 2
 404 530 451 490 486 429 c 0
 501 404 507 376 507 343 c 1xe8
 497 -430 l 1
 552 -430 l 1
 552 -455 l 1
 314 -455 l 1xf0
383 241 m 1
 385 312 388.042 375 388.042 431 c 0xe8
 388.042 453 381.003 471 365.003 484 c 1
 347.003 500 323 508 296 508 c 0
 240 508 216 453 216 398 c 0
 216 382 219 363 226 341 c 0
 232 322 250 309 280 302 c 0
 315 294 329 292 354 272 c 0
 363 265 373 254 383 241 c 1
EndSplineSet
EndChar

StartChar: uni044F
Encoding: 1103 1103 83
Width: 407
Flags: HW
HStem: 406.999 29.999<188 258.808>
VStem: 259.002 99.998<0 258.435 293 406.999>
AnchorPoint: "Numeral" 238 240 basechar 0
AnchorPoint: "Diacritic" 242 642.998 basechar 0
AnchorPoint: "Yerok" 312 644 basechar 0
LayerCount: 2
Fore
SplineSet
360 144 m 1
 360 96 356 43 356 -0 c 1
 259.002 -0 l 1
 259.002 30 l 1
 259.002 80 l 1
 259.002 124 l 2
 259.002 134 255 193 255 210 c 0
 255 231 249 247 241 259 c 1
 238 261 l 1
 229 255 l 1
 225 251 221 245 217 238 c 2
 203 210 l 2
 196 197 192 186 189 178 c 2
 180 152 l 2
 175 138 155 56 150 30 c 1
 146 0 l 1
 42 -0 l 1
 56 80 80 164 106 231 c 0
 115 253 122 268 129 276 c 1
 222 276 l 1
 230 281 l 1
 227 290 224 297 221 302 c 2
 210 321 l 2
 203 333 196 343 190 351 c 2
 166 382 l 2
 152 400 138 416 123 427 c 0
 115 433 130 436.998 135 436.998 c 2
 356 436.998 l 1
 358 417.998 359 401 359 386 c 2
 359 314 l 1
 359 287 360 259 360 230 c 2
 360 144 l 1
188 406.999 m 1
 206 387.999 223 363 237 339 c 1
 246 325 254.002 310 259.002 293 c 1
 259.002 362 l 2
 259.002 383 259 397.999 258 406.999 c 1
 188 406.999 l 1
EndSplineSet
EndChar

StartChar: uni0460
Encoding: 1120 1120 84
Width: 1062
Flags: HW
VStem: 65 147<-10.0125 359.588> 446.006 143.994<-60.7776 434.16> 869.005 105.995<-29.4434 309.372>
AnchorPoint: "Numeral" 516 48 basechar 0
AnchorPoint: "Yerok" 823 699 basechar 0
AnchorPoint: "Diacritic" 561 699 basechar 0
LayerCount: 2
Fore
SplineSet
746 520 m 0
 746 524 751 535 754 535 c 0
 769 535 794 538 828 538 c 0
 861 538 887 545 907 553 c 0
 907 553 908 553 909 553 c 0
 915 553 927 541 927 536 c 0
 927 517 932 489 941 452 c 0
 970 336 975 359 975 234 c 0
 975 218 977 201 977 183 c 0
 977 165 975 146 975 126 c 0
 975 81 965 27 952 -37 c 0
 928 -160 879 -256 814 -350 c 0
 781 -397 743 -438 698 -471 c 1
 654 -428 l 1
 604 -366 l 1
 575 -325 547 -283 520 -240 c 1
 509 -219 l 1
 497 -245 481 -269 462 -290 c 0
 426 -330 405 -353 400 -358 c 0
 377 -384 350 -409 319 -432 c 0
 298 -447 282 -458 269 -466 c 1
 259 -471 l 1
 245 -471 219 -431 180 -350 c 0
 152 -291 132 -240 120 -196 c 0
 85 -67 65 34 65 171 c 0
 65 201 68 233 68 268 c 0
 68 328 91 415 109 458 c 0
 123 492 135 528 146 545 c 1
 313 545 l 2
 322 545 326 540 326 531 c 0
 326 523 321 517 312 512 c 1
 278 466 l 1
 246 394 l 2
 231 361 214 290 214 234 c 0
 214 224 212 210 212 194 c 0
 212 169 216 138 216 100 c 0
 216 41 251 -82 262 -119 c 0
 275 -162 287 -197 298 -226 c 0
 321 -283 338 -314 351 -314 c 1
 352 -314 l 2
 352.188 -314.021 352.382 -314.031 352.584 -314.031 c 0
 362.05 -314.031 386.855 -291.062 427 -247 c 0
 469 -201 490 -173 490 -162 c 2
 490 -161 l 1
 472 -84 l 2
 462 -45 446.006 84 446.006 139 c 2
 446.006 230 l 1
 446.006 263 450 296 453 328 c 2
 464 436.998 l 2
 469 476.998 474 523 481 549 c 1
 637 549 l 1
 601 416 590 303 590 146 c 0
 590 -15 615 -134 674 -232 c 0
 707 -287 734 -315 755 -315 c 0
 757 -315 759 -315 760 -314 c 0
 795 -296 823 -235 842 -132 c 0
 860 -34 869.005 56 869.005 138 c 0
 869.005 141 865 182 857 262 c 0
 853 307 820 401 795 444 c 0
 774 481 761 500 754 503 c 0
 749 505 746 510 746 520 c 0
EndSplineSet
EndChar

StartChar: uni0461
Encoding: 1121 1121 85
Width: 675
Flags: HW
HStem: 429 16G<168 192 365 391 588.5 604>
VStem: 56.999 101.001<201.028 400.53> 271.001 99.999<231.125 411.919> 534 95<191.645 374.98>
AnchorPoint: "Numeral" 338 240 basechar 0
AnchorPoint: "Diacritic" 345 642.998 basechar 0
AnchorPoint: "Yerok" 555 644 basechar 0
LayerCount: 2
Fore
SplineSet
483 86 m 1
 514 122 534 175 534 244 c 0
 534 298 526 334 512 376 c 0
 510 382 508 387 505 391 c 1
 500 395 494 399 490 403 c 1
 490 412 l 1
 506 428 540 438 566 444 c 0
 576 447 585 448 592 449 c 1
 616 428 629 373 629 328 c 0
 629 231 609 178 565 117 c 0
 533 72 493 22 456 -8 c 0
 453 -10 451 -10 449 -10 c 0
 447 -10 445 -10 443 -8 c 1
 399 12 361 63 335 110 c 1
 328 103 320 97 312 91 c 0
 266 56 227 24 177 -8 c 0
 175 -9 174 -10 172 -10 c 0
 171 -10 169 -9 168 -8 c 0
 114 44 81 135 65 226 c 0
 60 258 56.999 290 56.999 322 c 0
 56.999 357 66 391 80 413 c 1
 106 430 149 442 187 445 c 1
 192 438 l 1
 184 424 170 405 163 391 c 1
 160 373 158 356 158 335 c 0
 158 252 184 178 212 121 c 0
 221 102 230 86 239 73 c 1
 257 86 280 103 296 117 c 2
 320 138 l 1
 294 192 271.001 258 271.001 333 c 0
 271.001 363 276 390 283 413 c 1
 302 429 335 439 365 442 c 2
 386 445 l 1
 391 438 l 1
 384 425 380 408 373 395 c 1
 372 390 371 384 371 378 c 2
 371 359 l 2
 371 267 403 186 442 131 c 0
 455 112 469 97 483 86 c 1
EndSplineSet
EndChar

StartChar: uni0462
Encoding: 1122 1122 86
Width: 779
Flags: HW
HStem: -455.001 25.001<221 276 408 542 670.588 697> 384.999 25.001<195.219 299 422 530.781> 495 25<248 302 422 478>
VStem: 276 132<-430 -181.957> 299 122<243.26 384.999 410 495> 542 130<-430 -276.998>
AnchorPoint: "Numeral" 336 48 basechar 0
AnchorPoint: "Yerok" 562 699 basechar 0
AnchorPoint: "Diacritic" 370 699 basechar 0
LayerCount: 2
Fore
SplineSet
704 404 m 0xec
 704 402 704 400 704 399 c 0
 704 397 704 396 703 395 c 0
 640 327 602 267 562 184 c 1
 551 184 l 1
 548 218 546 255 542 289 c 2
 535 340 l 2
 533 357 531 371.999 529 384.999 c 1
 421 384.999 l 1
 421 203 l 1xec
 425 152 429 118 450 84 c 0
 465 59 490 30 515 9 c 2
 551 -21 l 2
 573 -40 593 -59 608 -87 c 1
 640 -202 657 -306 672 -430 c 1
 697 -430 l 1
 697 -455.001 l 1
 221 -455.001 l 1
 221 -430 l 1
 276 -430 l 1xf4
 299 384.999 l 1
 197 384.999 l 1
 195 371.999 193 357 191 340 c 2
 185 289 l 2
 181 255 178 218 175 184 c 1
 164 184 l 1
 124 267 86 327 23 395 c 0
 21 397 20 399 20 401 c 0
 20 402 21 403 21 404 c 0
 21 406 22 408 23 410 c 1
 299 410 l 1
 302 495 l 1
 248 495 l 1
 248 520 l 1
 478 520 l 1
 478 495 l 1
 422 495 l 1
 422 410 l 1
 703 410 l 1
 703 408 703 406 704 404 c 0xec
474 6 m 1
 448 40 l 2
 435 56 425 74 416 94 c 1
 408 -430 l 1xf4
 542 -430 l 1
 537 -317 520 -190 499 -89 c 0
 491 -51 483 -19 474 6 c 1
EndSplineSet
EndChar

StartChar: uni0463
Encoding: 1123 1123 87
Width: 590
Flags: HW
HStem: 0 30<329 381> 407.004 29.994<38.2159 63.8629 154 275 376 450.171>
VStem: 58 99<194.938 407.004> 281.001 94.999<436.998 532.872>
AnchorPoint: "Numeral" 298 240 basechar 0
AnchorPoint: "Diacritic" 193 642.998 basechar 0
AnchorPoint: "Yerok" 493 644 basechar 0
LayerCount: 2
Fore
SplineSet
455 351 m 0
 455 376 453 398.004 440 407.004 c 1
 371 407.004 l 1
 357 339.004 348 269 341 198 c 1
 362 208 396 220 420 227 c 0
 424 228 426 228 427 225 c 0
 451 158 474 79 485 0 c 1
 229 0 l 1
 237 144 249 268.004 275 407.004 c 1
 154 407.004 l 1
 154 388.004 157 366 157 343 c 1
 157 272 l 1
 157 204 l 1
 132 192 93 179 62 173 c 1
 55 176 l 1
 56 183 58 194 58 208 c 1
 58 247 l 1
 58 288 64 333 64 374 c 0
 64 387 64 398.004 63 407.004 c 1
 44 407.004 l 1
 40 410.004 38 415 38 419 c 0
 38 426 41 432.998 46 436.998 c 1
 281.001 436.998 l 1
 313.001 596.998 352 744 402 876 c 1
 428 884 481 893 512 893 c 1
 517 885 l 1
 455 755 408 597.998 376 436.998 c 1
 583 436.998 l 2
 586 436.998 588 434 588 431 c 0
 588 429 587 426 586 425 c 2
 553 390 l 2
 530 367 508 341 490 316 c 0
 481 303 474 292 469 282 c 0
 468 280 465 279 462 279 c 0
 458 279 456 280 456 282 c 0
 455 287 455 293 455 301 c 0
 455 318 455 334 455 351 c 0
337 164 m 1
 337 119 329 73 329 30 c 1
 381 30 l 1
 377 46 374 67 370 84 c 2
 363 115 l 2
 358 135 357 160 337 164 c 1
EndSplineSet
AlternateSubs2: "'salt' Stylistic Alternatives lookup 2-1" uni0463.salt
EndChar

StartChar: uni0464
Encoding: 1124 1124 88
Width: 1017
Flags: HW
HStem: -454.005 25.005<62 116.993 249 304 583.458 683.054> -196 25<712 758.994 871.974 922> -40.0039 25.0039<712 761 877.182 922> 20.9951 25.0049<257 376> 67.9961 57.0039<626.604 722.917> 246.993 25.007<712 758.994 872.249 922> 495.995 24.005<89 143 263 319> 511.993 24.007<591.983 674.132>
VStem: 116.993 132.007<-429 -180.03> 143 120<247.025 495.995> 376 126<-174.099 -55.2459 -40.0039 20.9951 46 254.125> 758.994 116.006<-265.763 -196 -15 32.2473 272 340.441>
AnchorPoint: "Numeral" 456 48 basechar 0
AnchorPoint: "Yerok" 823 699 basechar 0
AnchorPoint: "Diacritic" 631 699 basechar 0
LayerCount: 2
Fore
SplineSet
376 20.9951 m 1xfd70
 256 20.9951 l 1
 249 -429 l 1
 304 -429 l 1
 304 -454.005 l 1
 62 -454.005 l 1
 62 -429 l 1
 116.993 -429 l 1xfdb0
 143 495.995 l 1
 89 495.995 l 1
 89 520 l 1
 319 520 l 1
 319 495.995 l 1
 263 495.995 l 1xfe70
 257 46 l 1
 376 46 l 1
 377 188 401 313 449 403 c 0
 472 446 500 479 531 502 c 0
 562 525 597 536 634 536 c 0
 698 536 745 504 779 467 c 0
 825 418 856 350 875 272 c 1
 922 272 l 1
 922 246.993 l 1
 712 246.993 l 1
 712 272 l 1
 758.994 272 l 1
 749.994 358 734 448 685 492 c 0
 671 505 654 511.993 634 511.993 c 0
 584 511.993 559 472 543 432 c 0
 502 334 502 184 502 47 c 0
 502 39 l 2
 502 -40.0039 l 1
 515 -10.0039 537 29 562 54 c 0
 586 79 617 102 652 115 c 0
 669 122 686 125 703 125 c 0
 774 125 827 98 860 44 c 0
 870 26 876 9 879 -15 c 1
 922 -15 l 1
 922 -40.0039 l 1
 712 -40.0039 l 1
 712 -15 l 1
 761 -15 l 1
 752 19 731 46 702 60 c 0
 693 65 683 67.9961 672 67.9961 c 0
 627 67.9961 589 47.9951 568 20.9951 c 0
 536 -22.0049 515 -63 505 -121 c 1
 510 -230 521 -347 574 -408 c 0
 590 -425 610 -434 634 -434 c 0
 681 -434 705 -399 720 -364 c 0
 741 -318 752.994 -256 758.994 -196 c 1
 712 -196 l 1
 712 -171 l 1
 922 -171 l 1
 922 -196 l 1
 875 -196 l 1
 854 -280 822 -345 779 -390 c 0
 736 -435 687 -458 634 -458 c 0
 597 -458 562 -447 531 -424 c 0
 460 -373 418 -278 396 -169 c 0
 384 -112 377 -49.0049 376 20.9951 c 1xfd70
EndSplineSet
EndChar

StartChar: uni0465
Encoding: 1125 1125 89
Width: 491
Flags: HW
HStem: 426 20G<432 440>
VStem: 53 105<-1.88599 237.577> 257 92<247 252 284 327.035>
AnchorPoint: "Numeral" 238 240 basechar 0
AnchorPoint: "Diacritic" 275 642.998 basechar 0
AnchorPoint: "Yerok" 395 644 basechar 0
LayerCount: 2
Fore
SplineSet
355 173 m 1
 358 151 362 125 366 108 c 1
 380 111 400 118 411 124 c 0
 414 125 415 124 415 121 c 0
 415 118 415 115 415 112 c 0
 415 92 411 60 407 46 c 1
 386 29 355 16 328 5 c 2
 309 -3 l 1
 306 -4 304 -5 302 -5 c 0
 288 -5 282 21 279 34 c 0
 268 87 261 151 257 214 c 0
 257 221 257 227 257 234 c 0
 257 240 257 246 257 252 c 1
 161 238 l 1
 160 229 160 219 160 209 c 0
 160 184 158 153 158 128 c 0
 158 85 163 36 163 0 c 1
 147 -2 129 -3 110 -3 c 0
 90 -3 71 -2 54 0 c 1
 54 12 53 26 53 40 c 0
 53 164 68 314 92 420 c 1
 117 432 152 441 185 444 c 0
 194 445 202 446 207 445 c 1
 212 436.998 l 1
 191 401.998 177 347 169 296 c 2
 165 269 l 1
 260 284 l 1
 271 354 322 404 388 431 c 0
 408 439 425 444 439 446 c 1
 441 438 442 428 442 417 c 0
 442 396 438 370 435 356 c 1
 400 347 376 333 352 318 c 1
 349 308 348 290 348 275 c 0
 348 266 349 257 349 247 c 1
 375 257 403 270 425 286 c 0
 428 287 430 286 430 283 c 0
 430 280 430 276 430 273 c 0
 430 255 427 225 425 212 c 1
 404 195 381 183 355 173 c 1
EndSplineSet
EndChar

StartChar: uni0466
Encoding: 1126 1126 90
Width: 907
Flags: HW
HStem: -455 23<49 105.734 239 291 345 400 532 587 649 704 843 899> 43 24<325.214 372.881 556.327 595.713> 496 24<342 398.806 516 571>
VStem: 400 132<-432 16.9286> 704 139<-432 -213.236>
AnchorPoint: "Numeral" 466 48 basechar 0
AnchorPoint: "Yerok" 653 699 basechar 0
AnchorPoint: "Diacritic" 461 699 basechar 0
LayerCount: 2
Fore
SplineSet
704 -432 m 1
 704 -410 704 -388 704 -366 c 0
 704 -301 691 -219 682 -175 c 0
 663 -85 643 -33 610 38 c 1
 603 41 597 43 590 43 c 2
 574 43 l 2
 569 43 563 42 556 39 c 1
 533 14 532 -41 532 -91 c 0
 532 -98 532 -105 532 -112 c 2
 532 -432 l 1
 587 -432 l 1
 587 -455 l 1
 345 -455 l 1
 345 -432 l 1
 400 -432 l 1
 400 -112 l 2
 400 -55 397 10 370 40 c 1
 360 43 353 45 341 45 c 0
 330 45 320 41 314 36 c 1
 275 -70 254 -184 246 -317 c 0
 243 -355 241 -393 239 -432 c 1
 291 -432 l 1
 291 -455 l 1
 49 -455 l 1
 49 -432 l 1
 105 -432 l 1
 120 -228 177 -60 260 68 c 0
 311 145 358 241 392 334 c 0
 403 362 410 389 415 412 c 1
 407 441 401 469 397 496 c 1
 342 496 l 1
 342 520 l 1
 571 520 l 1
 571 496 l 1
 516 496 l 1
 538 413 561 363 604 300 c 0
 704 150 786 -14 824 -223 c 0
 836 -289 842 -359 843 -432 c 1
 899 -432 l 1
 899 -455 l 1
 649 -455 l 1
 649 -432 l 1
 704 -432 l 1
341 69 m 0
 393 69 438 46 462 18 c 1
 470 18 l 1
 494 42 530 67 587 67 c 0
 590 67 593 66 596 66 c 1
 567 121 537 170 502 223 c 0
 472 267 448 318 428 371 c 1
 409 289 373 200 345 122 c 0
 339 103 332 85 325 66 c 1
 330 68 335 69 341 69 c 0
EndSplineSet
EndChar

StartChar: uni0467
Encoding: 1127 1127 91
Width: 642
Flags: HW
HStem: 421 20G<238.5 257>
VStem: 34.002 92.998<-2.29614 74.9214> 253.999 100.001<0 206> 487 115<-2.90039 67.0391>
AnchorPoint: "Numeral" 298 240 basechar 0
AnchorPoint: "Diacritic" 305 642.998 basechar 0
AnchorPoint: "Yerok" 425 644 basechar 0
LayerCount: 2
Fore
SplineSet
311 -3 m 1
 304 -3 l 1
 253.999 -0 l 1
 253.999 213 l 1
 230 215 l 1
 229 212 227 210 225 208 c 2
 197 170 l 2
 172 137 152 103 138 59 c 0
 132 42 130 18 127 0 c 1
 113 -2 99 -3 85 -3 c 2
 62 -3 l 2
 57 -4 47.002 -3 34.002 -0 c 1
 37.002 43 52 74 75 103 c 0
 93 126 112 149 132 170 c 0
 176 219 228 271 262 326 c 0
 268 336 273 348 277 359 c 1
 266 376 256.999 388 253.999 395 c 0
 246.999 411 241 423 236 431 c 0
 233 435 237 441 240 441 c 0
 274 441 325 440.998 356 436.998 c 1
 373 400 l 2
 403 332 453 262 494 210 c 0
 516 184 535 157 554 130 c 0
 584 87 600 43 602 0 c 1
 587 -3 570 -4 550 -4 c 0
 548 -5 546 -5 544 -5 c 0
 525 -5 506 -3 487 0 c 1
 480 40 471 56 456 88 c 0
 444 111 432 132 420 149 c 2
 381 204 l 1
 354 206 l 1
 354 0 l 1
 311 -3 l 1
352 247 m 1
 340 263 330 277 322 289 c 2
 297 329 l 1
 295 324 293 319 291 315 c 0
 279 289 265 267 249 243 c 1
 359 236 l 1
 352 247 l 1
EndSplineSet
EndChar

StartChar: uni0468
Encoding: 1128 1128 92
Width: 1262
Flags: HW
HStem: -454.001 23.001<56 110.997 243 278 343 399.733 533 585 639 694 826 881 943 997.996 1137 1193> 45.999 24.001<619.365 665.933 868 889.759> 274.998 25.002<255 417.811 516.15 662> 495.998 24.002<83 137 257 313 636 695.219 810 865>
VStem: 110.997 132.003<-429 -179.991> 137 117<246.989 274.998 300 495.998> 398.999 134.001<-431 -276.133> 691 119<426.682 495.998> 694 132<-431 17.9286> 997.996 139.004<-431 -212.236>
AnchorPoint: "Numeral" 686 48 basechar 0
AnchorPoint: "Yerok" 943 699 basechar 0
AnchorPoint: "Diacritic" 751 699 basechar 0
LayerCount: 2
Fore
SplineSet
635 70 m 0xf240
 687 70 732 47 756 19 c 1
 764 19 l 1
 791 48 826 68 881 68 c 0
 884 68 887 67 890 67 c 1
 861 122 831 171 796 224 c 0
 766 268 742 319 722 372 c 1
 703 290 667 201 639 122 c 0
 633 104 626 86 619 67 c 1
 624 69 629 70 635 70 c 0xf240
467 340 m 0
 494 340 513 321 519 300 c 1
 673 300 l 1
 678 311 682 323 686 335 c 0
 701 376 709 401 709 412 c 2
 709 413 l 2
 709 438 703 464.998 691 495.998 c 1
 636 495.998 l 1
 636 520 l 1
 865 520 l 1
 865 495.998 l 1
 810 495.998 l 1xf740
 832 412.998 855 364 898 301 c 0
 998 151 1080 -13 1118 -222 c 0
 1130 -288 1136 -358 1137 -431 c 1
 1193 -431 l 1
 1193 -454.001 l 1
 943 -454.001 l 1
 943 -431 l 1
 997.996 -431 l 1
 997.996 -356 l 2
 997.996 -295 988 -236 976 -174 c 0
 963 -108 926 1 904 39 c 0
 902 42 895 45.999 884 45.999 c 2
 868 45.999 l 1
 850 40 l 1
 827 15 826 -40 826 -90 c 0
 826 -97 826 -104 826 -111 c 2
 826 -431 l 1
 881 -431 l 1
 881 -454.001 l 1
 639 -454.001 l 1
 639 -431 l 1
 694 -431 l 1
 694 -111 l 2
 694 -65 691 -20 679 14 c 0
 674 27 669 36 664 41 c 0
 662 43 642 45.999 635 45.999 c 0
 625 45.999 610 42 608 37 c 0
 566 -88 548 -171 539 -316 c 0
 537 -354 535 -392 533 -431 c 1
 585 -431 l 1
 585 -454.001 l 1
 343 -454.001 l 1
 343 -431 l 1
 398.999 -431 l 1
 413.999 -227 471 -59 554 69 c 0
 594 129 633 202.998 662 274.998 c 1
 520 274.998 l 1
 515 250.998 495 232 467 232 c 0
 439 232 419 250.998 414 274.998 c 1
 254 274.998 l 1xf6c0
 243 -429 l 1
 278 -429 l 1
 278 -454.001 l 1
 56 -454.001 l 1
 56 -429 l 1
 110.997 -429 l 1xfa40
 137 495.998 l 1xf640
 83 495.998 l 1
 83 520 l 1
 313 520 l 1
 313 495.998 l 1
 257 495.998 l 1
 255 300 l 1
 414 300 l 1
 420 321 440 340 467 340 c 0
EndSplineSet
EndChar

StartChar: uni0469
Encoding: 1129 1129 93
Width: 809
Flags: HW
HStem: 421 20G<154.5 173.5 390.5 409>
VStem: 42.5996 99.4004<-2.30341 241.616> 95 103<341.06 436.722> 186.002 92.998<-1.75644 74.9214> 406 100<0 206> 639 115<-2.90039 67.0391>
AnchorPoint: "Numeral" 348 240 basechar 0
AnchorPoint: "Diacritic" 455 642.998 basechar 0
AnchorPoint: "Yerok" 575 644 basechar 0
LayerCount: 2
Fore
SplineSet
511 236 m 1x8c
 501 254 489 269 478 286 c 2
 449 329 l 1
 447 324 445 319 443 315 c 0
 436 301 428 287 420 274 c 1
 401 243 l 1
 511 236 l 1x8c
754 0 m 1
 738 -3 718 -5 696 -5 c 0
 677 -5 658 -3 639 0 c 1
 632 40 623 56 608 88 c 0
 596 111 584 132 572 149 c 2
 533 204 l 1
 506 206 l 1
 506 0 l 1
 489 -2 473 -3 456 -3 c 2
 406 0 l 1
 406 213 l 1
 382 215 l 1
 381 212 379 210 377 208 c 0
 359 184 342 161 326 136 c 1
 306 100 l 1
 290 59 l 2
 284 42 282 18 279 0 c 1
 269 -1 245 -3 226 -3 c 0
 212 -3 198.002 -2 186.002 -0 c 1
 189.002 43 204 74 227 103 c 0
 245 126 264 149 284 170 c 0
 304 193 324 215 345 237 c 2
 366 260 l 1
 162 245 l 1
 152 173 142 88 142 13 c 0
 142 9 142 4 142 0 c 1
 124 -2 108 -4 90 -4 c 0
 73 -4 58.5996 -2 42.5996 0 c 1
 42.5996 6 42.5996 13 42.5996 21 c 0xdc
 42.5996 121 56 223 69 313 c 0
 75 355 83 402 95 433 c 1
 124 438 140 441 169 441 c 0
 178 441 187 441 198 440 c 1xac
 184 396 175 332 166 276 c 1
 392 294 l 1
 407 314 419 333 429 359 c 1
 414 382 401 406 388 431 c 0
 385 435 389 441 392 441 c 0
 426 441 477 440.998 508 436.998 c 1
 518 413.998 529 390 540 368 c 1
 558 336 l 1
 579 302 l 1
 624 236 664 192 706 130 c 0
 736 87 752 43 754 0 c 1
EndSplineSet
EndChar

StartChar: uni046A
Encoding: 1130 1130 94
Width: 911
Flags: HW
HStem: -455 25<61 109.844 246 289 328 383 515 570 605 658 792.881 843> 496 28<197 228.678 337 599 708.759 740>
VStem: 227 110<408.125 495.828> 383 132<-430 -169.6> 398 125<-132.4 128>
AnchorPoint: "Numeral" 466 48 basechar 0
AnchorPoint: "Yerok" 653 699 basechar 0
AnchorPoint: "Diacritic" 461 699 basechar 0
LayerCount: 2
Fore
SplineSet
462 218 m 1xe0
 481 233 503 253 527 278 c 0
 563 315 576 339 588 390 c 0
 592 403 598 455 598 464 c 0
 599 476 599 487 599 497 c 1
 338 497 l 1
 337 492 337 487 337 482 c 0
 337 466 340 449 342 431 c 0
 343 415 346 401 349 389 c 2
 359 354 l 1
 373 313 429 243 462 218 c 1xe0
256 -220 m 2
 256 -220 246 -406 246 -430 c 1
 289 -430 l 1
 289 -455 l 1
 61 -455 l 1
 61 -430 l 1
 109 -430 l 1
 111 -400 113 -377 115 -361 c 0
 131 -270 123 -299 144 -220 c 0
 164 -145 206 -64 243 -8 c 0
 253 7 267 25 285 45 c 0
 309 72 321 87 322 89 c 1
 377 144 l 1
 437 197 l 1
 435 199 410 221 362 262 c 0
 337 283 315 307 295 333 c 0
 249 396 239 416 227 496 c 1
 197 496 l 1
 197 524 l 1
 740 524 l 1
 740 496 l 1
 710 496 l 1
 709 477 704 452 694 421 c 0
 677 369 607 292 566 261 c 0
 521 227 495 207 487 201 c 1
 502 186 522 169 547 149 c 0
 613 99 691 -6 727 -94 c 0
 759 -172 764 -194 780 -282 c 0
 784 -303 791 -403 794 -430 c 1
 843 -430 l 1
 843 -455 l 1
 605 -455 l 1
 605 -430 l 1
 658 -430 l 1
 655 -331 656 -184 646 -110 c 0
 642 -76 628 -26 618 -7 c 0
 610 8 605 20 602 28 c 0
 600 32 587 54 561 92 c 0
 554 103 541 115 523 128 c 1xe8
 515 -430 l 1
 570 -430 l 1
 570 -455 l 1
 328 -455 l 1
 328 -430 l 1
 383 -430 l 1xf0
 398 128 l 1xe8
 391 122 385 116 379 110 c 0
 335 56 289 -21 271 -105 c 0
 264 -144 259 -183 256 -220 c 2
EndSplineSet
EndChar

StartChar: uni046B
Encoding: 1131 1131 95
Width: 674
Flags: HW
HStem: 406.996 30.002<272.001 406.001>
VStem: 273.001 99.999<0 245 317.386 352.268> 527 111<-2.35908 64.812>
AnchorPoint: "Numeral" 326 240 basechar 0
AnchorPoint: "Diacritic" 325 642.998 basechar 0
AnchorPoint: "Yerok" 445 644 basechar 0
LayerCount: 2
Fore
SplineSet
582 -4.00098 m 0
 571.836 -4.00098 527 -1.3751 527 -0.000976562 c 0
 518.333 40.666 500.333 81.333 473 122 c 0
 443 166.667 409.667 207.667 373 245 c 1
 373 0 l 1
 335 -3 l 1
 323.001 -3.00391 l 1
 273.001 -0.00390625 l 1
 273.001 262.996 l 1
 199.536 188.45 161.624 130.302 130.003 27.9961 c 1
 125.003 -0.00390625 l 2
 125.003 -2.00391 112.003 -3.00391 86.0029 -3.00391 c 2
 66.0029 -3.00391 l 2
 43.3359 -3.00391 32.0029 -2.00391 32.0029 -0.00390625 c 0
 32.0029 17.3291 41.0029 43.6621 59.0029 78.9951 c 0
 108.335 173.369 188.548 248.432 273.003 315.996 c 1
 273.003 335.996 l 1
 254.336 350.663 236.669 363.33 220.002 373.997 c 2
 170.002 407.997 l 1
 166.256 415.487 161.346 430.343 168.001 436.998 c 1
 500.001 436.998 l 1
 500.001 428.998 l 1
 476.327 414.672 452.657 400.342 429.001 385.998 c 1
 410.221 373.111 391.539 360.126 373.001 346.998 c 1
 373.001 334.998 l 1
 375.001 332.998 376.668 331.665 378.001 330.998 c 0
 464.542 258.88 554.621 179.233 607 83.999 c 0
 627.667 45.999 638 17.999 638 -0.000976562 c 0
 638 -1.4567 592.319 -4.00098 582 -4.00098 c 0
272.001 406.996 m 1
 282.792 401.12 291.991 393.653 302.001 386.996 c 2
 324.001 371.996 l 1
 333.335 371.996 342.001 372.662 350.001 373.996 c 1
 368.348 385.316 386.997 396.334 406.001 406.996 c 1
 272.001 406.996 l 1
EndSplineSet
EndChar

StartChar: uni046C
Encoding: 1132 1132 96
Width: 1171
Flags: HW
HStem: -455 25<55.999 110.999 242.999 277.999 321 369.844 506 549 587.999 642.999 774.999 829.999 865.001 918.001 1054 1103> 182 25<251.999 404.872 503.128 680.001> 496.998 27.002<82.999 136.999 256.999 312.999 456.999 488.785 597.213 858.999 969.999 999.999>
VStem: 110.999 132<-429 -179.961> 136.999 114<246.961 496> 486.999 110.205<409.156 495.825> 642.999 132<-430 -169.6> 657.999 125<-132.4 128> 857.999 112<408.409 496> 918.001 135.999<-430 -358>
AnchorPoint: "Numeral" 656 48 basechar 0
AnchorPoint: "Yerok" 913 699 basechar 0
AnchorPoint: "Diacritic" 721 699 basechar 0
LayerCount: 2
Fore
SplineSet
454 247 m 0xec
 480.582 247 499.801 228.074 505.999 207 c 1
 684.999 207 l 1
 621.999 262 l 2
 596.861 283.945 574.528 307.612 554.999 333 c 0
 528.999 369 511.999 398.333 503.999 421 c 0
 496.666 441.667 490.999 466.667 486.999 496 c 1
 456.999 496 l 1
 456.999 524 l 1
 999.999 524 l 1
 999.999 496 l 1
 969.999 496 l 1xec80
 969.332 476 963.999 451 953.999 421 c 0
 936.69 369.071 868.84 292.346 826.001 261 c 0
 778.001 225 751.668 205 747.001 201 c 1
 762.334 185.667 782.334 168.667 807.001 150 c 0
 852.666 113.848 893.212 64.1459 933.001 5 c 0
 955.001 -27.667 973.001 -60.667 987.001 -94 c 0
 1005.76 -138.552 1016.09 -166.552 1018 -178 c 0
 1018.67 -182 1026 -216.667 1040 -282 c 0
 1042.67 -294.667 1045.33 -320 1048 -358 c 2
 1054 -430 l 1
 1103 -430 l 1
 1103 -455 l 1
 865.001 -455 l 1
 865.001 -430 l 1
 918.001 -430 l 1
 916.706 -371.755 911.278 -183.898 910 -166 c 0
 906.256 -102.347 907.686 -97.6805 894.999 -56 c 0
 887.666 -30.667 881.999 -14.334 877.999 -7.00098 c 0
 869.332 9.66602 863.999 21.333 861.999 28 c 0
 860.666 32.667 846.999 54 820.999 92 c 0
 813.666 102.667 800.999 114.667 782.999 128 c 1xe540
 774.999 -430 l 1
 829.999 -430 l 1
 829.999 -455 l 1
 587.999 -455 l 1
 587.999 -430 l 1
 642.999 -430 l 1xe6
 657.999 128 l 1
 650.666 122.667 644.333 116.667 639 110 c 0
 596.284 56.9726 548.276 -20.539 531 -105.001 c 0
 521 -158.334 516 -196.667 516 -220 c 1
 516 -220 506 -408.465 506 -430 c 1
 549 -430 l 1
 549 -455 l 1
 321 -455 l 1
 321 -430 l 1
 369 -430 l 1
 371 -400 373 -377 375 -361 c 0
 390.445 -269.734 383.07 -298.89 404.001 -220 c 0
 424.852 -140.77 466.722 -62.4186 503.001 -8 c 0
 512.334 6 526.334 23.667 545.001 45 c 0
 569.001 72.333 581.334 87 582.001 89 c 2
 637.001 144 l 1
 680.001 182 l 1
 507.001 182 l 1
 502.002 158.257 481.974 139 454 139 c 0
 426.032 139 405.996 158.266 400.999 182 c 1
 250.999 182 l 1xed
 242.999 -429 l 1
 277.999 -429 l 1
 277.999 -454 l 1
 55.999 -454 l 1
 55.999 -429 l 1
 110.999 -429 l 1xf4
 136.999 496 l 1
 82.999 496 l 1
 82.999 521 l 1
 312.999 521 l 1
 312.999 496 l 1
 256.999 496 l 1
 251.999 207 l 1
 400.999 207 l 1
 407.199 228.082 427.415 247 454 247 c 0xec
721.999 217.998 m 1
 741.332 233.331 763 253.334 787 278.001 c 0
 823.489 315.476 835.659 338.579 848 390 c 0
 851.703 402.591 857.999 455.975 857.999 463.998 c 0
 858.666 482.665 858.999 493.665 858.999 496.998 c 1
 597.999 496.998 l 1
 597.442 491.99 597.204 487.002 597.204 481.994 c 0
 597.204 465.687 599.728 449.162 601.999 430.998 c 0
 603.332 414.998 605.665 400.998 608.998 388.998 c 2
 618.998 353.998 l 1
 632.785 312.638 688.63 242.715 721.999 217.998 c 1
EndSplineSet
EndChar

StartChar: uni046D
Encoding: 1133 1133 97
Width: 848
Flags: HW
HStem: 407 29.998<427 561>
VStem: 43.002 99<-2.29874 240.735> 428.001 99.999<0 245 317.386 352.268> 682 111<-2.35908 64.812>
AnchorPoint: "Numeral" 408 240 basechar 0
AnchorPoint: "Diacritic" 475 642.998 basechar 0
AnchorPoint: "Yerok" 595 644 basechar 0
LayerCount: 2
Fore
SplineSet
427 407 m 1
 437.79 401.124 446.99 393.657 457 387 c 2
 479 372 l 1
 488.334 372 497 372.666 505 374 c 1
 523.347 385.32 541.996 396.338 561 407 c 1
 427 407 l 1
737 -4.00098 m 0
 726.836 -4.00098 682 -1.3751 682 -0.000976562 c 0
 673.333 40.666 655.333 81.333 628 122 c 0
 598 166.667 564.667 207.667 528 245 c 1
 528 0 l 1
 490 -3 l 1
 478.001 -3.00488 l 1
 428.001 -0.00488281 l 1
 428.001 262.995 l 1
 354.536 188.449 316.624 130.301 285.003 27.9951 c 1
 280.003 -0.00488281 l 2
 280.003 -2.00488 267.003 -3.00488 241.003 -3.00488 c 2
 221.003 -3.00488 l 2
 198.336 -3.00488 187.003 -2.00488 187.003 -0.00488281 c 0
 187.003 17.3281 196.003 43.6611 214.003 78.9941 c 0
 248.678 145.329 284.625 187.344 343.002 241.994 c 1
 371.002 266.994 l 1
 162.002 244.994 l 1
 150.832 153.6 142.002 96.1523 142.002 23.9941 c 1
 140.955 17.7165 144.364 2.35756 142.002 -0.00488281 c 0
 140.999 -1.00808 100.704 -4.00488 90.002 -4.00488 c 0
 80.6707 -4.00488 43.002 -1.4724 43.002 -0.00488281 c 2
 43.002 20.9951 l 2
 43.002 86.2458 51.5706 199.056 58 227.995 c 1
 64.0711 282.641 71.6387 337.633 82 384.995 c 0
 88.667 415.662 93 431.662 95 432.995 c 0
 96.3082 433.976 145.523 440.995 169.001 440.995 c 0
 188.334 440.995 198.001 440.662 198.001 439.995 c 0
 194.668 427.995 189.335 404.662 182.002 369.995 c 0
 180.669 366.662 175.336 335.329 166.003 275.996 c 1
 412.003 302.996 l 1
 428.003 315.996 l 1
 428.003 335.996 l 1
 409.336 350.663 391.669 363.33 375.002 373.997 c 2
 325.002 407.997 l 1
 321.256 415.487 316.346 430.343 323.001 436.998 c 1
 655.001 436.998 l 1
 655.001 428.998 l 1
 631.327 414.672 607.657 400.342 584.001 385.998 c 1
 565.221 373.111 546.539 360.126 528.001 346.998 c 1
 528.001 334.998 l 1
 530.001 332.998 531.668 331.665 533.001 330.998 c 0
 619.542 258.88 709.621 179.233 762 83.999 c 0
 782.667 45.999 793 17.999 793 -0.000976562 c 0
 793 -1.4567 747.319 -4.00098 737 -4.00098 c 0
EndSplineSet
EndChar

StartChar: uni046E
Encoding: 1134 1134 98
Width: 642
Flags: HW
HStem: -464.999 217<101.514 171.543> 0.000976562 19.0039<333.996 370.995> 250 26.004<327.245 386.347> 501.005 20G<555.995 572.247>
VStem: 64.998 137<-387.345 -287.126> 408.996 135<-161.748 -37.4777> 422.998 133.997<117.215 223.297>
AnchorPoint: "Numeral" 336 48 basechar 0
AnchorPoint: "Yerok" 483 699 basechar 0
AnchorPoint: "Diacritic" 391 699 basechar 0
LayerCount: 2
Fore
SplineSet
184 527 m 1xfa
 197.128 529.626 213.096 530.006 227.997 530.006 c 2
 268.997 530.006 l 2
 289.362 530.006 314.151 529.481 328.997 527.005 c 1
 330.997 511.005 l 1
 334.781 469.406 362.85 416.866 387.995 394.005 c 1
 437.836 436.498 487.93 478.737 538.995 520.005 c 1
 547.662 520.672 553.995 521.005 557.995 521.005 c 2
 567.995 521.005 l 2
 576.498 521.005 581.054 520.005 591.995 520.005 c 1
 595.995 510.005 l 1
 571.995 490.005 548.662 471.505 525.995 454.505 c 2
 458.495 402.005 l 1
 409.897 362.836 368.372 323.158 326.995 273.004 c 1
 332.328 273.671 337.328 274.004 341.995 274.004 c 0
 360.281 274.004 380.184 276.004 399.995 276.004 c 2
 431.995 276.004 l 1
 479.635 274.782 520.252 260.095 541.995 234.004 c 0
 551.995 221.337 556.995 204.337 556.995 183.004 c 0xfa
 556.995 130.333 528.191 101.765 490.996 82.0059 c 2
 459.496 65.0059 l 2
 450.496 60.3389 441.663 56.1719 432.996 52.5049 c 2
 406.996 42.0049 l 2
 373.587 27.6869 380.647 30.2639 354.996 20.0049 c 1
 358.329 19.3379 363.662 19.0049 370.995 19.0049 c 0
 438.68 16.7476 497.736 -2.83505 527.996 -43.4951 c 0
 538.663 -57.8281 543.996 -75.3281 543.996 -95.9951 c 0
 543.996 -157.18 500.606 -192.154 455.996 -209.998 c 0
 424.041 -222.781 386.89 -226.247 346.996 -228.998 c 0
 339.663 -229.665 318.33 -231.332 282.997 -233.999 c 0
 243.375 -237.168 216.551 -265.48 203.998 -301.999 c 0
 202.248 -307.246 201.998 -318.818 201.998 -326.499 c 2
 201.998 -341.999 l 2
 201.998 -383.748 240.834 -407.999 285.998 -407.999 c 0
 295.331 -407.999 304.998 -406.999 314.998 -404.999 c 0
 341.665 -399.666 365.665 -393.499 386.998 -386.499 c 2
 448.998 -366.999 l 2
 458.269 -364.351 460.993 -365.497 469.999 -366.999 c 1
 530.999 -400.499 l 2
 550.332 -411.499 567.665 -423.999 582.998 -437.999 c 1
 582.998 -447.999 l 1
 555.308 -467.779 520.061 -485.226 485.998 -497.999 c 0
 475.331 -501.999 465.664 -504.999 456.997 -506.999 c 1
 439.664 -491.666 419.497 -476.666 396.497 -461.999 c 2
 336.997 -423.999 l 1
 326.33 -427.332 315.33 -430.499 303.997 -433.499 c 0
 274.111 -441.446 244.047 -449.216 213.997 -456.999 c 0
 198.664 -460.999 180.331 -463.666 158.998 -464.999 c 1
 116.309 -464.999 73.9205 -430.609 69.998 -393.998 c 0
 68.9923 -384.95 64.998 -370.339 64.998 -358.499 c 0
 64.998 -302.59 93.2994 -271.281 128.997 -247.999 c 0
 154.261 -231.522 189.587 -216.275 223.997 -212.999 c 0
 262.773 -209.675 312.977 -206.859 346.996 -201.999 c 1
 379.437 -186.378 408.996 -156.023 408.996 -109.998 c 0xfc
 408.996 -67.1994 394.525 -32.2359 368.996 -13.999 c 0
 356.996 -4.66602 345.329 0.000976562 333.996 0.000976562 c 0
 328.359 0.000976562 319.927 1.00098 313.995 1.00098 c 1
 285.133 -13.4287 251.838 -29.5006 241.996 -60.999 c 0
 238.663 -71.666 235.663 -82.333 232.996 -93 c 1
 194.954 -120.342 143.635 -153.426 92.998 -165 c 1
 82.998 -155 l 1
 99.6177 -63.5919 161.115 -26.8154 235.998 7.00098 c 0
 249.998 13.001 261.998 17.668 271.998 21.001 c 0
 308.187 32.8528 336.3 41.127 371.998 56.002 c 1
 397.366 77.1417 422.998 114.757 422.998 163.002 c 0
 422.998 198.91 402.881 227.919 379.998 242 c 0
 371.331 247.333 361.664 250 350.997 250 c 0
 341.664 250 333.331 249.333 325.998 248 c 2
 303.998 244 l 1
 278.897 212.351 244.474 169.992 229.998 133 c 1
 194.637 113.11 178.556 78.5802 126.999 76.001 c 1
 116.999 85.001 l 1
 126.782 122.5 141.814 162.711 164.999 183.001 c 0
 177.817 194.654 197.699 221.859 215.499 239.001 c 0
 234.245 256.922 253.249 274.584 272.499 292.001 c 2
 295.999 313.001 l 2
 299.999 317.001 304.166 320.834 308.499 324.501 c 2
 321.999 336.001 l 1
 292.487 358.805 266.691 379.632 243.999 409 c 0
 221.343 438.453 199.878 472.705 189 510 c 2
 184 527 l 1xfa
EndSplineSet
EndChar

StartChar: uni046F
Encoding: 1135 1135 99
Width: 491
Flags: HW
HStem: 8.00195 21.9971<265.993 276.525> 209.001 28.997<241.214 295.789> 426 20G<142.331 184.303 419.036 427.35>
VStem: 26.9971 110.996<-299.155 -212.98> 305.996 109.997<-124.779 -10.8132> 317.995 108.998<103.704 194.488>
AnchorPoint: "Numeral" 238 240 basechar 0
AnchorPoint: "Diacritic" 275 642.998 basechar 0
AnchorPoint: "Yerok" 375 644 basechar 0
LayerCount: 2
Fore
SplineSet
317.995 147.001 m 0xf4
 317.995 179.74 292.451 209.001 258.995 209.001 c 0
 240.058 209.001 226.921 206.071 211.997 202.001 c 1
 193.377 178.999 170.785 149.73 160.998 122.001 c 1
 130.785 103.41 105.942 78.8114 60.9961 76.001 c 1
 52.9961 83.001 l 1
 60.4461 118.385 72.6754 139.814 91.999 163.001 c 2
 115.999 191.001 l 2
 119.999 195.668 125.499 201.501 132.499 208.501 c 0
 147.577 223.09 162.916 237.417 178.499 251.501 c 2
 197.999 269.001 l 2
 204.665 275.667 212.333 281.335 218.999 288.001 c 1
 185.999 316.001 l 2
 165.548 332.069 140.75 365.657 128 390 c 0
 120 403.333 114.333 416.333 111 429 c 2
 107 443 l 1
 119 444 l 2
 129 445.333 138.165 446 146.498 446 c 2
 175.998 446 l 2
 192.608 446 213.119 445.376 224.998 442.999 c 1
 226.998 429.999 l 2
 232.405 394.843 250.644 354.373 272.998 334.999 c 1
 313.832 369.165 354.76 403.237 395.998 436.999 c 1
 407.619 438.161 415.428 438.599 422.645 438.599 c 0
 432.054 438.599 440.458 437.855 454.996 436.999 c 1
 457.996 428.999 l 1
 400.996 383.999 l 1
 342.015 339.764 288.054 294.918 240.994 236.998 c 1
 244.327 237.665 247.994 237.998 251.994 237.998 c 0
 265.26 237.998 279.903 239.998 293.994 239.998 c 0
 348.767 239.998 390.83 233.507 413.993 204.999 c 0
 422.66 194.332 426.993 180.332 426.993 162.999 c 0xf4
 426.993 119.59 403.372 95.3561 372.994 78.999 c 2
 346.994 65.499 l 2
 339.661 61.832 332.494 58.499 325.494 55.499 c 0
 310.327 48.999 295.161 42.499 279.994 35.999 c 0
 273.327 33.332 268.66 31.332 265.993 29.999 c 1
 274.993 29.999 l 1
 330.758 27.6743 378.359 13.1078 402.993 -21 c 0
 411.66 -33 415.993 -47.333 415.993 -64 c 0
 415.993 -130.026 360.255 -162.054 301.991 -169.999 c 0
 268.44 -174.375 240.896 -176.454 203.993 -178.998 c 0
 172.083 -182.188 150.453 -200.781 139.993 -230.997 c 0
 138.349 -235.926 137.993 -244.344 137.993 -251.497 c 2
 137.993 -263.997 l 2
 137.993 -294.555 162.7 -306.997 194.992 -306.997 c 0
 240.067 -306.997 313.476 -280.507 338.993 -271.997 c 0
 342.993 -270.664 345.993 -269.997 347.993 -269.997 c 0
 349.993 -270.664 352.66 -271.331 355.993 -271.998 c 1
 405.493 -299.498 l 2
 421.16 -308.498 435.327 -318.665 447.994 -329.998 c 1
 447.994 -337.998 l 1
 422.238 -355.916 378.377 -378.412 344.995 -385.998 c 1
 316.328 -361.331 289.661 -340.664 264.994 -323.997 c 1
 213.534 -339.131 162.991 -359.383 102.996 -363.997 c 1
 54.9835 -363.997 26.9971 -325.389 26.9971 -277.497 c 0
 26.9971 -215.112 71.8177 -181.588 117.996 -163.997 c 0
 156.073 -149.492 212.04 -150.168 255.996 -144.998 c 1
 282.317 -131.838 305.996 -112.505 305.996 -74.998 c 0xf8
 305.996 -33.7764 284.22 8.00195 244.995 8.00195 c 2
 232.995 8.00195 l 2
 228.328 8.00195 223.661 8.33496 218.994 9.00195 c 1
 196.107 -2.98595 178.344 -14.319 170.494 -36.9971 c 0
 167.494 -45.6641 164.994 -54.3311 162.994 -62.998 c 1
 132.03 -85.6263 91.1582 -111.275 48.9941 -119.999 c 1
 40.9941 -111.999 l 1
 54.7255 -37.853 104.802 3.2631 165.994 28.001 c 2
 194.994 40.001 l 1
 218.494 47.501 l 2
 239.518 53.8984 253.239 58.8991 275.995 68.001 c 1
 297.364 85.0963 317.995 107.088 317.995 147.001 c 0xf4
EndSplineSet
EndChar

StartChar: uni0470
Encoding: 1136 1136 100
Width: 817
Flags: HW
HStem: -454.999 21G<359.981 447.524> 392.175 142.827<652.669 745.323> 495.001 25<23.002 80.002 191.002 244.002> 858 25.001<407.471 515.997>
VStem: 239.002 114.998<661.641 811.043> 364.003 145.997<304.356 405.956> 424.002 24.998<-246.999 286.783 423.662 586.959>
AnchorPoint: "Numeral" 436 48 basechar 0
AnchorPoint: "Yerok" 683 699 basechar 0
AnchorPoint: "Diacritic" 440 979 basechar 0
LayerCount: 2
Fore
SplineSet
354 736 m 0xba
 354 667.023 383.004 622.177 439 606 c 1
 445.13 606 449 596.563 449 590 c 2
 449 427 l 1xba
 481.421 420.766 510 392.691 510 355.001 c 0xbc
 510 317.775 481.89 289.062 449 284.001 c 1
 449 -272.999 l 1
 558 346.001 l 2
 569.333 410.668 590.5 458.335 621.5 489.002 c 0
 652.5 519.669 690 535.002 734 535.002 c 0
 756.646 535.002 789.299 530.852 805 523.001 c 1
 808 514.001 l 1
 789.994 495.995 761.755 479.235 749 455.001 c 0
 733.991 427.293 730.46 402.603 727.001 368.002 c 1
 717.001 368.002 l 1
 704.579 383.086 687.706 392.175 662.9 392.175 c 0xda
 619.178 392.175 587.011 362.054 581.002 323.001 c 2
 444.002 -454.999 l 1
 366.002 -454.999 l 1
 80.002 495.001 l 1
 23.002 495.001 l 1
 23.002 520.001 l 1
 244.002 520.001 l 1
 244.002 495.001 l 1
 191.002 495.001 l 1
 424.002 -246.999 l 1
 424.002 284.001 l 1xba
 391.538 290.244 364.003 317.284 364.003 355.001 c 0xbc
 364.003 391.827 392.048 420.856 424.002 427.001 c 1
 424.002 586.001 l 1
 353.238 591.897 292.537 617.391 259.002 663.501 c 0
 245.669 681.834 239.002 705.001 239.002 733.001 c 0
 239.002 844.424 332.065 883.001 443.002 883.001 c 0
 490.3 883.001 520.618 872.991 551.002 854.001 c 0
 562.959 846.03 582.307 833.849 594.002 828.001 c 1
 612.002 849.001 l 2
 619.335 857.668 625.668 864.668 631.001 870.001 c 1
 637.473 868.706 646.418 863.169 649.001 858.001 c 1
 632.909 839.76 616.88 821.455 601.001 803.001 c 1
 588.001 803.001 l 1
 551.83 825.258 513.953 858 457.001 858 c 0
 389.228 858 354 804.029 354 736 c 0xba
EndSplineSet
EndChar

StartChar: uni0471
Encoding: 1137 1137 101
Width: 791
Flags: HW
HStem: 764 27.999<331.495 363.806>
VStem: 362.007 60.021<-296.756 -15.2646>
AnchorPoint: "Numeral" 413 240 basechar 0
AnchorPoint: "Diacritic" 209 642.998 basechar 0
AnchorPoint: "Yerok" 659 644 basechar 0
LayerCount: 2
Fore
SplineSet
402.837 -336.207 m 0
 372.445 -336.207 362.399 -335.027 353.007 -319.999 c 1
 355.446 -215.395 357.227 -183.607 359.007 -99.999 c 0
 359.674 -68.666 360.674 -40.333 362.007 -15 c 1
 343.684 -17.2917 336.708 -18.0679 334.006 -10 c 0
 296.44 131.43 227.755 259.007 139.506 352.001 c 0
 108.506 384.668 75.0059 411.001 39.0059 431.001 c 1
 41.0059 449.001 l 1
 62.3389 450.334 85.6719 451.001 111.005 451.001 c 0
 136.338 451.001 159.671 449.334 181.004 446.001 c 1
 259.761 386.255 324.621 291.126 362.003 188.001 c 1
 364.141 339.741 370.36 509.663 373.503 659.501 c 0
 374.503 707.168 375.67 747.001 377.003 779.001 c 1
 371.67 776.334 367.003 774.167 363.003 772.5 c 2
 352.003 768 l 2
 348.67 766 345.337 764.667 342.004 764 c 1
 335.124 767.44 330.906 774.396 330.906 783.539 c 0
 330.906 786.186 331.26 789.017 332.005 791.999 c 1
 354.707 801.63 377.234 811.437 399.505 821.499 c 0
 446.345 842.397 493.502 862.575 538.006 885.999 c 1
 543.634 880.371 546.598 868.137 545.006 856.998 c 1
 531.038 847.685 513.542 841.629 498.005 832.998 c 1
 494.005 787.665 489.838 735.165 485.505 675.498 c 0
 476.65 550.187 467.989 424.681 459.505 298.998 c 2
 448.005 125.998 l 1
 463.268 166.238 479.114 204.232 501.003 238.998 c 0
 535.83 296.644 577.32 344.965 626.001 382.999 c 1
 653.239 399.341 699.645 406.26 739.502 410.501 c 0
 755.169 412.168 769.669 413.001 783.002 413.001 c 1
 783.002 405.001 l 1
 773.002 397.001 764.169 388.668 756.502 380.001 c 2
 731.002 350.001 l 2
 722.335 339.334 715.168 328.167 709.501 316.5 c 2
 696.001 288 l 1
 687.001 288 l 1
 671.501 301 l 2
 665.834 305.667 660.334 310.5 655.001 315.5 c 2
 641.001 328.5 l 2
 637.001 332.167 634.001 335 632.001 337 c 1
 589.391 305.043 557.592 271.944 527.001 222.999 c 0
 497.933 175.433 480.766 137.933 475.501 110.499 c 0
 465.248 57.0713 457.081 21.2383 451.001 2.99902 c 0
 449.648 -1.05677 449.003 -4.9421 448.999 -10.332 c 1
 439.011 -13.999 l 1
 431.011 -94.999 l 2
 428.344 -126.332 425.344 -158.999 422.011 -192.999 c 0
 422.022 -193.038 422.028 -193.147 422.028 -193.327 c 0
 422.028 -197.143 419.355 -232.7 414.01 -300 c 1
 445.01 -274.5 l 2
 453.677 -267.5 460.677 -261.333 466.01 -256 c 1
 476.642 -258.658 483.357 -267.396 486.008 -278 c 1
 463.047 -297.829 441.092 -317.076 417.008 -335.999 c 1
 411.921 -336.138 407.197 -336.207 402.837 -336.207 c 0
EndSplineSet
AlternateSubs2: "'salt' Stylistic Alternatives lookup 2-1" uni0471.salt uni0471.salt
EndChar

StartChar: uni0472
Encoding: 1138 1138 102
Width: 684
Flags: HW
HStem: -464.999 23.999<281.917 365.332> 19 25<191.003 455.003> 505 23.999<282.175 364.087>
VStem: 65.002 126.001<-185.831 19 44 250.654> 455.003 125.997<-187.562 19 44 248.831>
AnchorPoint: "Numeral" 336 48 basechar 0
AnchorPoint: "Yerok" 513 699 basechar 0
AnchorPoint: "Diacritic" 321 699 basechar 0
LayerCount: 2
Fore
SplineSet
581 32 m 0
 581 -113.525 556.525 -240.844 507.5 -332.499 c 0
 484.5 -375.499 457.333 -408.332 426 -430.999 c 0
 394.667 -453.666 360.334 -464.999 323.001 -464.999 c 0
 285.668 -464.999 251.335 -453.666 220.002 -430.999 c 0
 148.731 -379.44 107.479 -284.403 84.502 -175.999 c 0
 71.502 -114.666 65.002 -45.333 65.002 32 c 0
 65.002 177.525 89.4771 304.844 138.502 396.499 c 0
 161.502 439.499 188.669 472.332 220.002 494.999 c 0
 251.335 517.666 285.668 528.999 323.001 528.999 c 0
 360.334 528.999 394.667 517.666 426 494.999 c 0
 497.272 443.439 538.523 348.403 561.5 239.999 c 0
 574.5 178.666 581 109.333 581 32 c 0
323 505 m 0
 274.632 505 248.224 465.938 232.506 428 c 0
 191.709 329.53 191.003 181.547 191.003 44 c 1
 455.003 44 l 1
 455.003 149.258 451.76 257.569 435.503 346.5 c 0
 425.222 402.741 408.353 453.12 376.001 484 c 0
 361.334 498 343.667 505 323 505 c 0
323.006 -441 m 0
 371.396 -441 396.748 -403.024 412.502 -365 c 0
 453.493 -266.062 455.003 -119.022 455.003 19 c 1
 191.003 19 l 1
 191.003 -86.2583 194.246 -194.569 210.503 -283.5 c 0
 220.728 -339.434 237.524 -390.234 270.005 -420.5 c 0
 284.672 -434.167 302.339 -441 323.006 -441 c 0
EndSplineSet
EndChar

StartChar: uni0473
Encoding: 1139 1139 103
Width: 574
Flags: HW
HStem: -130 160<61.0482 155.86 453 472.584> 0.000976562 29.999<15.6429 61.002 156.003 238.001 384.999 449.416>
VStem: 58.4033 101.6<-125.65 0> 231.001 51.401<31.0204 183.613> 346.072 57.927<32.0036 258.136>
AnchorPoint: "Numeral" 318 240 basechar 0
AnchorPoint: "Diacritic" 326 642.998 basechar 0
AnchorPoint: "Yerok" 446 644 basechar 0
LayerCount: 2
Fore
SplineSet
452.998 -50 m 2x78
 452.998 -27.2909 451.005 -10.0051 441 0 c 1
 378 0 l 1
 363.838 -56.6485 343.8 -108.475 323.003 -157 c 0
 321.538 -160.662 316.289 -162.426 310.923 -162.426 c 0
 305.416 -162.426 299.788 -160.568 298.003 -156.999 c 0
 277.171 -116.938 256.35 -53.8814 244.003 0.000976562 c 1
 156.003 0.000976562 l 1x78
 158.303 -34.5019 160.003 -93.5969 160.003 -129 c 1
 152.003 -129.667 143.795 -130 135.378 -130 c 0xb8
 108.406 -130 82.2422 -126.835 60.0029 -122.001 c 1
 58.9365 -108.135 58.4033 -92.5615 58.4033 -75.2812 c 0
 58.4033 -49.1822 59.4315 -21.9918 61.002 0 c 1
 20.002 0 l 1
 16.847 2.52446 15.5412 7.43021 15.5412 12.6426 c 0
 15.5412 19.4414 17.7629 26.7619 21.001 30 c 1
 238.001 30 l 1
 234.274 54.8453 231.001 80.6456 231.001 108 c 0
 231.001 247.746 266.868 365.734 312 456 c 0
 314.112 460.224 319.036 462.072 324.014 462.072 c 0
 329.522 462.072 335.095 459.809 336.999 456 c 0
 374.418 389.183 403.999 310.271 403.999 206 c 0
 403.999 140.99 395.786 83.9384 384.999 30 c 1
 562.999 30 l 2
 565.837 30 567.075 27.4793 567.075 24.7337 c 0
 567.075 22.5984 566.326 20.3272 564.999 19 c 0
 525.534 -17.6485 491.218 -73.3083 464.999 -122 c 0
 464.332 -124 462.165 -125 458.498 -125 c 0
 454.831 -125 452.998 -124 452.998 -122 c 2
 452.998 -50 l 2x78
282.402 100.6 m 0
 282.402 74.908 285.036 48.5754 292.002 29.999 c 1
 334.002 29.999 l 1
 342.049 61.5703 346.072 89.9805 346.072 115.229 c 0
 346.072 143.497 342.028 167.84 335.001 184 c 1
 330.188 188.212 323.99 189.97 317.648 189.97 c 0
 310.319 189.97 302.798 187.622 297.003 184 c 1
 288.108 161.763 282.402 131.928 282.402 100.6 c 0
EndSplineSet
EndChar

StartChar: uni0474
Encoding: 1140 1140 104
Width: 652
Flags: HW
HStem: -455 25<148 198.998 324 381> 415.27 111.728<488.156 598.141> 494.998 25<11.998 64.998 176.998 232.998>
AnchorPoint: "Numeral" 306 48 basechar 0
AnchorPoint: "Yerok" 513 699 basechar 0
AnchorPoint: "Diacritic" 321 699 basechar 0
LayerCount: 2
Fore
SplineSet
148 -455 m 1xc0
 147.998 -430.002 l 1
 198.998 -430.002 l 1
 64.998 494.998 l 1
 11.998 494.998 l 1
 11.998 519.998 l 1
 232.998 519.998 l 1
 232.998 494.998 l 1
 176.998 494.998 l 1xa0
 311.998 -369.002 l 1
 449.998 412.998 l 1
 460.717 462.311 501.263 500.703 544.499 517.998 c 0
 559.499 523.998 573.999 526.998 587.999 526.998 c 0
 608.283 526.998 628.924 523.395 642.999 516.998 c 1
 645.999 507.998 l 1
 627.012 489.011 611.754 480.629 595.999 456.997 c 0
 576.666 427.664 564.333 404.331 559 386.998 c 1
 549 386.998 l 1
 536.798 397.676 513.916 415.27 492.491 415.27 c 0
 483.82 415.27 475.388 412.388 468 405 c 1
 324 -430 l 1
 381 -430 l 1
 381 -455 l 1
 148 -455 l 1xc0
EndSplineSet
EndChar

StartChar: uni0475
Encoding: 1141 1141 105
Width: 529
Flags: HW
HStem: 354.998 80<410.478 515.192> 421 20G<123.695 148>
VStem: 175.999 94.001<8.18779 64.2897>
AnchorPoint: "Numeral" 258 240 basechar 0
AnchorPoint: "Diacritic" 269 642.998 basechar 0
AnchorPoint: "Yerok" 439 644 basechar 0
LayerCount: 2
Fore
SplineSet
36 419 m 1xa0
 65.4809 429.719 103.39 441 144 441 c 1x60
 152 424.333 160.833 403 170.5 377 c 2
 200.5 292.5 l 2
 220.531 233.698 241.198 164.249 256 101 c 1
 283.849 198.464 317.41 301.851 365 382 c 0
 372.464 395.062 394.3 410.18 409 419 c 1
 440.342 431.537 484.205 434.998 526 434.998 c 1
 529 424.998 l 1
 519 387.998 l 2
 515.667 375.331 510 364.331 502 354.998 c 1
 470.924 354.998 432.204 349.045 406.001 342.998 c 0
 397.334 340.998 392.334 338.998 391.001 336.998 c 0
 365.057 307.812 348.605 279.886 332 235.998 c 2
 312 181.498 l 2
 300.641 149.314 290.553 118 282 84.498 c 2
 270 35.998 l 1
 272.718 26.4827 272.28 18.5143 274.998 8.99805 c 1
 248.998 0.498047 l 2
 241.665 -1.83496 234.332 -3.66797 226.999 -5.00098 c 2
 203.999 -9.00098 l 2
 195.999 -10.334 186.666 -11.334 175.999 -12.001 c 1
 157.21 103.092 122.448 220.378 82.5 317 c 0
 68.167 351.667 52.667 381.667 36 407 c 1
 36 419 l 1xa0
EndSplineSet
EndChar

StartChar: uni0476
Encoding: 1142 1142 106
Width: 652
Flags: HW
HStem: -455 25<148 198.998 324 381> 415.27 111.728<488.156 598.141> 494.998 25<11.998 64.998 176.998 232.998>
AnchorPoint: "Numeral" 316 48 basechar 0
AnchorPoint: "Yerok" 321 900 basechar 0
AnchorPoint: "Diacritic" 321 899 basechar 0
LayerCount: 2
Fore
SplineSet
262 734 m 1x80
 393 664 l 1
 393 652 l 1
 306 603 l 1
 175 673 l 1
 175 685 l 1
 262 734 l 1x80
420 830 m 1
 551 760 l 1
 551 748 l 1
 464 699 l 1
 333 769 l 1
 333 781 l 1
 420 830 l 1
148 -455 m 1
 147.998 -430.002 l 1
 198.998 -430.002 l 1
 64.998 494.998 l 1
 11.998 494.998 l 1
 11.998 519.998 l 1
 232.998 519.998 l 1
 232.998 494.998 l 1
 176.998 494.998 l 1xa0
 311.998 -369.002 l 1
 449.998 412.998 l 1
 460.717 462.311 501.263 500.703 544.499 517.998 c 0
 559.499 523.998 573.999 526.998 587.999 526.998 c 0
 608.283 526.998 628.924 523.395 642.999 516.998 c 1
 645.999 507.998 l 1
 627.012 489.011 611.754 480.629 595.999 456.997 c 0
 576.666 427.664 564.333 404.331 559 386.998 c 1
 549 386.998 l 1
 536.798 397.676 513.916 415.27 492.491 415.27 c 0xc0
 483.82 415.27 475.388 412.388 468 405 c 1
 324 -430 l 1
 381 -430 l 1
 381 -455 l 1
 148 -455 l 1
EndSplineSet
Ligature2: "'ccmp' Glyph Composition/Decomposition lookup 0-1" uni0474 uni030F
EndChar

StartChar: uni0477
Encoding: 1143 1143 107
Width: 529
Flags: HW
HStem: 355 80<410.479 515.194> 421 20G<123.696 148.001>
VStem: 176 94.002<8.18959 64.2917>
AnchorPoint: "Numeral" 258 240 basechar 0
AnchorPoint: "Diacritic" 275 912.998 basechar 0
AnchorPoint: "Yerok" 275 914 basechar 0
LayerCount: 2
Fore
SplineSet
270.002 36 m 1xa0
 272.72 26.4845 272.282 18.5164 275 9 c 1
 248.999 0.498047 l 2
 241.666 -1.83496 234.333 -3.66797 227 -5.00098 c 2
 204 -9.00098 l 2
 196 -10.334 186.667 -11.334 176 -12.001 c 1
 157.211 103.092 122.449 220.378 82.501 317 c 0
 68.168 351.667 52.668 381.667 36.001 407 c 1
 36.001 419 l 1
 65.4819 429.719 103.391 441 144.001 441 c 1x60
 152.001 424.333 160.834 403 170.501 377 c 2
 200.501 292.5 l 2
 220.532 233.698 241.199 164.249 256.001 101 c 1
 283.85 198.464 317.411 301.851 365.001 382 c 0
 372.465 395.062 394.301 410.18 409.001 419 c 1
 440.342 431.536 484.205 435 526.002 435 c 1
 529.002 425 l 1
 519.002 388 l 2
 515.669 375.333 510.002 364.333 502.002 355 c 1
 470.926 355 432.206 349.047 406.003 343 c 0
 397.336 341 392.336 339 391.003 337 c 0
 365.059 307.814 348.607 279.888 332.002 236 c 2
 312.002 181.5 l 2
 300.643 149.316 290.555 118.002 282.002 84.5 c 2
 270.002 36 l 1xa0
211.999 743.998 m 1
 342.999 673.998 l 1
 342.999 661.998 l 1
 255.999 612.998 l 1
 124.999 682.998 l 1
 124.999 694.998 l 1
 211.999 743.998 l 1
369.999 839.998 m 1
 500.999 769.998 l 1
 500.999 757.998 l 1
 413.999 708.998 l 1
 282.999 778.998 l 1
 282.999 790.998 l 1
 369.999 839.998 l 1
EndSplineSet
Ligature2: "'ccmp' Glyph Composition/Decomposition lookup 0-1" uni0475 uni030F
EndChar

StartChar: uni047C
Encoding: 1148 1148 108
Width: 1049
Flags: HW
HStem: -465 29.997<306.449 402.471 605.582 703.101> -103.002 14<607.712 619.004> 489.998 42<297.684 356.69 651.818 708.187> 559.001 11<512.305 517.371> 658.253 52.7487<516.713 603.739> 714.997 23.001<888.554 930.775> 852.997 32.004<394.749 518.774>
VStem: 65.0049 142.003<-160.349 208.309> 237.007 108<738.383 794.951> 388.006 25<372.267 440.69> 478.004 52.998<-324.881 -203.523> 568.786 88.2214<621.203 683.616> 596.007 24.993<371.416 442.013> 801.998 142.009<-161.481 204.819>
AnchorPoint: "Numeral" 506 48 basechar 0
AnchorPoint: "Yerok" 534 979 basechar 0
AnchorPoint: "Diacritic" 531 979 basechar 0
LayerCount: 2
Fore
SplineSet
382.006 531.998 m 0xffec
 384.052 531.998 386.243 532.026 388.482 532.026 c 0
 398.633 532.026 409.784 531.444 413.006 524.998 c 1
 413.006 374.998 l 1
 405.006 370.331 396.673 370.331 388.006 374.998 c 1
 388.006 411.998 l 1
 378.118 439.687 363.41 469.988 339.506 483.497 c 0
 331.839 487.83 324.006 489.997 316.006 489.997 c 1
 299.947 485.982 283.398 473.858 272.006 464.997 c 1
 235.067 417.502 225.809 327.125 218.008 252.997 c 1
 211.55 179.372 207.008 94.6538 207.008 15.4971 c 0
 207.008 -93.3702 212.972 -188.105 232.507 -275.503 c 0
 244.495 -329.136 264.014 -380.012 296.005 -412.003 c 0
 311.338 -427.336 329.671 -435.003 351.004 -435.003 c 0
 399.047 -435.003 437.868 -398.326 458.004 -367.003 c 0
 466.004 -354.336 472.671 -339.669 478.004 -323.002 c 1
 474.833 -256.448 458.135 -190.501 431.504 -144.502 c 0
 420.504 -125.502 406.671 -111.669 390.004 -103.002 c 1
 390.004 -89.002 l 1
 619.004 -89.002 l 1
 619.004 -103.002 l 1
 556.204 -134.404 535.16 -235.731 531.002 -323.002 c 1
 541.063 -363.246 566.961 -393.57 597.502 -415.002 c 0
 616.502 -428.335 636.669 -435.002 658.002 -435.002 c 0
 707.531 -435.002 734.841 -391.658 751.5 -353.502 c 0
 794.629 -254.717 801.998 -124.995 801.998 15.498 c 0
 801.998 135.759 796.211 256.755 775.999 359.498 c 0
 768.536 397.434 756.337 440.135 737 464.998 c 1
 725.602 473.863 709.063 485.982 693 489.998 c 1
 661.804 489.998 644.027 462.517 632.5 441 c 0
 627.5 431.667 623.667 422 621 412 c 1
 621 399.333 621 386.667 621 374 c 1
 613 368.667 604.674 368.997 596.007 374.997 c 1
 596.007 524.997 l 1
 598.842 530.669 601.233 530.151 608.006 530.998 c 0
 608.006 531.665 615.339 531.998 630.006 531.998 c 0
 655.325 531.998 669.657 528.744 692.007 519.998 c 0
 779.961 484.268 841.236 408.654 881.507 322.997 c 0
 919.55 242.079 944.007 138.044 944.007 24.998 c 0
 944.007 -96.1228 917.423 -206.521 878.506 -293.002 c 0
 850.008 -356.33 808.291 -409.865 751.007 -442 c 0
 723.674 -457.333 692.674 -465 658.007 -465 c 0
 611.262 -465 577.512 -437.186 554.006 -412 c 0
 532.943 -389.432 514.863 -357.427 507.006 -326 c 1
 502.006 -326 l 1
 480.81 -385.352 448.321 -436.146 389.006 -458 c 0
 376.339 -462.667 363.672 -465 351.005 -465 c 0
 274.071 -465 222.59 -425.632 185.006 -381.001 c 0
 123.438 -307.888 86.9717 -196.592 72.0049 -79.0029 c 0
 67.3379 -42.3359 65.0049 -7.66895 65.0049 24.998 c 0
 65.0049 202.105 120.137 346.993 206.005 441.998 c 0
 238.005 477.331 275.005 503.331 317.005 519.998 c 0
 338.684 528.481 356.203 531.998 382.006 531.998 c 0xffec
237.007 717.997 m 1
 241.016 802.141 290.392 848.677 354.006 875.001 c 1
 402.835 880.919 447.182 885.001 491.006 885.001 c 1
 539.006 882.334 576.673 878.667 604.006 874 c 1
 655.506 854.5 l 2
 669.839 848.833 683.506 843.166 696.506 837.499 c 0
 728.701 823.361 760.387 808.713 792.006 793.999 c 2
 861.006 760.999 l 2
 882.339 750.332 904.672 742.665 928.005 737.998 c 1
 929.857 734.294 930.782 730.282 930.782 725.962 c 0
 930.782 722.504 930.19 718.849 929.004 714.997 c 1
 878.184 704.409 870.129 702.996 826.004 702.996 c 0
 815.337 702.996 805.004 703.329 795.004 703.996 c 1
 744.498 719.869 717.193 732.562 671.004 754.996 c 0
 656.337 761.663 643.004 768.33 631.004 774.997 c 2
 596.004 794.997 l 2
 563.888 813.89 565.179 812.67 523.005 834.997 c 0
 500.338 846.997 479.338 852.997 460.005 852.997 c 0
 447.672 852.997 435.338 852.997 423.005 852.997 c 0
 419.672 853.664 410.005 852.997 394.005 850.997 c 1
 360.506 830.898 349.753 788.432 345.007 740.997 c 1
 316.881 729.746 272.338 719.534 237.007 717.997 c 1
437.005 616.001 m 1
 467.244 655.444 485.032 674.014 529.009 696.002 c 0
 549.76 706.829 563.864 711.002 588.007 711.002 c 0
 619.471 711.002 657.007 700.229 657.007 667.003 c 0
 657.007 650.105 645.992 633.44 638.007 624.002 c 0
 613.611 592.287 562.118 567.825 518.006 559.001 c 1
 514.673 562.334 512.006 566.001 510.006 570.001 c 1
 532.978 586.708 551.11 600.525 565.006 626 c 0
 567.636 630.603 568.786 634.835 568.786 638.614 c 0xfff4
 568.786 650.787 556.855 658.253 544.066 658.253 c 0
 542.717 658.253 541.359 658.17 540.004 658.001 c 0
 522.108 656.373 505.926 645.655 493.004 636.501 c 0
 478.766 626.239 464.469 616.036 450.004 606.001 c 1
 444.671 608.668 440.338 612.001 437.005 616.001 c 1
EndSplineSet
Ligature2: "'ccmp' Secondary Ligatures 1" uniA64C uniE005
EndChar

StartChar: uni047D
Encoding: 1149 1149 109
Width: 855
Flags: HW
HStem: -3 62.999<213.894 272.152> -2.99902 77.0029<598.591 668.773> 361.004 30<535.779 598.176> 430 20G<231.21 277.344> 559.008 11<512.301 517.367> 658.26 52.8727<516.511 601.188> 715.005 23.001<887.733 930.771> 853.256 31.419<386.812 517.888>
VStem: 48.4994 94.5016<133.57 276.55> 237.002 108<738.392 794.959> 568.782 88.2224<620.484 670.933> 733.202 77.266<140.897 278.31>
AnchorPoint: "Numeral" 448 240 basechar 0
AnchorPoint: "Diacritic" 487 962.998 basechar 0
AnchorPoint: "Yerok" 487 964 basechar 0
LayerCount: 2
Fore
SplineSet
205.001 368.999 m 1xbff0
 174.846 348.495 143.001 300.262 143.001 250.999 c 0
 143.001 157.877 167.026 98.2335 234.5 71.499 c 0
 252.167 64.499 270.667 60.666 290 59.999 c 1xbff0
 343.5 79.499 l 2
 362.5 86.499 381.167 93.999 399.5 101.999 c 2
 452 125.499 l 2
 468.667 133.166 483 140.333 495 147 c 0
 497.667 149 502.002 149.339 508.002 148.006 c 1
 541.35 122.995 583.759 98.1774 629.501 83.5049 c 0
 647.168 77.8379 665.668 74.6709 685.001 74.0039 c 1
 702.494 84.7675 714.892 96.8559 727.002 113.003 c 1
 730.964 132.021 733.202 154.413 733.202 178.203 c 0
 733.202 263.45 698.174 316.659 648.501 353.004 c 0
 634.834 363.004 620.667 371.004 606 377.004 c 1
 584.673 370.34 567.487 365.149 543.999 361.004 c 1
 539.039 365.137 535.412 372.314 535.412 380.063 c 0
 535.412 383.669 536.197 387.399 538 391.004 c 1
 584.685 398.184 627.455 414.216 661.5 436.004 c 0
 669.833 441.337 678.666 446.67 687.999 452.003 c 1
 693.281 449.891 697.874 446.065 701.997 444.002 c 0
 760.777 404.815 810.468 340.802 810.468 242.977 c 0
 810.468 189.826 800.629 150.96 773.996 119.001 c 0
 736.79 75.3786 685.797 22.3967 630.998 -2.99902 c 1
 623.998 -2.99902 l 1x7ff0
 547.039 1.35721 464.434 39.1 412.998 73.001 c 1
 393.665 65.001 374.998 57.668 356.998 51.001 c 2
 300.998 30.001 l 2
 260.231 14.4134 219.219 -3 166.997 -3 c 0
 115.919 -3 82.0317 31.4253 65.999 66.5 c 0
 53.9499 92.8598 48.4994 127.825 48.4994 163.021 c 0
 48.4994 200.89 54.8093 239.027 65.999 267.001 c 0
 73.5665 285.92 83.7054 307.342 95.999 321.002 c 2
 134.999 364.002 l 1
 169.787 400.724 206.421 428.186 256 450 c 1
 298.687 442.641 313.157 437.394 352 423.999 c 1
 353 415.999 l 1
 336.61 383.217 318.317 355.755 299.001 329.999 c 1
 275.823 342.747 232.792 362.052 205.001 368.999 c 1xbff0
237.002 718.006 m 1
 241.011 802.148 290.389 848.685 354.002 875.008 c 1
 403.169 880.967 445.566 884.675 491.014 884.675 c 0
 526.043 884.675 563.706 881.119 604.002 874.008 c 1
 655.502 854.508 l 2
 669.835 848.841 683.502 843.174 696.502 837.507 c 0
 728.697 823.369 760.383 808.721 792.002 794.007 c 2
 861.002 761.007 l 2
 882.335 750.34 904.668 742.673 928.001 738.006 c 1
 929.852 734.302 930.778 730.29 930.778 725.97 c 0
 930.778 722.512 930.185 718.857 929 715.005 c 1
 888.003 706.806 866.983 703.116 826.21 703.116 c 0
 816.366 703.116 805.963 703.412 795 704.005 c 1
 744.494 719.878 717.189 732.571 671 755.005 c 0
 656.333 761.672 643 768.339 631 775.006 c 0
 607.904 788.243 584.74 801.413 561.5 814.506 c 2
 523 835.006 l 2
 495.88 849.413 476.043 853.256 444.25 853.256 c 0
 428.25 853.256 411.5 852.506 394 851.006 c 1
 360.501 830.907 349.748 788.441 345.002 741.006 c 1
 316.876 729.755 272.333 719.543 237.002 718.006 c 1
437.001 616.008 m 1
 467.594 655.913 483.275 673.141 529.006 696.008 c 0
 549.614 705.864 563.931 711.133 587.849 711.133 c 0
 614.528 711.133 636.071 706.252 649.004 689.008 c 0
 654.337 681.896 657.004 674.637 657.004 667.229 c 0
 657.004 650.026 645.043 632.308 638.003 623.509 c 0
 622.289 603.868 583.206 580.474 560.002 571.509 c 0
 545.335 565.842 531.335 561.675 518.002 559.008 c 1
 514.669 562.341 512.002 566.008 510.002 570.008 c 1
 532.974 586.715 551.106 600.532 565.002 626.007 c 0
 567.632 630.61 568.782 634.842 568.782 638.62 c 0
 568.782 650.794 556.851 658.26 544.062 658.26 c 0
 542.713 658.26 541.355 658.177 540 658.008 c 0
 522.104 656.38 505.922 645.661 493 636.508 c 0
 478.762 626.246 464.465 616.043 450 606.008 c 1
 444.667 608.675 440.334 612.008 437.001 616.008 c 1
EndSplineSet
Ligature2: "'ccmp' Secondary Ligatures 1" uniA64D uniE005
EndChar

StartChar: uni047E
Encoding: 1150 1150 110
Width: 1049
Flags: HW
HStem: -465 29.997<306.449 402.471 605.582 703.101> -103.002 14<607.712 619.004> 489.998 42<297.684 356.69 651.818 708.187> 625.997 155.001<434.007 575.007> 644.997 136.001<222.982 257.584 751.43 786.031> 755.997 25.001<43.0159 101.242 277.007 434.007 575.007 732.007 907.774 966.001>
VStem: 65.0049 142.003<-160.349 208.309> 388.006 25<372.267 440.69> 434.007 141<625.997 755.997> 478.004 52.998<-324.881 -203.523> 596.007 24.993<371.416 442.013> 801.998 142.009<-161.481 204.819>
AnchorPoint: "Numeral" 503 48 basechar 0
AnchorPoint: "Yerok" 503 879 basechar 0
AnchorPoint: "Diacritic" 501 879 basechar 0
LayerCount: 2
Fore
SplineSet
382.006 531.998 m 0xe370
 384.052 531.998 386.243 532.026 388.482 532.026 c 0
 398.633 532.026 409.784 531.444 413.006 524.998 c 1
 413.006 374.998 l 1
 405.006 370.331 396.673 370.331 388.006 374.998 c 1
 388.006 411.998 l 1
 378.118 439.687 363.41 469.988 339.506 483.497 c 0
 331.839 487.83 324.006 489.997 316.006 489.997 c 1
 299.947 485.982 283.398 473.858 272.006 464.997 c 1
 235.067 417.502 225.809 327.125 218.008 252.997 c 1
 211.55 179.372 207.008 94.6538 207.008 15.4971 c 0
 207.008 -93.3702 212.972 -188.105 232.507 -275.503 c 0
 244.495 -329.136 264.014 -380.012 296.005 -412.003 c 0
 311.338 -427.336 329.671 -435.003 351.004 -435.003 c 0
 399.047 -435.003 437.868 -398.326 458.004 -367.003 c 0
 466.004 -354.336 472.671 -339.669 478.004 -323.002 c 1
 474.833 -256.448 458.135 -190.501 431.504 -144.502 c 0
 420.504 -125.502 406.671 -111.669 390.004 -103.002 c 1
 390.004 -89.002 l 1
 619.004 -89.002 l 1
 619.004 -103.002 l 1
 556.204 -134.404 535.16 -235.731 531.002 -323.002 c 1
 541.063 -363.246 566.961 -393.57 597.502 -415.002 c 0
 616.502 -428.335 636.669 -435.002 658.002 -435.002 c 0
 707.531 -435.002 734.841 -391.658 751.5 -353.502 c 0
 794.629 -254.717 801.998 -124.995 801.998 15.498 c 0
 801.998 135.759 796.211 256.755 775.999 359.498 c 0
 768.536 397.434 756.337 440.135 737 464.998 c 1
 725.602 473.863 709.063 485.982 693 489.998 c 1
 661.804 489.998 644.027 462.517 632.5 441 c 0
 627.5 431.667 623.667 422 621 412 c 1
 621 399.333 621 386.667 621 374 c 1
 613 368.667 604.674 368.997 596.007 374.997 c 1
 596.007 524.997 l 1
 598.842 530.669 601.233 530.151 608.006 530.998 c 0
 608.006 531.665 615.339 531.998 630.006 531.998 c 0
 655.325 531.998 669.657 528.744 692.007 519.998 c 0
 779.961 484.268 841.236 408.654 881.507 322.997 c 0
 919.55 242.079 944.007 138.044 944.007 24.998 c 0
 944.007 -96.1228 917.423 -206.521 878.506 -293.002 c 0
 850.008 -356.33 808.291 -409.865 751.007 -442 c 0
 723.674 -457.333 692.674 -465 658.007 -465 c 0
 611.262 -465 577.512 -437.186 554.006 -412 c 0
 532.943 -389.432 514.863 -357.427 507.006 -326 c 1
 502.006 -326 l 1
 480.81 -385.352 448.321 -436.146 389.006 -458 c 0
 376.339 -462.667 363.672 -465 351.005 -465 c 0
 274.071 -465 222.59 -425.632 185.006 -381.001 c 0
 123.438 -307.888 86.9717 -196.592 72.0049 -79.0029 c 0
 67.3379 -42.3359 65.0049 -7.66895 65.0049 24.998 c 0
 65.0049 202.105 120.137 346.993 206.005 441.998 c 0
 238.005 477.331 275.005 503.331 317.005 519.998 c 0
 338.684 528.481 356.203 531.998 382.006 531.998 c 0xe370
434.007 625.997 m 1xf3b0
 434.007 755.997 l 1
 277.007 755.997 l 1xe7b0
 264.007 699.997 l 2
 259.34 679.997 256.34 661.664 255.007 644.997 c 1
 242.007 644.997 l 1xebb0
 193.089 701.848 129.962 741.77 45.0068 761.998 c 1
 43.8134 765.577 42.5002 768.981 42.5002 772.249 c 0
 42.5002 775.273 43.6242 778.179 47.0068 780.998 c 1
 962.007 780.998 l 1xe7b0
 965.392 778.178 966.517 775.275 966.517 772.254 c 0
 966.517 768.99 965.204 765.587 964.007 761.998 c 1
 879.058 741.772 815.921 701.843 767.007 644.997 c 1
 754.007 644.997 l 1xebb0
 752.674 661.664 749.674 679.997 745.007 699.997 c 2
 732.007 755.997 l 1
 575.007 755.997 l 1xe7b0
 575.007 625.997 l 1
 434.007 625.997 l 1xf3b0
EndSplineSet
EndChar

StartChar: uni047F
Encoding: 1151 1151 111
Width: 671
Flags: HW
HStem: 425 20G<178.253 200 387.455 412.999 595.374 621.027> 643 98<91.0029 191.003 312.003 412.003 550.003 559.003> 711 30<68.5797 91.0029 191.003 312.003 412.003 540.671>
VStem: 59.001 100.999<140.603 394.541> 91.0029 100<643 711> 287.999 100<180.098 393.492> 312.003 100<643 711> 543 91<214.399 379.777>
AnchorPoint: "Numeral" 328 240 basechar 0
AnchorPoint: "Diacritic" 585 827.998 basechar 0
AnchorPoint: "Yerok" 585 829 basechar 0
LayerCount: 2
Fore
SplineSet
615 445 m 1x95
 627.054 414.195 634 379.823 634 337 c 0
 634 251.395 603.43 178.75 568.004 125 c 0
 533.954 73.3382 485.547 22.8035 434.003 -6.00098 c 0
 431.781 -7.85247 429.25 -8.77821 426.411 -8.77821 c 0
 424.139 -8.77821 421.67 -8.18548 419.003 -7 c 1
 384.098 19.971 354.689 64.3455 333.003 110 c 1
 301.503 84 l 2
 285.673 70.8996 254.357 50.6658 235.002 39.5 c 0
 206.884 22.8692 182.511 8.2545 152.002 -7 c 0
 149.669 -8.3335 147.502 -9.00024 145.502 -9.00024 c 0
 143.502 -9.00024 141.669 -8.33349 140.002 -7 c 1
 87.9351 68.9885 59.001 169.417 59.001 301 c 0
 59.001 356.278 81.9269 408.926 109.001 436 c 1
 143.452 441.104 160.506 440.456 196 442 c 1
 200 433 l 1
 198 430.333 195.333 427.166 192 423.499 c 2
 182 412.999 l 1
 163.877 363.805 160 329.2 160 264.999 c 0
 160 186.522 187.606 112.84 216.999 62.999 c 1
 239.083 77.1022 268.918 95.4313 286.999 110.498 c 2
 319.999 138.998 l 1
 302.707 185.936 287.999 240.456 287.999 301.997 c 0
 287.999 337.917 292.993 368.978 299.998 396.998 c 1
 324.703 417.211 367.911 441.991 406.999 444.997 c 1
 412.999 437.997 l 1
 410.999 422.664 404.999 407.331 394.999 391.998 c 1
 389.999 347.498 l 2
 388.666 335.165 387.999 320.332 387.999 302.999 c 0
 387.999 228.757 410.402 163.439 440.999 118.499 c 0
 451.666 102.832 463.333 90.999 476 82.999 c 1
 517.935 121.34 543 185.09 543 260.999 c 0
 543 307.654 535.326 347.682 521.999 380.999 c 1
 513.349 386.767 508.061 388.282 499.999 395 c 1
 497.999 403 l 1
 529.407 420.948 575.747 435.187 615 445 c 1x95
550.003 641 m 1
 550.003 666.471 544.599 700.385 530.003 711 c 1
 412.003 711 l 1xab
 412.003 643 l 1
 312.003 643 l 1xcb
 312.003 711 l 1
 191.003 711 l 1xab
 191.003 643 l 1
 91.0029 643 l 1xcb
 91.0029 711 l 1
 76.0029 711 l 1
 71.1936 714.435 68.5641 720.535 68.5641 726.542 c 0
 68.5641 732.223 70.9169 737.821 76.0029 741 c 1
 639.003 741 l 1
 643.003 737.667 645.003 732.667 645.003 726 c 0
 645.003 719.333 643.003 714.333 639.003 711 c 2xab
 559.003 641 l 1
 550.003 641 l 1
EndSplineSet
EndChar

StartChar: uni0482
Encoding: 1154 1154 112
Width: 376
Flags: W
LayerCount: 2
Fore
SplineSet
220 -129 m 1
 374 71 l 1
 386.667 69.667 394.667 63.667 398 53 c 1
 246 -145 l 1
 343 -203 l 1
 343 -211 l 1
 260 -256 l 1
 193 -215 l 1
 130 -297 l 1
 222 -351 l 1
 222 -359 l 1
 133 -407 l 1
 73 -372 l 1
 -76 -567 l 1
 -76.6003 -567.033 -77.1905 -567.05 -77.7708 -567.05 c 0
 -88.7903 -567.05 -96.2001 -561.033 -100 -549 c 1
 47 -356 l 1
 -51 -299 l 1
 -51 -291 l 1
 38 -243 l 1
 104 -281 l 1
 166 -199 l 1
 66 -139 l 1
 66 -131 l 1
 149 -86 l 1
 220 -129 l 1
EndSplineSet
Validated: 1
EndChar

StartChar: uni0483
Encoding: 1155 1155 113
Width: 0
Flags: HW
HStem: 705 30<-42 -15.5042>
VStem: -373 100<638 718> -142 100<741 822>
AnchorPoint: "Stacking" -193 622 mark 0
AnchorPoint: "Stacking" -197 884 basemark 0
AnchorPoint: "Diacritic" -194 622 mark 0
LayerCount: 2
Fore
SplineSet
-373 638 m 1
 -373.001 724.001 l 1
 -411.001 726.001 l 1
 -413.813 729.375 -415.037 734.082 -415.037 738.881 c 0
 -415.037 745.5 -412.707 752.293 -409 756 c 1
 -142 741 l 1
 -142 822 l 1
 -42 822 l 1
 -42 736 l 1
 -20 735 l 1
 -17.184 730.494 -15.4913 724.716 -15.4913 719.282 c 0
 -15.4913 713.468 -17.4286 708.048 -22 705 c 1
 -273 718 l 1
 -273 638 l 1
 -373 638 l 1
EndSplineSet
EndChar

StartChar: uni0486
Encoding: 1158 1158 114
Width: 1
Flags: HW
HStem: 631.999 173
VStem: -284.616 72.6178<704.677 778.973>
AnchorPoint: "Stacking" -314 599 mark 0
AnchorPoint: "Stacking" -308 871 basemark 0
AnchorPoint: "Diacritic" -314 598 mark 0
LayerCount: 2
Fore
SplineSet
-314.998 643.999 m 1
 -306.005 655.241 -284.616 685.794 -284.616 709.196 c 0
 -284.616 718.185 -287.772 726.12 -295.999 731.499 c 0
 -304.666 737.166 -313.333 738.333 -322 735 c 0
 -344.667 727 -364 715.167 -380 699.5 c 2
 -427 652 l 1
 -443 664 l 1
 -419.958 710.083 -388.559 752.624 -345.998 780.998 c 0
 -318.288 799.472 -299.743 804.999 -259.998 804.999 c 0
 -236.311 804.999 -211.998 790.947 -211.998 766.999 c 0
 -211.998 736.247 -222.888 719.988 -236.998 699.999 c 0
 -253.454 675.315 -278.587 648.433 -300.998 631.999 c 1
 -314.998 643.999 l 1
EndSplineSet
EndChar

StartChar: uni0487
Encoding: 1159 1159 115
Width: 0
Flags: HW
HStem: 973.924 54.2921<-284.263 -198.211>
VStem: -414 98<842.065 935.559>
AnchorPoint: "Stacking" -208 678 mark 0
AnchorPoint: "Stacking" -222 950 basemark 0
AnchorPoint: "Diacritic" -206 678 mark 0
LayerCount: 2
Fore
SplineSet
-414 719.000976562 m 0
 -414 757.893554688 -406.947265625 781.903320312 -391 808 c 1
 -373.297851562 821.633789062 -354.71875 834.389648438 -335.997070312 847.00390625 c 1
 -299.497070312 869.00390625 l 1
 -261.997070312 887 l 1
 -246.126953125 892.6796875 -233.051757812 898.219726562 -213.737304688 898.219726562 c 0
 -211.573242188 898.219726562 -209.331054688 898.150390625 -206.998046875 898 c 0
 -159.690429688 896.360351562 -119.442382812 881.6796875 -88.998046875 858.001953125 c 0
 -69.421875 843.411132812 -49.5634765625 829.103515625 -29.498046875 815.001953125 c 0
 -10.6591796875 801.673828125 7.958984375 788.125976562 26.001953125 774.001953125 c 1
 58.134765625 759.596679688 81.8251953125 751.57421875 114.001953125 744.001953125 c 1
 115.6484375 735.772460938 116.70703125 732.204101562 116.70703125 727.698242188 c 0
 116.70703125 724.5546875 116.192382812 720.956054688 115.000976562 715.001953125 c 1
 87.80078125 709.001953125 61.4404296875 706.001953125 35.9208984375 706.001953125 c 0
 18.9072265625 706.001953125 2.267578125 707.334960938 -13.9990234375 710.001953125 c 1
 -91.59765625 736.67578125 -150.344726562 805.796875 -223.499023438 834.501953125 c 0
 -239.505859375 840.783203125 -255.081054688 843.923828125 -270.224609375 843.923828125 c 0
 -279.995117188 843.923828125 -289.586914062 842.616210938 -298.999023438 840.001953125 c 1
 -311.780273438 806.306640625 -314.361328125 770.958984375 -316 730.000976562 c 1
 -333.333007812 714.000976562 -350.333007812 702.333984375 -367 695.000976562 c 0
 -378.458984375 689.959960938 -389.602539062 687.439453125 -400.430664062 687.439453125 c 0
 -405.3515625 687.439453125 -410.208007812 687.959960938 -415 689.000976562 c 1
 -414.333007812 699.66796875 -414 709.66796875 -414 719.000976562 c 0
EndSplineSet
EndChar

StartChar: uniA64C
Encoding: 42572 42572 116
Width: 1049
Flags: HW
HStem: -465 30<306.403 402.446 606.695 703.356> -103 14<607.63 619> 490 42<297.679 356.691 650.917 708.185>
VStem: 65 142<-160.427 208.231> 388 25<372.074 440.812> 478 53<-324.868 -199.626> 596 25<371.47 443.076> 802 142<-161.67 204.824>
AnchorPoint: "Numeral" 506 48 basechar 0
AnchorPoint: "Yerok" 863 699 basechar 0
AnchorPoint: "Diacritic" 501 699 basechar 0
LayerCount: 2
Fore
SplineSet
382 532 m 0
 384 532 386 532 388 532 c 0
 399 532 410 531 413 525 c 1
 413 375 l 1
 405 370 397 370 388 375 c 1
 388 412 l 1
 378 440 363 470 340 483 c 0
 332 488 324 490 316 490 c 1
 300 486 283 474 272 465 c 1
 235 418 226 327 218 253 c 1
 218 179 207 95 207 15 c 0
 207 -93 213 -188 233 -276 c 0
 244 -329 264 -380 296 -412 c 0
 311 -427 330 -435 351 -435 c 0
 399 -435 438 -398 458 -367 c 0
 466 -354 473 -340 478 -323 c 1
 478 -256 458 -191 432 -145 c 0
 421 -126 407 -112 390 -103 c 1
 390 -89 l 1
 619 -89 l 1
 619 -103 l 1
 556 -134 531 -236 531 -323 c 1
 541 -363 567 -394 598 -415 c 0
 617 -428 637 -435 658 -435 c 0
 708 -435 735 -392 752 -354 c 0
 795 -255 802 -125 802 15 c 0
 802 136 796 257 776 359 c 0
 769 397 756 440 737 465 c 1
 726 474 709 486 693 490 c 1
 662 490 644 463 632 441 c 0
 628 432 624 422 621 412 c 1
 621 399 621 387 621 374 c 1
 613 369 605 369 596 375 c 1
 596 525 l 1
 599 531 601 530 608 531 c 0
 608 532 615 532 630 532 c 0
 655 532 670 529 692 520 c 0
 780 484 841 409 882 323 c 0
 920 242 944 138 944 25 c 0
 944 -96 917 -207 879 -293 c 0
 850 -356 808 -410 751 -442 c 0
 724 -457 693 -465 658 -465 c 0
 611 -465 578 -437 554 -412 c 0
 533 -389 515 -357 507 -326 c 1
 502 -326 l 1
 481 -385 448 -436 389 -458 c 0
 376 -463 364 -465 351 -465 c 0
 274 -465 223 -426 185 -381 c 0
 123 -308 87 -197 72 -79 c 0
 67 -42 65 -8 65 25 c 0
 65 202 120 347 206 442 c 0
 238 477 275 503 317 520 c 0
 339 528 356 532 382 532 c 0
EndSplineSet
EndChar

StartChar: uniA64D
Encoding: 42573 42573 117
Width: 855
Flags: HW
HStem: -3 77<598.569 668.884> -3 63<213.534 268.2> 361 30<535.354 596.649> 430 20G<231 277.5>
VStem: 48 95<133.554 276.032> 733 77<139.501 278.305>
AnchorPoint: "Numeral" 448 240 basechar 0
AnchorPoint: "Diacritic" 435 642.998 basechar 0
AnchorPoint: "Yerok" 725 644 basechar 0
LayerCount: 2
Fore
SplineSet
205 369 m 1x7c
 175 348 143 300 143 251 c 0
 143 158 167 98 234 71 c 0
 252 64 271 60 290 60 c 1x7c
 327 73 364 87 400 102 c 1
 452 125 l 2
 469 133 483 140 495 147 c 0
 498 149 502 149 508 148 c 1
 541 123 584 98 630 84 c 0
 647 78 666 74 685 74 c 1
 702 85 715 97 727 113 c 1
 731 132 733 154 733 178 c 0
 733 263 698 317 649 353 c 0
 635 363 621 371 606 377 c 1
 585 370 567 365 544 361 c 1
 539 365 535 372 535 380 c 0
 535 384 536 387 538 391 c 1
 585 398 627 414.998 662 436.998 c 0
 670 441.998 679 447 688 452 c 1
 693 450 698 446 702 444 c 0
 761 405 810 341 810 243 c 0
 810 190 801 151 774 119 c 0
 737 75 686 22 631 -3 c 1
 624 -3 l 1xbc
 547 1 464 39 413 73 c 1
 355 50 295 26 234 7 c 0
 213 0 190 -3 167 -3 c 0
 116 -3 82 31 66 66 c 0
 54 93 48 128 48 163 c 0
 48 201 55 239 66 267 c 0
 74 286 84 307 96 321 c 2
 135 364 l 1
 170 401 206 428 256 450 c 1
 299 443 313 437 352 424 c 1
 353 416 l 1
 337 383 318 356 299 330 c 1
 276 343 233 362 205 369 c 1x7c
EndSplineSet
EndChar

StartChar: uniA651
Encoding: 42577 42577 118
Width: 746
Flags: HW
HStem: -0 30<284 341> 407 30<169.891 297> 425 20G<659 677>
VStem: 510 110<-1.1517 253.182>
AnchorPoint: "Numeral" 408 240 basechar 0
AnchorPoint: "Diacritic" 485 642.998 basechar 0
AnchorPoint: "Yerok" 605 644 basechar 0
LayerCount: 2
Fore
SplineSet
554 390 m 0xb0
 558 411 561 423 562 428 c 1
 591 436 642 442 676 445 c 1
 677 438 l 1
 659 402 649 360 642 325 c 0
 632 267 620 167 620 97 c 0
 620 66 621 33 623 -0 c 1
 604 -1 588 -2 575 -2 c 2
 565 -2 l 2
 546 -2 527 -1 510 -0 c 1
 512 55 514 89 516 104 c 0
 523 180 527 219 528 220 c 0
 533 269 541 325 554 390 c 0xb0
173 407 m 1xd0
 162 365 150 268 150 217 c 0
 151 211 151 207 151 205 c 0
 151 197 81 183 53 181 c 1
 48 186 l 1
 59 257 72 361 80 437 c 1
 432 437 l 1
 435 430 l 1
 392 373 352 303 327 228 c 2
 318 201 l 1
 330 206 342 211 354 215 c 2
 393 227 l 2
 394 227 l 0
 402 227 407 194 412 168 c 0
 424 115 435 56 442 -0 c 1
 177 -0 l 1
 177 9 l 1
 188 91 214 174 238 251 c 0
 255 306 276 360 297 407 c 1
 173 407 l 1xd0
341 30 m 1
 336 71 330 121 318 154 c 0
 316 159 313 162 308 165 c 1
 298 121 290 76 284 30 c 1
 341 30 l 1
EndSplineSet
EndChar

StartChar: uniA650
Encoding: 42576 42576 119
Width: 917
Flags: HW
HStem: -455 25<65 126 254 384 510 541 606 661 793 847.999> 495 25<274 351 468 532 633 687 807 863>
VStem: 384 126<-430 -39> 661 132<-430 -180.962> 687 120<245.962 495>
AnchorPoint: "Numeral" 508 48 basechar 0
AnchorPoint: "Yerok" 743 699 basechar 0
AnchorPoint: "Diacritic" 551 699 basechar 0
LayerCount: 2
Fore
SplineSet
468 495 m 1xe0
 368 62 l 1
 381 24 410 4 444 -12 c 0
 461 -21 479 -27 500 -32 c 1
 504 -39 l 1
 510 -430 l 1
 541 -430 l 1
 541 -455 l 1
 65 -455 l 1
 65 -430 l 1
 126 -430 l 1
 351 495 l 1
 274 495 l 1
 225 294 l 1
 214 294 l 1
 185 380 155 441 100 505 c 0
 97 508 99 510 99 514 c 0
 99 516 99 518 100 520 c 1
 532 520 l 1
 532 495 l 1
 468 495 l 1xe0
370 10 m 2
 361 19 367 13 360 25 c 1
 254 -430 l 1
 384 -430 l 1
 382 -3 l 1
 370 10 l 2
606 -455 m 1
 606 -430 l 1
 661 -430 l 1xf0
 687 495 l 1
 633 495 l 1
 633 520 l 1
 863 520 l 1
 863 495 l 1
 807 495 l 1xe8
 793 -430 l 1xf0
 847.999 -430 l 1
 847.999 -455 l 1
 606 -455 l 1
EndSplineSet
EndChar

StartChar: uniA653
Encoding: 42579 42579 120
Width: 590
Flags: HW
HStem: 0 30<329 381> 407 29.998<38.2159 63 154 275 376 450.714>
VStem: 63 93<50.875 407> 275 96<273.78 407 436.998 511.038>
AnchorPoint: "Numeral" 298 240 basechar 0
AnchorPoint: "Diacritic" 185 642.998 basechar 0
AnchorPoint: "Yerok" 495 644 basechar 0
LayerCount: 2
Fore
SplineSet
156 42 m 1
 131 30 90 17 59 11 c 1
 52 14 l 1
 53 21 54 32 55 46 c 2
 57 85 l 2
 61 163 63 279 63 382 c 0
 63 395 63 403 63 407 c 1
 44 407 l 1
 40 410 38 415 38 419 c 0
 38 426 41 432.998 46 436.998 c 1
 281 436.998 l 1
 313 596.998 352 744 402 876 c 1
 428 884 481 893 512 893 c 1
 517 885 l 1
 455 755 408 597.998 376 436.998 c 1
 583 436.998 l 2
 586 436.998 588 434 588 431 c 0
 588 429 587 426 586 425 c 0
 563 402 541 378 519 353 c 1
 490 316 l 1
 469 282 l 2
 468 280 465 279 462 279 c 0
 458 279 456 280 456 282 c 0
 455 287 455 293 455 301 c 0
 455 318 455 334 455 351 c 2
 454 371 l 1
 452 390 451 399 440 407 c 1
 371 407 l 1
 357 339 348 269 341 198 c 1
 362 208 396 220 420 227 c 0
 424 228 426 228 427 225 c 0
 451 158 474 79 485 0 c 1
 229 0 l 1
 237 144 249 268 275 407 c 1
 154 407 l 1
 155 392 156 358 156 305 c 0
 156 272 155 224 155 194 c 0
 155 154 156 126 156 110 c 2
 156 42 l 1
337 164 m 1
 334 119 331 73 329 30 c 1
 381 30 l 1
 377 46 374 67 370 84 c 0
 365 103 361 122 356 141 c 0
 353 152 349 161 337 164 c 1
EndSplineSet
EndChar

StartChar: uniA656
Encoding: 42582 42582 121
Width: 818
Flags: HW
HStem: -455 25<58 113 245 280 302 338.347 455 499 523 575 686 760> 274 25<257 362.811 461.15 566> 495 25<85 139 259 315 514 571 686 739>
VStem: 113 132<-430 -180.962> 139 117<245.962 274 299 495> 575 111<-430 -71 -53.9726 232 299 495>
AnchorPoint: "Numeral" 426 48 basechar 0
AnchorPoint: "Yerok" 623 699 basechar 0
AnchorPoint: "Diacritic" 431 699 basechar 0
LayerCount: 2
Fore
SplineSet
359 299 m 1xec
 365 320 385 339 412 339 c 0
 439 339 458 320 464 299 c 1
 571 299 l 1
 571 495 l 1
 514 495 l 1
 514 520 l 1
 739 520 l 1
 739 495 l 1
 686 495 l 1
 686 -430 l 1
 760 -430 l 1
 760 -455 l 1
 523 -455 l 1
 523 -430 l 1
 575 -430 l 1
 575 -71 l 1
 537 -102 507 -146 487 -193 c 1
 502 -200 522 -214 522 -234 c 0
 522 -237 522 -241 521 -244 c 0
 516 -264 499 -272 475 -272 c 0
 472 -272 468 -271 465 -271 c 1
 459 -300 455 -339 455 -371 c 1
 455 -430 l 1
 499 -430 l 1
 499 -455 l 1
 302 -455 l 1
 302 -430 l 1
 334 -430 l 1
 357 -371 383 -309 411 -255 c 1
 395 -247 374 -234 374 -212 c 0
 374 -186 392 -176 418 -176 c 0
 425 -176 432 -177 439 -178 c 1
 440 -175 440 -171 440 -167 c 0
 440 -164 440 -160 441 -156 c 1
 439 -147 435 -136 430 -125 c 2
 414 -90 l 2
 403 -67 392 -38 392 -4 c 0
 392 25 402 59 416 76 c 0
 437 102 459 127 482 152 c 0
 501 172 520 193 539 214 c 1
 552 241 l 2
 557 253 562 264 566 274 c 1
 465 274 l 1
 460 250 440 231 412 231 c 0
 384 231 364 250 359 274 c 1
 256 274 l 1xec
 245 -430 l 1
 280 -430 l 1
 280 -455 l 1
 58 -455 l 1
 58 -430 l 1
 113 -430 l 1xf4
 139 495 l 1
 85 495 l 1
 85 520 l 1
 315 520 l 1
 315 495 l 1
 259 495 l 1
 257 299 l 1
 359 299 l 1xec
463 -179 m 1
 484 -129 532 -71 575 -36 c 1
 573 232 l 1
 566 213 l 2
 539 148 518 100 496 30 c 0
 481 -19 478 -70 471 -127 c 0
 468 -144 466 -162 463 -179 c 1
EndSplineSet
EndChar

StartChar: uniA657
Encoding: 42583 42583 122
Width: 544
Flags: HW
HStem: 421 20G<156.5 175.5 456 472.5>
VStem: 45 99<-2.30341 241.616> 97 103<353.203 436.722> 223 90<25.3767 58> 366 106<348.638 429.655> 379 95<211.141 268>
AnchorPoint: "Numeral" 268 240 basechar 0
AnchorPoint: "Diacritic" 305 642.998 basechar 0
AnchorPoint: "Yerok" 425 644 basechar 0
LayerCount: 2
Fore
SplineSet
144 0 m 1xd4
 126 -2 110 -4 92 -4 c 0
 75 -4 61 -2 45 0 c 1
 45 6 45 13 45 21 c 0xd4
 45 121 58 223 71 313 c 0
 77 355 85 402 97 433 c 1
 126 438 142 441 171 441 c 0
 180 441 189 441 200 440 c 1
 186 396 177 350 168 294 c 1
 351 294 l 1
 360 308 367 323 372 340 c 1
 370 370 369 400 366 428 c 1
 391 435 440 443 472 443 c 1xb8
 473 414 474 382 474 347 c 0
 474 267 481 170 488 95 c 0
 492 50 496 15 500 -12 c 1
 485 -14 469 -15 451 -15 c 0
 433 -15 416 -14 401 -12 c 1
 395 42 389 102 383 169 c 1
 364 143 347 117 330 87 c 0
 325 79 322 69 319 58 c 2
 313 33 l 1
 298 29 286 24 277 17 c 2
 248 -3 l 1
 235 -2 224 2 223 16 c 1
 231 87 247 140 280 189 c 2
 329 261 l 1
 164 245 l 1
 154 173 144 88 144 13 c 0
 144 9 144 4 144 0 c 1xd4
376 268 m 1
 373 267 371 266 370 266 c 1
 368 263 366 261 365 258 c 0
 343 223 318 186 302 148 c 0
 298 139 296 133 296 129 c 1
 298 124 301 121 304 121 c 0
 308 121 313 125 319 129 c 1
 324 134 333 145 344 162 c 0
 355 179 367 195 380 211 c 1
 379 214 379 217 379 220 c 2
 379 229 l 1
 376 268 l 1
EndSplineSet
EndChar

StartChar: uniA65E
Encoding: 42590 42590 123
Width: 907
Flags: HW
HStem: -725 23<345 400 532 587> -455 23<49 105.734 239 291 649 704 843 899> 496 24<342 398.806 516 571>
VStem: 400 132<-702 174> 704 139<-432 -208.065>
AnchorPoint: "Numeral" 466 48 basechar 0
AnchorPoint: "Yerok" 754 699 basechar 0
AnchorPoint: "Diacritic" 461 699 basechar 0
LayerCount: 2
Fore
SplineSet
337 77 m 1
 311 27 288 -35 277 -87 c 0
 258 -176 250 -221 246 -317 c 0
 243 -355 241 -393 239 -432 c 1
 291 -432 l 1
 291 -455 l 1
 49 -455 l 1
 49 -432 l 1
 105 -432 l 1
 120 -228 177 -60 260 68 c 0
 310 144 358 242 392 334 c 0
 403 362 410 388 415 412 c 1
 407 441 401 469 397 496 c 1
 342 496 l 1
 342 520 l 1
 571 520 l 1
 571 496 l 1
 516 496 l 1
 539 411 560 367 604 300 c 0
 682 181 728 100 774 -33 c 0
 815 -150 842 -279 843 -432 c 1
 899 -432 l 1
 899 -455 l 1
 649 -455 l 1
 649 -432 l 1
 704 -432 l 1
 704 -410 704 -388 704 -366 c 0
 704 -302 691 -217 682 -175 c 0
 653 -43 610 49 553 142 c 1
 532 177 l 1
 532 -702 l 1
 587 -702 l 1
 587 -725 l 1
 345 -725 l 1
 345 -702 l 1
 400 -702 l 1
 400 174 l 1
 385 159 375 146 368 134 c 2
 337 77 l 1
EndSplineSet
EndChar

StartChar: uniA65F
Encoding: 42591 42591 124
Width: 642
Flags: HW
HStem: -373 35<196.438 239.963> 421 20G<238.5 257>
VStem: 34.002 92.998<-2.29614 74.3529> 254 100<-293.315 244> 487.002 114.998<-3.26172 67.402>
AnchorPoint: "Numeral" 298 240 basechar 0
AnchorPoint: "Diacritic" 305 642.998 basechar 0
AnchorPoint: "Yerok" 425 644 basechar 0
LayerCount: 2
Fore
SplineSet
254 250 m 1
 246 239 238 227 230 215 c 0
 227 211 226 209 225 208 c 0
 216 199 206 186 197 170 c 0
 176 133 153 112 138 59 c 0
 132 40 130 19 127 0 c 1
 113 -2 99 -3 85 -3 c 2
 62 -3 l 2
 57 -4 47.002 -3 34.002 0 c 1
 34.002 41 54 77 75 103 c 0
 94 126 113 148 132 170 c 0
 152 193 172 215 193 237 c 0
 220 266 243 296 262 326 c 0
 266 333 274 350 277 359 c 1
 256 410 261 393 236 431 c 0
 233 435 237 441 240 441 c 0
 274 441 325 440.998 356 436.998 c 1
 377 388.998 398 345 427 302 c 0
 469 239 509 193 554 130 c 0
 584 87 602 44 602 0 c 1
 595 -2 583 -4 566 -4 c 1
 532 -4 l 2
 513 -4 498.002 -3 487.002 0 c 1
 480.002 40 471 56 456 88 c 0
 446 109 434 129 420 149 c 0
 398 180 375 211 354 244 c 1
 354 -120 l 2
 354 -203 352 -251 347 -264 c 0
 330 -312 276 -366 210 -373 c 1
 201 -368 196 -361 196 -351 c 1
 198 -344 202 -339 208 -338 c 0
 235 -331 251 -316 251 -291 c 0
 251 -254 254 -220 254 -188 c 2
 254 250 l 1
EndSplineSet
EndChar

StartChar: uniA66F
Encoding: 42607 42607 125
Width: 0
Flags: HW
HStem: 700.819 119.586
VStem: -599.373 100.005<700.819 764.434> -287.392 124.992<705.477 785.914>
AnchorPoint: "Stacking" -403 664 mark 0
AnchorPoint: "Stacking" -397 936 basemark 0
AnchorPoint: "Diacritic" -402 664 mark 0
LayerCount: 2
Fore
SplineSet
-499.314 771.339 m 1
 -499.368 700.819 l 1
 -599.373 700.731 l 1
 -599.299 764.434 l 1
 -631.045 762.24 l 1
 -635.446 766.537 -637.745 771.007 -637.745 775.675 c 0
 -637.745 779.374 -636.301 783.197 -633.316 787.156 c 1
 -582.373 792.696 l 1
 -143.648 820.405 l 1
 -138.227 817.391 -135.982 813.521 -135.982 809.153 c 0
 -135.982 804.953 -138.057 800.293 -141.378 795.49 c 1
 -163.365 794.254 l 1
 -162.399 705.477 l 1
 -287.392 704.119 l 1
 -288.282 785.914 l 1
 -499.314 771.339 l 1
EndSplineSet
EndChar

StartChar: uniA673
Encoding: 42611 42611 126
Width: 1
Flags: W
HStem: 518 319
VStem: -247 306
LayerCount: 2
Fore
SplineSet
-23 674 m 1
 53 586 l 1
 -64 613 l 1
 -97 518 l 1
 -135 617 l 1
 -247 584 l 1
 -170 678 l 1
 -245 767 l 1
 -130 739 l 1
 -95 837 l 1
 -61 738 l 1
 59 761 l 1
 -23 674 l 1
-47 710 m 1
 -80 709 l 1
 -96 736 l 1
 -112 709 l 1
 -143 709 l 1
 -127 677 l 1
 -146 651 l 1
 -111 651 l 1
 -96 623 l 1
 -81 652 l 1
 -49 650 l 1
 -67 676 l 1
 -47 710 l 1
EndSplineSet
Validated: 1
EndChar

StartChar: uniA675
Encoding: 42613 42613 127
Width: 0
Flags: HW
HStem: 687 276
AnchorPoint: "Stacking" -150 662 mark 0
AnchorPoint: "Stacking" -144 1034 basemark 0
AnchorPoint: "Diacritic" -150 662 mark 0
LayerCount: 2
Fore
SplineSet
-347 851 m 1
 -151 748 l 1
 -151 736 l 1
 -238 687 l 1
 -434 790 l 1
 -434 802 l 1
 -347 851 l 1
-175 963 m 1
 21 860 l 1
 21 848 l 1
 -66 799 l 1
 -262 902 l 1
 -262 914 l 1
 -175 963 l 1
EndSplineSet
EndChar

StartChar: uniA67C
Encoding: 42620 42620 128
Width: 0
Flags: HW
HStem: 575 30<-233.864 -161.636>
VStem: -349.995 82.995<633.214 715.238> -130.999 81.999<629.056 715.238>
AnchorPoint: "Stacking" -198 532 mark 0
AnchorPoint: "Stacking" -192 801 basemark 0
AnchorPoint: "Diacritic" -196 532 mark 0
LayerCount: 2
Fore
SplineSet
-199 575 m 1
 -227 575 l 2
 -301 575 -349.995 618 -349.995 688 c 0
 -349.995 697 -351.995 705 -349.995 712 c 1
 -338.995 715 -322 716 -307 716 c 0
 -292 716 -278 715 -267 712 c 1
 -267 671 -254 634 -230 615 c 0
 -222 608 -212 605 -199 605 c 0
 -149 605 -130.999 662 -130.999 712 c 1
 -119.999 715 -106 716 -91 716 c 0
 -76 716 -62 715 -51 712 c 1
 -50 705 -49 698 -49 690 c 0
 -49 664 -53 648 -66 626 c 1
 -86 596 -120 575 -171 575 c 2
 -199 575 l 1
EndSplineSet
EndChar

StartChar: uniA67D
Encoding: 42621 42621 129
Width: 0
Flags: HW
HStem: 624.002 241.998
VStem: -94 69<624.096 712.933>
AnchorPoint: "Stacking" -60 615 mark 0
AnchorPoint: "Stacking" -54 987 basemark 0
AnchorPoint: "Yerok" -58 615 mark 0
LayerCount: 2
Fore
SplineSet
-62 624.002 m 2
 -72 624.002 -83 624.002 -89 624.002 c 0
 -92 624.002 -94 623.002 -94 624.002 c 0
 -94 625.002 -94.999 629 -93.999 635 c 0
 -88.999 658 -82 677 -79 690 c 2
 -69 725 l 1
 -55 764 l 1
 -84 769 -103 782 -114 802 c 0
 -123 820 -128 832 -128 838 c 2
 -128 839 l 1
 -128 849 -124 862 -114 862 c 0
 -113 862 -113 862 -112 862 c 0
 -105 861 -100.999 861 -93.999 861 c 0
 -86.999 861 -78 861 -71 862 c 0
 -68 862 -67 860 -66 855 c 0
 -64 836 -61 804 -45 804 c 0
 -43 804 -41 806 -39 810 c 0
 -26 837 -20 850 -19 851 c 0
 -12 858 -2 866 18 866 c 0
 26 866 33 868 38 868 c 0
 45 868 49 866 51 861 c 0
 52 859 52 857 52 856 c 0
 52 854 52 852 51 851 c 0
 48 846 42 838 34 827 c 0
 6 790 -2 757 -14 693 c 0
 -21 656 -25 636 -25 635 c 2
 -25 634 l 2
 -26 629 -27 626.002 -30 624.002 c 1
 -62 624.002 l 2
EndSplineSet
EndChar

StartChar: uniA67E
Encoding: 42622 42622 130
Width: 420
Flags: W
HStem: 577 30<179.806 252.889>
VStem: 64 83<633.324 717.125> 283.002 81.998<631.125 717.238>
LayerCount: 2
Fore
SplineSet
243 577 m 0
 224 577 206 577 187 577 c 0
 135 577 101 598 82 628 c 0
 70 647 64 665 64 690 c 0
 64 699 65 707 67 714 c 1
 78 717 92 718 107 718 c 0
 122 718 136 717 147 714 c 1
 147 673 160 636 184 617 c 0
 192 610 202 607 215 607 c 0
 265 607 283.002 664 283.002 714 c 1
 294.002 717 308 718 323 718 c 0
 338 718 352 717 363 714 c 1
 365 708 365 700 365 692 c 0
 365 643 342 612 308 592 c 0
 292 582 270 577 243 577 c 0
EndSplineSet
Validated: 1
EndChar

StartChar: uniA67F
Encoding: 42623 42623 131
Width: 224
Flags: W
HStem: 624.002 241.998
VStem: 56 69<624.096 712.933>
LayerCount: 2
Fore
SplineSet
88 624.002 m 2
 78 624.002 67 624.002 61 624.002 c 0
 58 624.002 56 623.002 56 624.002 c 0
 56 625.002 55.001 629 56.001 635 c 0
 61.001 658 68 677 71 690 c 2
 81 725 l 1
 95 764 l 1
 66 769 47 782 36 802 c 0
 27 820 22 832 22 838 c 2
 22 839 l 1
 22 849 26 862 36 862 c 0
 37 862 37 862 38 862 c 0
 45 861 49.001 861 56.001 861 c 0
 63.001 861 72 861 79 862 c 0
 82 862 83 860 84 855 c 0
 86 836 89 804 105 804 c 0
 107 804 109 806 111 810 c 0
 124 837 130 850 131 851 c 0
 138 858 148 866 168 866 c 0
 176 866 183 868 188 868 c 0
 195 868 199 866 201 861 c 0
 202 859 202 857 202 856 c 0
 202 854 202 852 201 851 c 0
 198 846 192 838 184 827 c 0
 156 790 148 757 136 693 c 0
 129 656 125 636 125 635 c 2
 125 634 l 2
 124 629 123 626.002 120 624.002 c 1
 88 624.002 l 2
EndSplineSet
Validated: 1
EndChar

StartChar: u1F540
Encoding: 128320 128320 132
Width: 925
Flags: W
HStem: -410.81 65.81<318.442 567.854> -249 96<488 529.984> -24 94<128.016 170.005 720 761.301> -0 50<259 418 468 631> 206 96<488 529.984> 409.126 65.874<315.981 565.977>
VStem: 0.200195 64.7998<-93.0957 152.156> 170.005 95.995<70 111.984> 394 94<-290.301 -249 302 343.301> 418.003 49.997<-160 0 50 213> 624.002 95.998<70 111.984> 818.137 66.863<-91.3705 158.425>
LayerCount: 2
Fore
SplineSet
722 70 m 2xef70
 748 70 769 49 769 23 c 0
 769 -3 749 -24 723 -24 c 1xef70
 720 -46 700 -67 676 -67 c 0
 650 -67 627 -46 627 -20 c 0
 627 -12 628 -5 632 -0 c 1
 468 -0 l 1
 468 -160 l 1xdf70
 473 -155 481 -153 491 -153 c 0
 517 -153 538 -175 538 -201 c 0
 538 -227 517 -249 491 -249 c 2
 488 -249 l 1
 488 -251 l 2
 488 -277 467 -298 441 -298 c 0
 415 -298 394 -278 394 -252 c 1
 372 -249 351 -229 351 -205 c 0
 351 -179 372 -156 398 -156 c 0
 406 -156 413 -157 418 -161 c 1
 418 -0 l 1
 258 -0 l 1xdfb0
 262 -5 263 -12 263 -20 c 0
 263 -46 240 -67 214 -67 c 0
 190 -67 170 -46 167 -24 c 1
 141 -24 120 -3 120 23 c 0
 120 49 142.999 70 168.999 70 c 2
 170.005 70 l 1xefb0
 170.005 73 l 2
 170.005 99 192 120 218 120 c 0
 244 120 266 99 266 73 c 0
 266 63 264 55 259 50 c 1
 418.003 50 l 1
 418.003 214 l 1xdf70
 413.003 210 406 209 398 209 c 0
 372 209 351 232 351 258 c 0
 351 282 372.004 302 394.004 305 c 1
 394.004 331 415 351 441 351 c 0
 467 351 488 330 488 304 c 2
 488 302 l 1xdfb0
 491 302 l 2
 517 302 538 280 538 254 c 0
 538 228 517 206 491 206 c 0
 481 206 473 208 468 213 c 1
 468 50 l 1
 631 50 l 1xdf70
 626 55 624.002 63 624.002 73 c 0
 624.002 99 646 120 672 120 c 0
 698 120 720 99 720 73 c 2
 720 70 l 1
 722 70 l 2xef70
726 371 m 0
 814 298 885 185 885 30 c 0
 885 -89 839 -179.001 782 -249.001 c 0
 714 -329.001 611 -410.81 481 -410.81 c 0
 467 -410.81 454 -410.81 440 -410.81 c 0
 321 -410.81 228 -365 159 -307 c 0
 71 -234 0.200195 -121 0.200195 34 c 0
 0.200195 153 46 246 104 315 c 0
 176 403 291 475 444 475 c 0
 563 475 657 429 726 371 c 0
818.137 33 m 0
 818.137 152 765 244 701 305 c 0
 640 362 552 409.126 441 409.126 c 0
 321 409.126 231.005 356 170.005 291 c 0
 112.005 229 65 139 65 26 c 0
 65 -89 120 -181 183 -241 c 0
 243 -298 331 -345 442 -345 c 0
 562 -345 654 -292 715 -227 c 0
 771 -166 818.137 -78 818.137 33 c 0
EndSplineSet
Validated: 1
EndChar

StartChar: u1F541
Encoding: 128321 128321 133
Width: 928
Flags: W
HStem: -402 66<318.936 569.119> -248 96<484 525.984> -23 94<124.699 166 716 757.301> 1 50<255 414 464 627> 207 96<484 525.984>
VStem: 0 69<-79.664 80> 166 96<71 112.984> 390 94<-289.301 -248 303 344.301> 414 50<-159 1 51 214> 620 96<71 112.984> 822 66<-81.4435 80>
LayerCount: 2
Fore
SplineSet
69 63 m 2xde60
 69 -69 116 -163 181 -228 c 0
 243 -290 331 -336 445 -336 c 2
 455 -336 l 2
 567 -336 665 -276 723 -212 c 0
 779 -150 822 -66 822 45 c 2
 822 56 l 2
 822 58 822 59 822 62 c 0
 822 66 822 72 821 80 c 1
 886 80 l 1
 888 66 l 1
 888 39 l 1
 886 -12 879 -57 866 -94 c 0
 829 -209 752 -296 652 -350 c 0
 594 -382 527 -402 445 -402 c 0
 366 -402 302 -382 248 -354 c 1
 171 -316 105 -255 64 -186 c 0
 27 -124 0 -46 0 51 c 0
 -0 61 -1 71 0 80 c 1
 69 80 l 1
 69 63 l 2xde60
718 71 m 2xeee0
 744 71 765 50 765 24 c 0
 765 -2 745 -23 719 -23 c 1xeee0
 716 -45 696 -66 672 -66 c 0
 646 -66 623 -45 623 -19 c 0
 623 -11 624 -5 628 0 c 1
 464 1 l 1
 464 -159 l 1xdee0
 469 -154 477 -152 487 -152 c 0
 513 -152 534 -174 534 -200 c 0
 534 -226 513 -248 487 -248 c 2
 484 -248 l 1
 484 -250 l 2
 484 -276 463 -297 437 -297 c 0
 411 -297 390 -277 390 -251 c 1xdf60
 368 -248 347 -228 347 -204 c 0
 347 -178 368 -155 394 -155 c 0
 402 -155 409 -156 414 -160 c 1
 414 1 l 1
 254 1 l 1xdee0
 258 -4 259 -11 259 -19 c 0
 259 -45 236 -66 210 -66 c 0
 186 -66 166 -45 163 -23 c 1
 137 -23 117 -2 117 24 c 0
 117 50 138 71 164 71 c 2
 166 71 l 1xeee0
 166 74 l 2
 166 100 188 121 214 121 c 0
 240 121 262 100 262 74 c 0
 262 64 260 56 255 51 c 1
 414 51 l 1
 414 215 l 1xdee0
 409 211 402 210 394 210 c 0
 368 210 347 233 347 259 c 0
 347 283 368 303 390 306 c 1
 390 332 411 352 437 352 c 0
 463 352 484 331 484 305 c 2
 484 303 l 1xdf60
 487 303 l 2
 513 303 534 281 534 255 c 0
 534 229 513 207 487 207 c 0
 477 207 469 209 464 214 c 1
 464 51 l 1
 627 51 l 1xdee0
 622 56 620 64 620 74 c 0
 620 100 642 121 668 121 c 0
 694 121 716 100 716 74 c 2
 716 71 l 1
 718 71 l 2xeee0
EndSplineSet
Validated: 1
EndChar

StartChar: u1F542
Encoding: 128322 128322 134
Width: 688
Flags: W
HStem: -250 96<367 408.984> -25 94<7.69922 49 599 640.301> 0 49<138 297 347 510> 205 96<367 408.984>
VStem: 49 96<69 110.984> 273 94<-291.301 -250 301 342.301> 297 50<-161 0 49 212> 503 96<69 110.984>
LayerCount: 2
Fore
SplineSet
601 69 m 2xdb
 627 69 648 48 648 22 c 0
 648 -4 628 -25 602 -25 c 1xdb
 599 -47 579 -68 555 -68 c 0
 529 -68 506 -47 506 -21 c 0
 506 -13 507 -5 511 0 c 1
 347 0 l 1
 347 -161 l 1xbb
 352 -156 360 -154 370 -154 c 0
 396 -154 417 -176 417 -202 c 0
 417 -228 396 -250 370 -250 c 2
 367 -250 l 1
 367 -252 l 2
 367 -278 346 -299 320 -299 c 0
 294 -299 273 -279 273 -253 c 1xbd
 251 -250 230 -230 230 -206 c 0
 230 -180 251 -157 277 -157 c 0
 285 -157 292 -158 297 -162 c 1
 297 0 l 1
 137 0 l 1xbb
 141 -5 142 -13 142 -21 c 0
 142 -47 119 -68 93 -68 c 0
 69 -68 49 -47 46 -25 c 1
 20 -25 0 -4 0 22 c 0
 0 48 21 69 47 69 c 2
 49 69 l 1xdb
 49 72 l 2
 49 98 71 119 97 119 c 0
 123 119 145 98 145 72 c 0
 145 62 143 54 138 49 c 1
 297 49 l 1
 297 213 l 1xbb
 292 209 285 208 277 208 c 0
 251 208 230 231 230 257 c 0
 230 281 251 301 273 304 c 1
 273 330 294 350 320 350 c 0
 346 350 367 329 367 303 c 2
 367 301 l 1xbd
 370 301 l 2
 396 301 417 279 417 253 c 0
 417 227 396 205 370 205 c 0
 360 205 352 207 347 212 c 1
 347 49 l 1
 510 49 l 1xbb
 505 54 503 62 503 72 c 0
 503 98 525 119 551 119 c 0
 577 119 599 98 599 72 c 2
 599 69 l 1
 601 69 l 2xdb
EndSplineSet
Validated: 1
EndChar

StartChar: u1F543
Encoding: 128323 128323 135
Width: 777
Flags: W
HStem: -293 74<206.013 487.449> -148 96<228.488 309.248> -43 95<413.146 494.513> 37 96<218.781 298.56> 227 87<268.887 486.768>
VStem: 7 66<-83.5033 95.242> 211 95<44.8047 125.56> 221 96<-140.248 -59.4883> 406 96<-34.9316 44.248>
LayerCount: 2
Fore
SplineSet
453 52 m 0xec80
 481 52 502 32 502 5 c 0
 502 -22 481 -43 453 -43 c 0
 426 -43 406 -23 406 4 c 0
 406 31 426 52 453 52 c 0xec80
692 -342 m 1
 614 -231 l 1
 528 -262 457 -290 361 -290 c 0
 346 -290 331 -293 316 -293 c 0
 249 -293 192 -280 151 -251 c 0
 96 -211 57 -166 32 -117 c 0
 15 -85 7 -50 7 -12 c 0
 7 8 9 28 14 50 c 0
 40 172 133 260 248 297 c 0
 281 308 315 314 356 314 c 0
 419 314 467 301 517 281 c 0
 549 268 580 250 610 229 c 1
 618 250 622 270 628 293 c 0
 631 304 632 314 633 323 c 1
 706 264 l 1
 646 166 l 1
 589 191 533 208 465 221 c 0
 445 225 426 227 408 227 c 0
 398 227 389 226 379 225 c 0
 263 212 157 181 102 108 c 0
 83 81 73 50 73 11 c 0
 73 -60 107 -119 147 -155 c 0
 182 -189 231 -219 295 -219 c 0
 303 -219 312 -218 320 -217 c 0
 402 -208 477 -203 549 -184 c 0
 573 -178 599 -170 626 -159 c 1
 737 -270 l 1
 692 -342 l 1
258 133 m 0xde80
 285 133 306 114 306 87 c 0
 306 59 288 37 261 37 c 0
 233 37 211 57 211 85 c 0
 211 112 231 133 258 133 c 0xde80
268 -52 m 0
 296 -52 317 -71 317 -99 c 0
 317 -127 297 -148 270 -148 c 0
 242 -148 221 -128 221 -101 c 0xcd80
 221 -73 240 -52 268 -52 c 0
EndSplineSet
Validated: 1
EndChar

StartChar: u1F544
Encoding: 128324 128324 136
Width: 769
Flags: W
HStem: -293 74<261.117 531.067> -147 96<427.752 507.512> -42 95<242.487 322.512> 38 95<437.488 519.851> 228 86<249.48 474.332>
VStem: 235 95<-34.459 45.8511> 420 95<-139.513 -58.5331> 430 97<45.8047 125.512> 664 65<-84.9082 95.5242>
LayerCount: 2
Fore
SplineSet
527 85 m 0xdd80
 527 57 505 38 477 38 c 0
 449 38 430 58 430 86 c 0
 430 114 452 133 480 133 c 0
 507 133 527 112 527 85 c 0xdd80
515 -101 m 0xce80
 515 -128 494 -147 467 -147 c 0
 440 -147 420 -126 420 -98 c 0
 420 -71 441 -51 468 -51 c 0
 496 -51 515 -72 515 -101 c 0xce80
722 50 m 0
 727 28 729 7 729 -13 c 0
 729 -50 721 -85 705 -117 c 0
 680 -166 641 -211 586 -251 c 0
 545 -280 488 -293 421 -293 c 0
 378 -293 338 -287 301 -280 c 0
 244 -269 185 -253 124 -231 c 1
 46 -341 l 1
 0 -270 l 1
 110 -159 l 1
 180 -186 248 -209 334 -209 c 0
 359 -209 387 -214 416 -217 c 0
 424 -218 433 -219 441 -219 c 0
 505 -219 555 -189 591 -156 c 0
 630 -119 664 -60 664 11 c 0
 664 92 618 139 564 169 c 0
 508 199 432 226 358 226 c 0
 348 226 338 228 327 228 c 0
 276 228 225 214 184 201 c 0
 152 191 121 179 90 166 c 1
 32 265 l 1
 103 324 l 1
 108 291 116 257 126 229 c 1
 180 267 241 296 313 308 c 0
 336 312 358 314 380 314 c 0
 421 314 455 308 488 297 c 0
 604 260 696 173 722 50 c 0
330 3 m 0
 330 -24 311 -42 284 -42 c 0
 256 -42 235 -23 235 6 c 0
 235 33 256 53 283 53 c 0xec80
 311 53 330 31 330 3 c 0
EndSplineSet
Validated: 1
EndChar

